<mxfile host="65bd71144e">
    <diagram id="-cX-Akw_35P5Dw_SKtEc" name="Page-1">
        <mxGraphModel dx="431" dy="209" grid="1" gridSize="10" guides="1" tooltips="1" connect="1" arrows="1" fold="1" page="1" pageScale="1" pageWidth="1100" pageHeight="850" math="0" shadow="0">
            <root>
                <mxCell id="0"/>
                <mxCell id="1" parent="0"/>
                <mxCell id="2" value="&lt;font style=&quot;font-size: 6px;&quot;&gt;1&lt;/font&gt;" style="ellipse;whiteSpace=wrap;html=1;" vertex="1" parent="1">
                    <mxGeometry x="80" y="90" width="10" height="10" as="geometry"/>
                </mxCell>
                <mxCell id="3" value="" style="ellipse;whiteSpace=wrap;html=1;" vertex="1" parent="1">
                    <mxGeometry x="110" y="90" width="10" height="10" as="geometry"/>
                </mxCell>
                <mxCell id="4" value="" style="ellipse;whiteSpace=wrap;html=1;" vertex="1" parent="1">
                    <mxGeometry x="140" y="90" width="10" height="10" as="geometry"/>
                </mxCell>
                <mxCell id="5" value="" style="ellipse;whiteSpace=wrap;html=1;" vertex="1" parent="1">
                    <mxGeometry x="170" y="90" width="10" height="10" as="geometry"/>
                </mxCell>
                <mxCell id="6" value="" style="edgeStyle=none;orthogonalLoop=1;jettySize=auto;html=1;" edge="1" parent="1">
                    <mxGeometry width="80" relative="1" as="geometry">
                        <mxPoint x="90" y="94.95" as="sourcePoint"/>
                        <mxPoint x="110" y="94.95" as="targetPoint"/>
                        <Array as="points"/>
                    </mxGeometry>
                </mxCell>
                <mxCell id="7" value="" style="edgeStyle=none;orthogonalLoop=1;jettySize=auto;html=1;" edge="1" parent="1">
                    <mxGeometry width="80" relative="1" as="geometry">
                        <mxPoint x="120.00000000000003" y="94.94999999999999" as="sourcePoint"/>
                        <mxPoint x="140.00000000000003" y="94.94999999999999" as="targetPoint"/>
                        <Array as="points"/>
                    </mxGeometry>
                </mxCell>
                <mxCell id="8" value="" style="edgeStyle=none;orthogonalLoop=1;jettySize=auto;html=1;" edge="1" parent="1">
                    <mxGeometry width="80" relative="1" as="geometry">
                        <mxPoint x="150.00000000000003" y="94.94999999999999" as="sourcePoint"/>
                        <mxPoint x="170.00000000000003" y="94.94999999999999" as="targetPoint"/>
                        <Array as="points"/>
                    </mxGeometry>
                </mxCell>
                <mxCell id="9" value="" style="edgeStyle=none;orthogonalLoop=1;jettySize=auto;html=1;" edge="1" parent="1">
                    <mxGeometry width="80" relative="1" as="geometry">
                        <mxPoint x="84.95000000000003" y="74.94999999999999" as="sourcePoint"/>
                        <mxPoint x="84.95" y="90" as="targetPoint"/>
                        <Array as="points"/>
                    </mxGeometry>
                </mxCell>
                <mxCell id="10" value="&lt;div style=&quot;text-align: center;&quot;&gt;&lt;span style=&quot;background-color: initial;&quot;&gt;2&lt;/span&gt;&lt;/div&gt;" style="text;whiteSpace=wrap;html=1;fontSize=6;" vertex="1" parent="1">
                    <mxGeometry x="110" y="85" width="10" height="20" as="geometry"/>
                </mxCell>
                <mxCell id="12" value="&lt;div style=&quot;text-align: center;&quot;&gt;3&lt;/div&gt;" style="text;whiteSpace=wrap;html=1;fontSize=6;" vertex="1" parent="1">
                    <mxGeometry x="140" y="85" width="10" height="20" as="geometry"/>
                </mxCell>
                <mxCell id="13" value="&lt;div style=&quot;text-align: center;&quot;&gt;4&lt;/div&gt;" style="text;whiteSpace=wrap;html=1;fontSize=6;" vertex="1" parent="1">
                    <mxGeometry x="170" y="85" width="10" height="20" as="geometry"/>
                </mxCell>
                <mxCell id="14" value="&lt;font style=&quot;font-size: 6px;&quot;&gt;curr&lt;/font&gt;" style="text;html=1;align=center;verticalAlign=middle;resizable=0;points=[];autosize=1;strokeColor=none;fillColor=none;fontSize=6;" vertex="1" parent="1">
                    <mxGeometry x="70" y="60" width="30" height="20" as="geometry"/>
                </mxCell>
                <mxCell id="15" value="" style="edgeStyle=none;orthogonalLoop=1;jettySize=auto;html=1;" edge="1" parent="1">
                    <mxGeometry width="80" relative="1" as="geometry">
                        <mxPoint x="114.95000000000007" y="74.94999999999999" as="sourcePoint"/>
                        <mxPoint x="114.94999999999996" y="90" as="targetPoint"/>
                        <Array as="points"/>
                    </mxGeometry>
                </mxCell>
                <mxCell id="16" value="nxtn" style="text;html=1;align=center;verticalAlign=middle;resizable=0;points=[];autosize=1;strokeColor=none;fillColor=none;fontSize=6;" vertex="1" parent="1">
                    <mxGeometry x="100" y="60" width="30" height="20" as="geometry"/>
                </mxCell>
                <mxCell id="17" value="&lt;font style=&quot;font-size: 6px;&quot;&gt;1&lt;/font&gt;" style="ellipse;whiteSpace=wrap;html=1;" vertex="1" parent="1">
                    <mxGeometry x="250" y="90" width="10" height="10" as="geometry"/>
                </mxCell>
                <mxCell id="18" value="" style="ellipse;whiteSpace=wrap;html=1;" vertex="1" parent="1">
                    <mxGeometry x="280" y="90" width="10" height="10" as="geometry"/>
                </mxCell>
                <mxCell id="19" value="" style="ellipse;whiteSpace=wrap;html=1;" vertex="1" parent="1">
                    <mxGeometry x="310" y="90" width="10" height="10" as="geometry"/>
                </mxCell>
                <mxCell id="20" value="" style="ellipse;whiteSpace=wrap;html=1;" vertex="1" parent="1">
                    <mxGeometry x="340" y="90" width="10" height="10" as="geometry"/>
                </mxCell>
                <mxCell id="21" value="" style="edgeStyle=none;orthogonalLoop=1;jettySize=auto;html=1;" edge="1" parent="1">
                    <mxGeometry width="80" relative="1" as="geometry">
                        <mxPoint x="260" y="94.94999999999996" as="sourcePoint"/>
                        <mxPoint x="280" y="94.94999999999996" as="targetPoint"/>
                        <Array as="points"/>
                    </mxGeometry>
                </mxCell>
                <mxCell id="22" value="" style="edgeStyle=none;orthogonalLoop=1;jettySize=auto;html=1;" edge="1" parent="1">
                    <mxGeometry width="80" relative="1" as="geometry">
                        <mxPoint x="290" y="94.94999999999996" as="sourcePoint"/>
                        <mxPoint x="310.00000000000006" y="94.94999999999996" as="targetPoint"/>
                        <Array as="points"/>
                    </mxGeometry>
                </mxCell>
                <mxCell id="23" value="" style="edgeStyle=none;orthogonalLoop=1;jettySize=auto;html=1;" edge="1" parent="1">
                    <mxGeometry width="80" relative="1" as="geometry">
                        <mxPoint x="320.00000000000006" y="94.94999999999996" as="sourcePoint"/>
                        <mxPoint x="340.00000000000006" y="94.94999999999996" as="targetPoint"/>
                        <Array as="points"/>
                    </mxGeometry>
                </mxCell>
                <mxCell id="24" value="" style="edgeStyle=none;orthogonalLoop=1;jettySize=auto;html=1;" edge="1" parent="1">
                    <mxGeometry width="80" relative="1" as="geometry">
                        <mxPoint x="254.95000000000005" y="74.94999999999996" as="sourcePoint"/>
                        <mxPoint x="254.95" y="90" as="targetPoint"/>
                        <Array as="points"/>
                    </mxGeometry>
                </mxCell>
                <mxCell id="25" value="&lt;div style=&quot;text-align: center;&quot;&gt;&lt;span style=&quot;background-color: initial;&quot;&gt;2&lt;/span&gt;&lt;/div&gt;" style="text;whiteSpace=wrap;html=1;fontSize=6;" vertex="1" parent="1">
                    <mxGeometry x="280" y="85" width="10" height="20" as="geometry"/>
                </mxCell>
                <mxCell id="26" value="&lt;div style=&quot;text-align: center;&quot;&gt;3&lt;/div&gt;" style="text;whiteSpace=wrap;html=1;fontSize=6;" vertex="1" parent="1">
                    <mxGeometry x="310" y="85" width="10" height="20" as="geometry"/>
                </mxCell>
                <mxCell id="27" value="&lt;div style=&quot;text-align: center;&quot;&gt;4&lt;/div&gt;" style="text;whiteSpace=wrap;html=1;fontSize=6;" vertex="1" parent="1">
                    <mxGeometry x="340" y="85" width="10" height="20" as="geometry"/>
                </mxCell>
                <mxCell id="28" value="&lt;font style=&quot;font-size: 6px;&quot;&gt;curr&lt;/font&gt;" style="text;html=1;align=center;verticalAlign=middle;resizable=0;points=[];autosize=1;strokeColor=none;fillColor=none;fontSize=6;" vertex="1" parent="1">
                    <mxGeometry x="240" y="60" width="30" height="20" as="geometry"/>
                </mxCell>
                <mxCell id="29" value="" style="edgeStyle=none;orthogonalLoop=1;jettySize=auto;html=1;" edge="1" parent="1">
                    <mxGeometry width="80" relative="1" as="geometry">
                        <mxPoint x="284.95000000000005" y="74.94999999999996" as="sourcePoint"/>
                        <mxPoint x="284.94999999999993" y="90" as="targetPoint"/>
                        <Array as="points"/>
                    </mxGeometry>
                </mxCell>
                <mxCell id="30" value="nxtn" style="text;html=1;align=center;verticalAlign=middle;resizable=0;points=[];autosize=1;strokeColor=none;fillColor=none;fontSize=6;" vertex="1" parent="1">
                    <mxGeometry x="270" y="60" width="30" height="20" as="geometry"/>
                </mxCell>
                <mxCell id="31" value="&lt;span style=&quot;font-size: 6px;&quot;&gt;0&lt;/span&gt;" style="ellipse;whiteSpace=wrap;html=1;" vertex="1" parent="1">
                    <mxGeometry x="220" y="90" width="10" height="10" as="geometry"/>
                </mxCell>
                <mxCell id="32" value="" style="edgeStyle=none;orthogonalLoop=1;jettySize=auto;html=1;" edge="1" parent="1">
                    <mxGeometry width="80" relative="1" as="geometry">
                        <mxPoint x="230" y="94.94999999999996" as="sourcePoint"/>
                        <mxPoint x="250" y="94.94999999999996" as="targetPoint"/>
                        <Array as="points"/>
                    </mxGeometry>
                </mxCell>
                <mxCell id="33" value="" style="edgeStyle=none;orthogonalLoop=1;jettySize=auto;html=1;" edge="1" parent="1">
                    <mxGeometry width="80" relative="1" as="geometry">
                        <mxPoint x="224.95000000000005" y="74.94999999999996" as="sourcePoint"/>
                        <mxPoint x="224.95" y="90" as="targetPoint"/>
                        <Array as="points"/>
                    </mxGeometry>
                </mxCell>
                <mxCell id="34" value="prev" style="text;html=1;align=center;verticalAlign=middle;resizable=0;points=[];autosize=1;strokeColor=none;fillColor=none;fontSize=6;" vertex="1" parent="1">
                    <mxGeometry x="205" y="60" width="40" height="20" as="geometry"/>
                </mxCell>
                <mxCell id="53" value="&lt;span style=&quot;font-size: 6px;&quot;&gt;2&lt;/span&gt;" style="ellipse;whiteSpace=wrap;html=1;" vertex="1" parent="1">
                    <mxGeometry x="445" y="140" width="10" height="10" as="geometry"/>
                </mxCell>
                <mxCell id="54" value="" style="ellipse;whiteSpace=wrap;html=1;" vertex="1" parent="1">
                    <mxGeometry x="475" y="140" width="10" height="10" as="geometry"/>
                </mxCell>
                <mxCell id="55" value="" style="ellipse;whiteSpace=wrap;html=1;" vertex="1" parent="1">
                    <mxGeometry x="505" y="140" width="10" height="10" as="geometry"/>
                </mxCell>
                <mxCell id="56" value="" style="ellipse;whiteSpace=wrap;html=1;" vertex="1" parent="1">
                    <mxGeometry x="535" y="140" width="10" height="10" as="geometry"/>
                </mxCell>
                <mxCell id="57" value="" style="edgeStyle=none;orthogonalLoop=1;jettySize=auto;html=1;" edge="1" parent="1">
                    <mxGeometry width="80" relative="1" as="geometry">
                        <mxPoint x="455" y="144.94999999999993" as="sourcePoint"/>
                        <mxPoint x="475" y="144.94999999999993" as="targetPoint"/>
                        <Array as="points"/>
                    </mxGeometry>
                </mxCell>
                <mxCell id="58" value="" style="edgeStyle=none;orthogonalLoop=1;jettySize=auto;html=1;" edge="1" parent="1">
                    <mxGeometry width="80" relative="1" as="geometry">
                        <mxPoint x="485" y="144.94999999999993" as="sourcePoint"/>
                        <mxPoint x="505" y="144.94999999999993" as="targetPoint"/>
                        <Array as="points"/>
                    </mxGeometry>
                </mxCell>
                <mxCell id="59" value="" style="edgeStyle=none;orthogonalLoop=1;jettySize=auto;html=1;" edge="1" parent="1">
                    <mxGeometry width="80" relative="1" as="geometry">
                        <mxPoint x="515" y="144.94999999999993" as="sourcePoint"/>
                        <mxPoint x="535" y="144.94999999999993" as="targetPoint"/>
                        <Array as="points"/>
                    </mxGeometry>
                </mxCell>
                <mxCell id="60" value="" style="edgeStyle=none;orthogonalLoop=1;jettySize=auto;html=1;" edge="1" parent="1">
                    <mxGeometry width="80" relative="1" as="geometry">
                        <mxPoint x="539.9100000000001" y="124.94999999999996" as="sourcePoint"/>
                        <mxPoint x="539.9100000000001" y="140" as="targetPoint"/>
                        <Array as="points"/>
                    </mxGeometry>
                </mxCell>
                <mxCell id="61" value="&lt;div style=&quot;text-align: center;&quot;&gt;1&lt;/div&gt;" style="text;whiteSpace=wrap;html=1;fontSize=6;" vertex="1" parent="1">
                    <mxGeometry x="475" y="135" width="10" height="20" as="geometry"/>
                </mxCell>
                <mxCell id="62" value="&lt;div style=&quot;text-align: center;&quot;&gt;3&lt;/div&gt;" style="text;whiteSpace=wrap;html=1;fontSize=6;" vertex="1" parent="1">
                    <mxGeometry x="505" y="135" width="10" height="20" as="geometry"/>
                </mxCell>
                <mxCell id="63" value="&lt;div style=&quot;text-align: center;&quot;&gt;4&lt;/div&gt;" style="text;whiteSpace=wrap;html=1;fontSize=6;" vertex="1" parent="1">
                    <mxGeometry x="535" y="135" width="10" height="20" as="geometry"/>
                </mxCell>
                <mxCell id="64" value="&lt;font style=&quot;font-size: 6px;&quot;&gt;curr&lt;/font&gt;" style="text;html=1;align=center;verticalAlign=middle;resizable=0;points=[];autosize=1;strokeColor=none;fillColor=none;fontSize=6;" vertex="1" parent="1">
                    <mxGeometry x="495" y="110" width="30" height="20" as="geometry"/>
                </mxCell>
                <mxCell id="65" value="" style="edgeStyle=none;orthogonalLoop=1;jettySize=auto;html=1;" edge="1" parent="1">
                    <mxGeometry width="80" relative="1" as="geometry">
                        <mxPoint x="509.91" y="124.94999999999996" as="sourcePoint"/>
                        <mxPoint x="509.9099999999999" y="140" as="targetPoint"/>
                        <Array as="points"/>
                    </mxGeometry>
                </mxCell>
                <mxCell id="66" value="nxtn" style="text;html=1;align=center;verticalAlign=middle;resizable=0;points=[];autosize=1;strokeColor=none;fillColor=none;fontSize=6;" vertex="1" parent="1">
                    <mxGeometry x="525" y="110" width="30" height="20" as="geometry"/>
                </mxCell>
                <mxCell id="67" value="&lt;span style=&quot;font-size: 6px;&quot;&gt;0&lt;/span&gt;" style="ellipse;whiteSpace=wrap;html=1;" vertex="1" parent="1">
                    <mxGeometry x="415" y="140" width="10" height="10" as="geometry"/>
                </mxCell>
                <mxCell id="68" value="" style="edgeStyle=none;orthogonalLoop=1;jettySize=auto;html=1;" edge="1" parent="1">
                    <mxGeometry width="80" relative="1" as="geometry">
                        <mxPoint x="425" y="144.94999999999993" as="sourcePoint"/>
                        <mxPoint x="445" y="144.94999999999993" as="targetPoint"/>
                        <Array as="points"/>
                    </mxGeometry>
                </mxCell>
                <mxCell id="69" value="" style="edgeStyle=none;orthogonalLoop=1;jettySize=auto;html=1;" edge="1" parent="1">
                    <mxGeometry width="80" relative="1" as="geometry">
                        <mxPoint x="479.91" y="124.94999999999996" as="sourcePoint"/>
                        <mxPoint x="479.91" y="140" as="targetPoint"/>
                        <Array as="points"/>
                    </mxGeometry>
                </mxCell>
                <mxCell id="70" value="prev" style="text;html=1;align=center;verticalAlign=middle;resizable=0;points=[];autosize=1;strokeColor=none;fillColor=none;fontSize=6;" vertex="1" parent="1">
                    <mxGeometry x="460" y="110" width="40" height="20" as="geometry"/>
                </mxCell>
                <mxCell id="71" value="" style="shape=stencil(7Z3JEhw3kkS/hteyxA6ce6b/Q2aimrLWiDKKPcvfD2C0rMU964G89UE3LoisTCyxeHgEPqS//fnppz8+fojHn1+/fP7nx//59eevnz6k//gQ46+/f/r45dev808f0n9+SH/75fOXj//48vlfv//87e9//LRGrj/91+f/Xk/4329y6dbHEorH/337h3Dc8rd/+fu38b/9+vvL+Fp0fMXxqb6OD7fQaHxIr+Pj7Ujvx8fbaK/j0+0oNL5XHd8DjW/yPvnWO42vx+v4egv4/Nxfx7dbrjQ+yff284vejI+v6xuPW8w4/vV7Y7hVnP8gz58rEnH86/zHfDtg/8RztzyNH/y9r/Mfy7ljv3N+6rni79Yrvo6f64XzWeX9+24/Vx1fcT67PH/cKr5PSTq+8fz7eHh+OJ/2NL7D+4dbftUn6biFg8bHoOMLrO9xG/L8cK74m/Fdns/657g1ef7UYPC9xzl79/H5lvD9Rf+kcq7Idz6/nBry3fjX/ZbquaPejX9d39TOJ7ybT3mfjvtzrpfM/zhP3Jv9cLye93ygfZmr/3p+87RHoM/DqY2fxnfcn7If8l0jvTlfR9XxGe1LGjq+4fN70vEd7XWQ90/niXtn31/XN2e0v/NpRccP2A/Tmr/uh1w29lf2c66nBninn+X9263A/pn6U96n3yKOF3udx+1AfR6rjm/oP4g9LdN/w/eR/VYCvn9Q/6pEXN9wrs7TeNb//fX8lnQrOL7K8/Ot8Xh5fkF7F87Vv4+vt4L6obyex9JuCfWDvn/f6CuxR3P8QHt9vO7nMvcP78/X/VCPjf4R+1LDuaPe6ZOh4yvMTzq9nfv4eGqAy/H5PE1P48m+Z9VXczz5b/mMbp7Gkz9cVF/VdJ7QN+PFv6r5nLF3z5f3L6fH/ub95TzWemqk7/zedu7wN+PLqz6v/bSAb8aLv1cHxgtz/Ov8tIDny57f2H+b73/oePJn8qkN7uOnvsLxct5bRn8mn9ryPn63vuN1vVrF81JOb+dpPPkP5ZZf93Nr5wl6M17wgTme7G9R/7x13G/1FuX9x+mxvBmv8z8wvmsaP/YD/fOm/u0cP2A+u/obfXqYMH6c1vBpfIf3X/CN/EBkAzPPU1SBDDsoRHURpwCFYCEqxrQEyAYnBUX6PWx9JyBRw/oGssL5dHqeZ4nMfD61/vMv0DfYQe7p3LrXAqbZ+12XvRPQrcqh4RQQX3QKUCwwBcS56QyOTAGJNno7/eVrgXoG+3eBfgYI7wQk/pkCZD+mgBi0Pk6Vfy3QNKIcx/kv7wTEpZgCeIDa6dE/CZDNCf12dBUgEGwKiBIYgVGVrm74EqCtMRSXmwK4cOM0k88C/AvDBBJFQoetw1ag2UejQDhdiedvIGc5qLZf00ron+nWudIEN3g8OgXIP1qAgKjKwQBpujiihCgtSKCoAIYUyY5oR2U8nR7ZfFMAQWrz8uZH026dAhLmrFmiVzLtPdeBDlA0ZTwOdJynQPux81AVGpgCjb6hqi8/ImKZU2BkFSDNF++x8ZMAottNDfsUoHB/+lfJvgHxk2HqPiLAvfDsZgKEeN0dwu8VMIxm89EpXU0rrHSyqG1EjsqLwr5rpSmNVy9miXZrcqPImy91zdyMgMjgAp7tPFR6pa6xydLe9Erjwk4nAkeGOrrL12CBZgIYnh/qJM5vIDxrCqidngtHAWg485t3gYQZximgZzojBJktfhjljFmuBbKCMKPyNxRFXUdjFKkqrDg6bo08FVlSAdJLeWiiYgxMJJe51boK0IkrwSzQwIUr8fzvp28gLLIYeD8FSM1MAYnWp8BBr5Q1XT0XjlZ6Ckg+dm4NyrcXN+wFbVwpGk+v7Q0nbgqoC5cwYp8CEotuVOUSkGkNmJS6EDgwFnWB6S8RbDIFhgmQZ1yqevcbj2wKNHOlCeldwH2wWaKVbuq3bgzKA+p/WjgKLaeAar544qHXAsPUDKf7qqE/c/PR9q5JAfcpQABfzeYJZMQEalUQYZ44gnBrV6hlHVHC+CyJPQrupXbHep4EyIVrSWH39QugZlo+UYznb4Ct0YqFlgUTc82gls06TAE9DwmpXq2aQYn80f4LAZHE9Q0WNJGD1S7VDK10Ua0xQ0vyyJpp797wTE8BcdZ7RQR7Ckgc1wsv3BTIKrDZSy5A7s8SKCqwmVaN2MvpK78TUHAzo6+xBAw+JWCwFY0fekbmy1q4YgK8cNm+gbh6S8B/gT9acY2MyngJJFsHUpVFw4ENyPxIP32/gGLGm+09D6TD2LSXhjknFf2llZIx3JuScD2dwfCTAGmN+cbVsHtKJ0ylIjywudLEk3igencBJvKs2FYEAlrRYdSTOdHkez9QjLtAw9z4tDfiezdWAstxFoF0bpa3vyDpx4Dp3GF8qulMbGZJDlAdGIBPgRhVgHbrMAruFKCgaRintnbUGsNQ6eVybQSqChCodvlKRBO8+OiOrsMwYvMUIARrCdgrUeb+AXA9CSReaeXedORmPNDV7/+FbL+w+QYxKJWx+2Eh/loHOg9JCVa7X8jKGJwChKwvP1i+oaHfOgUkfpghCKqZqljlFCCfbzSN2GdUhJuvK828Mo10DOP1DQTVpoCYrBWS09YwK1qYObUEhJrb0U4/4Ke7ALuhC016faXMEPBcBwnLEuey5kpLucgCtukXitq4VFjdG6EosRs6jByROI5bZ9oE0GQFjdiXAK1DUFW5Xom+wVnkGZGTBd1EeyX+hSACCVPm01+SXFaKuDWmgG6NgEzLfidi3gU4VTsFRHvHjnHcDFW1GKSi1phepXx0vDNprgUMVIsMeU23VlDpMFDdTy+1S4EZa+8etSIkbJx1y3CEggZlurWH1Mgx53i6tfoNGdOcMwYS9Gf9AsWi1T56g/4YXBQYxl7hcVEBIp61rNmyzTq0rFS+KUCbb/rywmpZXB0SiIoZz1/AeDpoAi8w+7sOKw+sGO0uh83WAX+hqnOyKUCsBrVMAYJaalLUITBluQbbrcy5rod6lYFxvjI04AiBgfKmBmWVpdIvVOUVB66bKIaRLQFKHCVl5k4BMoorW1ZVgPgaJSq+tGaJfsEXLpx0uncC4qyHgGHZKibJJkDrcFy9EguoIjvwPHheNBzMYD6M5YWxax6G2mE0Pb1g8cc6VsDmZpR2ZoRXdX0qmuicdUYrAkXZUJmKFU05KGWzYHTlHAfGx6cLL8+vCOGkppatocpOd+7AYzzSd4wC35n5UnS9OlL+knHT7lSBd+M1xYeUkeko2/OJnZqipa4QmZxu8rDzQt9r/Ck+L9H2D5+X2C04R3bJKvh+HV8QhFnHScJa9OKjWZqEhOWYrQQfKyq9JQPT0WJUslhER3CVwEoJL7oTq0RYSqgxa7iIwRL1I+wczJkouH8WeVrXl9zS6YRKIFiR2bP44ro/KSJyQno/N8j1eEOnuKLm4bE+xtN+WHGAnl/y/paDG+V7iQS0IhmzX3AeQ9a8XEFPLhgCyfSzEBVlSjz/QSGgiPv/0UDl7qBsKoLEvBwY03R9G+7X0rTe98By2aZzHzjWsGAGTUV1TUXJymK9MzjKUL2fmGumL8Nq2QgdGZkKBgNy1tTKWAv6DFmr/ipuMQtdGjLYktXwMTdYUaqG5zu5OSf1ahTCht570hKnhuWQycpFN9XMWr2KkHlST7ZhlUJyQ0LHI2m4WNGOJ8sdYSQ3Z0ajAkKlkztdPDPNhuO7dx1OZ9XKB9niJNWRFXVktnwUxj82vG0acIjSa4jrJXWmud1FsnLkTbcvzfBvDl+14Tjv7kjg0y1u5k2QdWYwbPPDR/RsO9qVg54fHV5Uv7MmkEwEY8FZAZHM1HWdmbTZ713NMLKflcbI0YvVr0cM7orOTEDGVlWWWkAjX7Xg8GA+mALkBybvm5ph7qTVNZXDZa7D/UhKLYVDK0oP7tNiScfA9dXe+IyjqGQpx11UUaXRD/d9Ksr+4HT6iqLUiGAtdrXGDYhyheqeCmmQUHV+Ghf1NyPgnNTzd+Prj6B6MwqP6hDTwQ1Do8bM+8HK+BL30Tose4u5pxg0TON+AStWkVQsoyZmriJGXtGybZyziVYSFbnPpMVqCVHDx/Z6MiqwvrErKsmE+qmvhnpdtJ9TUCJT4xApKnOQ+zgla1TasZVC8qJo1CfJQryOfU2TBZydUVtrNNMZlTemceOS1Kr8vI0/1YwxiOm4ZInXgjSbNLTcuuDzr7IcFDNnY54y1ylbYyZGuVYWSMcTZXO1vTOIgJ5v7gP3PctOwsb9Uw5j2yOqXaxR5uBSw3CRzyXi4hQQwlxg760EdWwX0sf53OQ5aaonS+qYh4MLAZNC5wOdAk96c7PYlVUvPzK+WanX+YLX44fRXg7E/hfzwJK/WA8XNfoO3P+4JtVzgQ19tUKVkNDS1GoturlFXO3GC2BKYR3GnijIC2hBU5bLnd0wcYTbUJGq0JLGbcsBhvPfsp1nboQ2BUSBhYL4QCtGAyv8SkVdnJC5arAa7SVjarFVdXICd9NezDRrl44FQ8P6sWdEyfthDeLz6dleCzhJq6Dm7lbdvzJkRCkspgT6juUoanKT1lhNqwRlSIhPPqoQ7wJ8gPpQIG7ZTyLxHuofrcbaVNlyaF1iYq7PEpBf4FbEw1rTpYRwyTAMISWuOwlK7UiJ6drBcs98HcCImi9IHOcMsw/rF2harUPBdL0jGPVhSELaVEk1ZTmmiup+dNVLifstPfpC3IO7gNHasO5guaB7OIal1zpOazgOteyFmwoOs4rTvSHluvptWA0G1iT1q+aytPus22QtyL0a1oZnehN4qC2HWjlumwLS/qV2ri7I6uVW7iKyqs4lkh+sNizUrgO7V/xVcncK/FVy5wL/diV3ZoIqE3xWzar1XKZq/Ysy2mMnIK5AC7zSnptjUs2wewYaF22swkTBv5lmNexmhen7oisQdPN1pqesAiArySYEoTf1f1ZfBq620e7CmwIg77TLuexVE24C2JfB69A3VR5dgfzOHaqb1SRNAYyaihFK664ZhZb3M5j2V8uObwJ/tey4BAX+3Vp2FG2MOAWo8GQKaNPzegYt746oRBydbw1q1ZqSd0wvTgGZpcEmq1VrBMcmq1UDmCPPUtUM8nR9sZWQ9bYfBTP4q1lRUAFiZrRsPZW3MJw2IKtYPNPsPrtR0fdullcdHIwut9ZeCW8AqNYzk5t3VWvdPu7J0HegsU5rRt+7Gk4xMtYozEBSXLiRsEC0dPvohEaxNA3Zx4YOa2VJm25fU0A7x0X+6KsjigVx1hx+BGb7WLS76xFYLes7MG39gAyefoFQ5lKt+S+3eS5Fo91Np91iTfqXN86z5IoMc2tmpwejmyVfqBm8NSSrnR4NvcqSrMF9R5O1cmvySgOVwOqOav1X8RfCRcNWsnHlsCTKwZyt7F36OabJlh8YfP1eNprRnFdiFWdPKXb+BqOLL/yS2wWrVWT3fmGTtl3JUOfDThBb9osuzExyTNYrYvCFJsl6RYzNPbvDTFDAyC/1i1fC5tZXrdip1D01KzyMzGGx9NdICIemopcfrF7VXGsptUIPIOJaIF00zUReStRudo+MwbWA3ZC5AFLucK8HKPFdBkal2zgbsVvjz4RB0Lo1yZwNUn2LLWavtPkFvUgjcZWjtwvmiwijNSRee4kEykUzX6TUFa0eeWBU1wLG0Xrkt94JaCdpdpgWt9sux6HrHZ07/kgbXgs47409rGhdQeYvEEgW3bIfyDqJUcsUlqrkW1y0Z/jmElgrGVwrTQvnvgM341oJbL+qgz7aL8fZCuh54CsiVh2v2QdSlesKITsP9NHByAubAxT6RYyPrGNjFY6Imy9Yx6XBoHFo5mBxm6nQzKAEPHHBrshbZ5oF/MIrvPPUe8LynUOh6ObbwD8PvtKTwOYuNG26wDWOwS7S7FxDubg+Bt5vKg6KwaG4Dlmbok0B3HxZA4ie0DMOVtk5BfCavGSdc/kykFXG0VUA91K0hUsYl4WgcVnf1G9bw5geuTPixY2L2BPNAF3WGVY50QPjV9bzPCDO4lfqbXon2aY4sPeY4dGNY8qi2fjGVHlrPLZSSER1Vg9jXWkK75M1+/MAm9+Ml8qJxqUKWSvaFjURr1QWwKdxGjFpf4oWsRWiQSVzPDbI0cBwc0VvUmZ9OzalwvL8yle4Jg3yNuSMpHdm1MYgibW8bQhAe/F9QWNm/XoqJ62ysVe4iaPPD5c+2X1+NbFzapyjiCQ8I4CuXrek0e35gW/01PNb+c6soMnbsrkxVPdDYQKHtTxbUDroHwv4C9fKH6ofSuFSQXUYC/dWDQpmFe4sbwZ4Ee/IEVI0oWw8Xk1ElM3tqOpnzfHoKyqpIg92URTGWh3fyOHQ/ZwbpjmC9T/ivg9RGXqZb0OLOv+Zee5Rg6a8aXCl/lXOfN2nMnlywlKgYH2n0+68Dx1PaO6h6cEcsYHQofstMzRrvY7zsdEnYi8SJx4OpV0kLhU81H4lzrUcut9SRXzl0IzXHE/22vozpoLM9kP1c8pov4wonBL6k4dCK4lv9TqMTR3QfziUMJsOPF/W3zgOjBcsmzHHY8MqXd9dwzCNj1Yb6x+x7wtfRn0l9miNB/ti/Mn1PujPiH8SBzcg1Ah1RXxov8QfiA1TaEH9t13rAPW3I992FtTfXhEWvo8QMpaHjPtBS1ki4xwav8Swm0/ZDwfqW+tHGXg/x4v6I95v2lSaW0MY9XvTPdyu5QyccvKCq4jEb7vBJnCDunjRixnzfnZrLub+jTo80LtKhmMjGmrB5uB8nxew8nBNWCIpx3o7cR2DX3uL/PysXBZ2G7LhypuWc76q1EVZnz43DSbt1ejO8REOiXXV2lQOG/IZ+J4nI8qt8dgpazd+/uGPn75++vaXX3797bc/v375/M+Pz///y+cvH//x5fO/fv/5/k9/fvrpj4/zb/8P);lineShape=1;fontSize=6;" vertex="1" parent="1">
                    <mxGeometry x="398.2156756550735" y="103.61485731835319" width="166.9951236777169" height="79.24261759038211" as="geometry"/>
                </mxCell>
                <mxCell id="72" value="goal after 1 iteration" style="text;html=1;align=center;verticalAlign=middle;resizable=0;points=[];autosize=1;strokeColor=none;fillColor=none;fontSize=6;" vertex="1" parent="1">
                    <mxGeometry x="435" y="155" width="80" height="20" as="geometry"/>
                </mxCell>
                <mxCell id="73" value="&lt;font style=&quot;font-size: 6px;&quot;&gt;1&lt;/font&gt;" style="ellipse;whiteSpace=wrap;html=1;" vertex="1" parent="1">
                    <mxGeometry x="635" y="90" width="10" height="10" as="geometry"/>
                </mxCell>
                <mxCell id="74" value="" style="ellipse;whiteSpace=wrap;html=1;" vertex="1" parent="1">
                    <mxGeometry x="665" y="90" width="10" height="10" as="geometry"/>
                </mxCell>
                <mxCell id="75" value="" style="ellipse;whiteSpace=wrap;html=1;" vertex="1" parent="1">
                    <mxGeometry x="695" y="90" width="10" height="10" as="geometry"/>
                </mxCell>
                <mxCell id="76" value="" style="ellipse;whiteSpace=wrap;html=1;" vertex="1" parent="1">
                    <mxGeometry x="725" y="90" width="10" height="10" as="geometry"/>
                </mxCell>
                <mxCell id="77" value="" style="edgeStyle=none;orthogonalLoop=1;jettySize=auto;html=1;" edge="1" parent="1">
                    <mxGeometry width="80" relative="1" as="geometry">
                        <mxPoint x="645.0000000000001" y="94.94999999999993" as="sourcePoint"/>
                        <mxPoint x="665" y="94.94999999999993" as="targetPoint"/>
                        <Array as="points"/>
                    </mxGeometry>
                </mxCell>
                <mxCell id="78" value="" style="edgeStyle=none;orthogonalLoop=1;jettySize=auto;html=1;" edge="1" parent="1">
                    <mxGeometry width="80" relative="1" as="geometry">
                        <mxPoint x="675" y="94.94999999999993" as="sourcePoint"/>
                        <mxPoint x="695" y="94.94999999999993" as="targetPoint"/>
                        <Array as="points"/>
                    </mxGeometry>
                </mxCell>
                <mxCell id="79" value="" style="edgeStyle=none;orthogonalLoop=1;jettySize=auto;html=1;" edge="1" parent="1">
                    <mxGeometry width="80" relative="1" as="geometry">
                        <mxPoint x="705" y="94.94999999999993" as="sourcePoint"/>
                        <mxPoint x="725" y="94.94999999999993" as="targetPoint"/>
                        <Array as="points"/>
                    </mxGeometry>
                </mxCell>
                <mxCell id="80" value="" style="edgeStyle=none;orthogonalLoop=1;jettySize=auto;html=1;" edge="1" parent="1">
                    <mxGeometry width="80" relative="1" as="geometry">
                        <mxPoint x="639.95" y="74.94999999999993" as="sourcePoint"/>
                        <mxPoint x="639.95" y="90" as="targetPoint"/>
                        <Array as="points"/>
                    </mxGeometry>
                </mxCell>
                <mxCell id="81" value="&lt;div style=&quot;text-align: center;&quot;&gt;&lt;span style=&quot;background-color: initial;&quot;&gt;2&lt;/span&gt;&lt;/div&gt;" style="text;whiteSpace=wrap;html=1;fontSize=6;" vertex="1" parent="1">
                    <mxGeometry x="665" y="85" width="10" height="20" as="geometry"/>
                </mxCell>
                <mxCell id="82" value="&lt;div style=&quot;text-align: center;&quot;&gt;3&lt;/div&gt;" style="text;whiteSpace=wrap;html=1;fontSize=6;" vertex="1" parent="1">
                    <mxGeometry x="695" y="85" width="10" height="20" as="geometry"/>
                </mxCell>
                <mxCell id="83" value="&lt;div style=&quot;text-align: center;&quot;&gt;4&lt;/div&gt;" style="text;whiteSpace=wrap;html=1;fontSize=6;" vertex="1" parent="1">
                    <mxGeometry x="725" y="85" width="10" height="20" as="geometry"/>
                </mxCell>
                <mxCell id="84" value="&lt;font style=&quot;font-size: 6px;&quot;&gt;curr&lt;/font&gt;" style="text;html=1;align=center;verticalAlign=middle;resizable=0;points=[];autosize=1;strokeColor=none;fillColor=none;fontSize=6;" vertex="1" parent="1">
                    <mxGeometry x="625" y="60" width="30" height="20" as="geometry"/>
                </mxCell>
                <mxCell id="85" value="" style="edgeStyle=none;orthogonalLoop=1;jettySize=auto;html=1;" edge="1" parent="1">
                    <mxGeometry width="80" relative="1" as="geometry">
                        <mxPoint x="669.95" y="74.94999999999993" as="sourcePoint"/>
                        <mxPoint x="669.9499999999998" y="90" as="targetPoint"/>
                        <Array as="points"/>
                    </mxGeometry>
                </mxCell>
                <mxCell id="86" value="nxtn" style="text;html=1;align=center;verticalAlign=middle;resizable=0;points=[];autosize=1;strokeColor=none;fillColor=none;fontSize=6;" vertex="1" parent="1">
                    <mxGeometry x="655" y="60" width="30" height="20" as="geometry"/>
                </mxCell>
                <mxCell id="87" value="&lt;span style=&quot;font-size: 6px;&quot;&gt;0&lt;/span&gt;" style="ellipse;whiteSpace=wrap;html=1;" vertex="1" parent="1">
                    <mxGeometry x="605" y="90" width="10" height="10" as="geometry"/>
                </mxCell>
                <mxCell id="88" value="" style="edgeStyle=none;orthogonalLoop=1;jettySize=auto;html=1;" edge="1" parent="1">
                    <mxGeometry width="80" relative="1" as="geometry">
                        <mxPoint x="615.0000000000001" y="94.94999999999993" as="sourcePoint"/>
                        <mxPoint x="635.0000000000001" y="94.94999999999993" as="targetPoint"/>
                        <Array as="points"/>
                    </mxGeometry>
                </mxCell>
                <mxCell id="89" value="" style="edgeStyle=none;orthogonalLoop=1;jettySize=auto;html=1;" edge="1" parent="1">
                    <mxGeometry width="80" relative="1" as="geometry">
                        <mxPoint x="609.95" y="74.94999999999993" as="sourcePoint"/>
                        <mxPoint x="609.95" y="90" as="targetPoint"/>
                        <Array as="points"/>
                    </mxGeometry>
                </mxCell>
                <mxCell id="90" value="prev" style="text;html=1;align=center;verticalAlign=middle;resizable=0;points=[];autosize=1;strokeColor=none;fillColor=none;fontSize=6;" vertex="1" parent="1">
                    <mxGeometry x="590" y="60" width="40" height="20" as="geometry"/>
                </mxCell>
                <mxCell id="91" value="" style="shape=stencil(lVvZclQ3FPwav6q0L88k+Q+qgOAKAQrI9vdpxaU7oz739sRv9lhtLWfrs8xTevP949uv75+i//7j25ff3v/1/O7Hx6f001OMz58/vv/2/AM/PaWfn9KbD1++vf/125c/Pr97+f3r27ly/vT7lz/nf/j7BZe863miov/n5ZPmSvzvg19e1n96/ny3PnaX2ra+u5rF+uKa39YH77ICJJfqDoiuNAHwbsQdkN0Y14CAE/cd0Nae54BqdhiueAEoLu6XjmE9wzkguR52QHZeHSm6VHZAdV28El597DtA8lEAhqv7FVKWd+6up319dU0oUl/3O9YP59P1+ubiLrQcXA7X6+s67bE+rROeri/8Prk6L/S0sB3k7mK5Xp9d3wVWvEvi/2cX9/cs2WUhL+jL2NfDUsX7m/U1uijXx/38tcj3xH13m6mQr3ifYvyQPo/Rh3YY3YU+x/2+rbmmDCYsN3U4OhiMUDjYcN41uof1BldeglSuJ+eVl+jLER6ALG0AXqfsQutFHglSI0/X23q3y3BAl+5u9GtAimz3A/FA7JAQQPY7DPhStUNzfbf8EfUOg1V1JG0KiX3dyC4JOeRmAMUFZQyBvQUAVdyh4M8GIN0d/HswAHGkms4AIkTV9sodWngtoLDFAaBiTuvL5O8Ep7QVFlwJkFwTz3ozyHttVWEQcYoMaEi/DftqZKJVspebfR2AKD0fTtz3Szftuqd97erdqmRgeMRAzj7LZ52vvts0okMVrzRM+Gx+PfQVoO1Hql0DDAGomiANY6IPIi4AYz8SjLYJNzPAWPaYWJqOidWFXflAMoqwBwAiHSlI+g9A2uUAmpTVpbHDfqRcZASadyCiF11QumTCbkLI0pKmfAExaWjBEXVA1BvKgIohw955ZaJwM0T/m0wwpgERALfSFucphUkacCjzXc6jwi7cDKUw4cg5rhxZ2gWHvK0JwYG71N3zhePdrpwxkcqgqQPcPekS8qyusiToJnE+yRwQsQY5DemVmkm3tfVMkk1pj+QZCOqD0p7lQs7XI4JT2ibz2mocPdarLA86RrYpAzo8KKdtSyDn65tLfB7lvsDDAvk7TcPCCpQ3+QahP0gaPeuPeh9420Ym4BfLugLk/YGCZjzZJCVBszYAiF7AjLvQuTzYKqOXpQIA2i6EGGXqhlfleg3ErMVAIQFyU5wKcg77pZGQeqVISN0ohgRJ82zKkI6E9H+q3ky11B0MzUPmJJOStCocdzUYxW3BPoif57qCxDmgclibVRjlvxInhxCl4uc1sz0AoApt1cRyPLSieQBQpQqAJjhVNRkxJJP0kRrxwiRrW/NIgwEyLJiCZ8myGoZnJTJcjk+uAN7sINPPxGzhESCeHUm4mWpi+by0knRgvzSfVR3J1G+m4HQ4ZMFFWWWsxmtM5VM7RA6IU72FqwRgGIt7ILhiLO6BiVLKUDQJA4BICe7gtXonAyhKWwszT8hBFXwmT/IMUJW6apISqEYWzGfewai3VwBbsc4rJl3KIRqLU7oESZsad1dHShwUHwDwJsOod1KAaPjhWFn4ZWAnAv2gDzA4imZdN7AUDgmuugMAxDWQ4CqSO8uTBMiyEA0AuRmQE5VCA0DdA9Cfrrof1VC4JruAAJDyzcxHyaFwHQ2pg2SVhUtKoKFN8VbDZmYBXz1rdonIepVlgGyqXCDrKorOHfZLB+iv0qXMqjEkc5ivuptDk8UYiK2To5T8baYn1JaUXAmRgHm3bG9PN00ykzUJ+B/qf3hZ6QFhpcDgpUogXw2R1gcdz0ug9cqSZ77N55EEo3Lb0Ot8vnOJ/hDIeT3CJFZ+ucur+gXpp5f0pWU3yGJkabs1LqkGGQO75ziepOvtke+r6xE9m2RB1o9uvYFbfUHWpxqztb4U6nz9MC7Lr0+uiniVBBClBxqR67shSz89DKuYXlSX/nkepMtywTDpEbROReRZ1CZAXIe8AlBuPuty6g5t/fmuIKEKYaOfRGS5Q+f0KEWZEwJAqpQOznoOGNyNAG+RXSFLpcIy7ysAW5vuwwLA5csu/REAw2T/6lmD9yeJrYrhcwsKmXp8aQL2HaqXRUb7TDM3Vu2IsYqiB6BImjBMWKtNTyN15oN1SEc8Ohe2m/bc04JooCTJSikA5JhakXVMGDWVkhBdZJu0GGfsV//tChBMq1de2vDBGWB055b8PSKM7PJEA9B91T646znC6jmcA/rqBB+AJJPzbtpz4+j7nAOSGa5osrTag5lZ6TIqNpOBTZNSgGImGYaelUj8Snee55y6mQmRh4jyakTgKcObdzvnw231p+8Bqmid2Ohu7vCy21AYILO2xi0fAFRFbOZUdOkuaz3I91tlgJw38mZspclUNZkxrundxLMmUxZ/MKuTIvcCAFAkK3YejBk61ZudURJclKoBSkVE8cY1zwGBfRnYrPKWobEvg3dTNbdwjCMdgCa95ZyNpgm/quk0zyf1o4Zw7jdWHD/W6/pw5lZD67JdkjhfhSuUU5Y8q/cgSnvuJ1dt/t4QkyoTbsPe5lCP/P/cHdK5hmfnUqpkrJ57pbMEKhTIm4aBlq9n8pmHbIibekTWZNWMh4KhK4ux+XOUgzCGv8BX6rFtKu+m9rqxZyQ9auTENP9SkkS48uRcCrLAVrm+M7+voYgFV9gfNLa7+R6CrsgPHpiBhqiCWQiGtwzZZAsm4MMLy6nqwi406AQsdPaJs4ShIpM3/FE2tOakFWUWq+l2FflI6YqcXohmoCJLnZvH5SEYpXPJs5JmGVexvpgimIoZ1gnJJuecnODzqJiRjM5l2QPCem7ePTqPKXqrObZkBnLryvOu1vMs66P7Fgp6eoY/mNxaFu1f+x2zx+vxw+0LbR+eP316+T7c/d/5C3D46OXLc+nnfwE=);lineShape=1;fontSize=6;" vertex="1" parent="1">
                    <mxGeometry x="676.5354079110109" y="93.80462249880073" width="2.0989489085612236" height="2.1455827089179307" as="geometry"/>
                </mxCell>
                <mxCell id="92" value="" style="shape=stencil(lZbdUttADIWfxrdnpNX+XlN4D2YIjYc0YUKg5e3R1mOIlkSd3vnv88pHR8c7yc3L9v55MwV6OR0PT5vf88NpO8mPKYR5v90c55MeTXI7yc3j4bj5eTy87h+W8+f7/mQ/+nV462/4s3CNUEKnAr0vV2JCan+v3C3Abt6fAxmlGCAJWnWAhsoGyIKaXSCJAUoEeyUltGyAqis4QG2IFmiMFh1AVbIltYLE14FCyFYlJgLRdSITJNolGtiRKRGq7ZzqQE4jooBtI2oFO4BUkAVK84EMsrrmBhIHKGMjUkV1VIphXCGqW5zO6W1pFggITklaQK4G0CKzs0KuaMkCGSE53lARrZlU6OB8dG+TXUFbGfyBoGFG6V8zykPjCLFcB87c/OkNWoPh8hI6MBbQofJa3UdysGtbX3FZJh36YUg1GJySeqzYkr6i53KrBeXbjFYnBjQa6wBofHozmhCHoVZZHTN1QP4HkDima09Dx0whrm7+BBKyE0yc1rQ+i43ofHRBtW4tDHHaEMYwzrym7cXn1ar2AxKvKXLteWuLSODg1ZNsYgRfUc0TWz831xQcR4GYkZweBxmBBHEmRz0x/Bm0AY6garpBofHfpgdfO47HebdbNizn98cdil5adjdy+wE=);lineShape=1;fontSize=6;" vertex="1" parent="1">
                    <mxGeometry x="677.5002425823759" y="97.20564143532064" width="0.201169819219067" height="0.20178694092841398" as="geometry"/>
                </mxCell>
                <mxCell id="93" value="" style="shape=stencil(lZbdUttADIWfxrdnpNX+XlN4D2YIjYc0YUKg5e3R1mOIlkSd3vnv88pHR8c7yc3L9v55MwV6OR0PT5vf88NpO8mPKYR5v90c55MeTXI7yc3j4bj5eTy87h+W8+f7/mQ/+nV462/4s3CNUEKnAr0vV2JCan+v3C3Abt6fAxmlGCAJWnWAhsoGyIKaXSCJAUoEeyUltGyAqis4QG2IFmiMFh1AVbIltYLE14FCyFYlJgLRdSITJNolGtiRKRGq7ZzqQE4jooBtI2oFO4BUkAVK84EMsrrmBhIHKGMjUkV1VIphXCGqW5zO6W1pFggITklaQK4G0CKzs0KuaMkCGSE53lARrZlU6OB8dG+TXUFbGfyBoGFG6V8zykPjCLFcB87c/OkNWoPh8hI6MBbQofJa3UdysGtbX3FZJh36YUg1GJySeqzYkr6i53KrBeXbjFYnBjQa6wBofHozmhCHoVZZHTN1QP4HkDima09Dx0whrm7+BBKyE0yc1rQ+i43ofHRBtW4tDHHaEMYwzrym7cXn1ar2AxKvKXLteWuLSODg1ZNsYgRfUc0TWz831xQcR4GYkZweBxmBBHEmRz0x/Bm0AY6garpBofHfpgdfO47HebdbNizn98cdil5adjdy+wE=);lineShape=1;fontSize=6;" vertex="1" parent="1">
                    <mxGeometry x="676.8858480511259" y="98.58804133766441" width="0.201169819219067" height="0.20178694092841398" as="geometry"/>
                </mxCell>
                <mxCell id="94" value="" style="shape=stencil(lZbdUttADIWfxrdnpNX+XlN4D2YIjYc0YUKg5e3R1mOIlkSd3vnv88pHR8c7yc3L9v55MwV6OR0PT5vf88NpO8mPKYR5v90c55MeTXI7yc3j4bj5eTy87h+W8+f7/mQ/+nV462/4s3CNUEKnAr0vV2JCan+v3C3Abt6fAxmlGCAJWnWAhsoGyIKaXSCJAUoEeyUltGyAqis4QG2IFmiMFh1AVbIltYLE14FCyFYlJgLRdSITJNolGtiRKRGq7ZzqQE4jooBtI2oFO4BUkAVK84EMsrrmBhIHKGMjUkV1VIphXCGqW5zO6W1pFggITklaQK4G0CKzs0KuaMkCGSE53lARrZlU6OB8dG+TXUFbGfyBoGFG6V8zykPjCLFcB87c/OkNWoPh8hI6MBbQofJa3UdysGtbX3FZJh36YUg1GJySeqzYkr6i53KrBeXbjFYnBjQa6wBofHozmhCHoVZZHTN1QP4HkDima09Dx0whrm7+BBKyE0yc1rQ+i43ofHRBtW4tDHHaEMYwzrym7cXn1ar2AxKvKXLteWuLSODg1ZNsYgRfUc0TWz831xQcR4GYkZweBxmBBHEmRz0x/Bm0AY6garpBofHfpgdfO47HebdbNizn98cdil5adjdy+wE=);lineShape=1;fontSize=6;" vertex="1" parent="1">
                    <mxGeometry x="675.580242582376" y="100.2776409470394" width="0.201169819219067" height="0.20178694092841398" as="geometry"/>
                </mxCell>
                <mxCell id="95" value="" style="shape=stencil(lZbdUttADIWfxrdnpNX+XlN4D2YIjYc0YUKg5e3R1mOIlkSd3vnv88pHR8c7yc3L9v55MwV6OR0PT5vf88NpO8mPKYR5v90c55MeTXI7yc3j4bj5eTy87h+W8+f7/mQ/+nV462/4s3CNUEKnAr0vV2JCan+v3C3Abt6fAxmlGCAJWnWAhsoGyIKaXSCJAUoEeyUltGyAqis4QG2IFmiMFh1AVbIltYLE14FCyFYlJgLRdSITJNolGtiRKRGq7ZzqQE4jooBtI2oFO4BUkAVK84EMsrrmBhIHKGMjUkV1VIphXCGqW5zO6W1pFggITklaQK4G0CKzs0KuaMkCGSE53lARrZlU6OB8dG+TXUFbGfyBoGFG6V8zykPjCLFcB87c/OkNWoPh8hI6MBbQofJa3UdysGtbX3FZJh36YUg1GJySeqzYkr6i53KrBeXbjFYnBjQa6wBofHozmhCHoVZZHTN1QP4HkDima09Dx0whrm7+BBKyE0yc1rQ+i43ofHRBtW4tDHHaEMYwzrym7cXn1ar2AxKvKXLteWuLSODg1ZNsYgRfUc0TWz831xQcR4GYkZweBxmBBHEmRz0x/Bm0AY6garpBofHfpgdfO47HebdbNizn98cdil5adjdy+wE=);lineShape=1;fontSize=6;" vertex="1" parent="1">
                    <mxGeometry x="673.506648832376" y="101.50644465797689" width="0.201169819219067" height="0.20178694092841398" as="geometry"/>
                </mxCell>
                <mxCell id="96" value="" style="shape=stencil(lZbdUttADIWfxrdnpNX+XlN4D2YIjYc0YUKg5e3R1mOIlkSd3vnv88pHR8c7yc3L9v55MwV6OR0PT5vf88NpO8mPKYR5v90c55MeTXI7yc3j4bj5eTy87h+W8+f7/mQ/+nV462/4s3CNUEKnAr0vV2JCan+v3C3Abt6fAxmlGCAJWnWAhsoGyIKaXSCJAUoEeyUltGyAqis4QG2IFmiMFh1AVbIltYLE14FCyFYlJgLRdSITJNolGtiRKRGq7ZzqQE4jooBtI2oFO4BUkAVK84EMsrrmBhIHKGMjUkV1VIphXCGqW5zO6W1pFggITklaQK4G0CKzs0KuaMkCGSE53lARrZlU6OB8dG+TXUFbGfyBoGFG6V8zykPjCLFcB87c/OkNWoPh8hI6MBbQofJa3UdysGtbX3FZJh36YUg1GJySeqzYkr6i53KrBeXbjFYnBjQa6wBofHozmhCHoVZZHTN1QP4HkDima09Dx0whrm7+BBKyE0yc1rQ+i43ofHRBtW4tDHHaEMYwzrym7cXn1ar2AxKvKXLteWuLSODg1ZNsYgRfUc0TWz831xQcR4GYkZweBxmBBHEmRz0x/Bm0AY6garpBofHfpgdfO47HebdbNizn98cdil5adjdy+wE=);lineShape=1;fontSize=6;" vertex="1" parent="1">
                    <mxGeometry x="671.1258480511259" y="102.65844416969566" width="0.201169819219067" height="0.20178694092841398" as="geometry"/>
                </mxCell>
                <mxCell id="97" value="" style="shape=stencil(lZbdUttADIWfxrdnpNX+XlN4D2YIjYc0YUKg5e3R1mOIlkSd3vnv88pHR8c7yc3L9v55MwV6OR0PT5vf88NpO8mPKYR5v90c55MeTXI7yc3j4bj5eTy87h+W8+f7/mQ/+nV462/4s3CNUEKnAr0vV2JCan+v3C3Abt6fAxmlGCAJWnWAhsoGyIKaXSCJAUoEeyUltGyAqis4QG2IFmiMFh1AVbIltYLE14FCyFYlJgLRdSITJNolGtiRKRGq7ZzqQE4jooBtI2oFO4BUkAVK84EMsrrmBhIHKGMjUkV1VIphXCGqW5zO6W1pFggITklaQK4G0CKzs0KuaMkCGSE53lARrZlU6OB8dG+TXUFbGfyBoGFG6V8zykPjCLFcB87c/OkNWoPh8hI6MBbQofJa3UdysGtbX3FZJh36YUg1GJySeqzYkr6i53KrBeXbjFYnBjQa6wBofHozmhCHoVZZHTN1QP4HkDima09Dx0whrm7+BBKyE0yc1rQ+i43ofHRBtW4tDHHaEMYwzrym7cXn1ar2AxKvKXLteWuLSODg1ZNsYgRfUc0TWz831xQcR4GYkZweBxmBBHEmRz0x/Bm0AY6garpBofHfpgdfO47HebdbNizn98cdil5adjdy+wE=);lineShape=1;fontSize=6;" vertex="1" parent="1">
                    <mxGeometry x="668.5914437542509" y="103.73364192360191" width="0.201169819219067" height="0.20178694092841398" as="geometry"/>
                </mxCell>
                <mxCell id="98" value="" style="shape=stencil(lZbdUttADIWfxrdnpNX+XlN4D2YIjYc0YUKg5e3R1mOIlkSd3vnv88pHR8c7yc3L9v55MwV6OR0PT5vf88NpO8mPKYR5v90c55MeTXI7yc3j4bj5eTy87h+W8+f7/mQ/+nV462/4s3CNUEKnAr0vV2JCan+v3C3Abt6fAxmlGCAJWnWAhsoGyIKaXSCJAUoEeyUltGyAqis4QG2IFmiMFh1AVbIltYLE14FCyFYlJgLRdSITJNolGtiRKRGq7ZzqQE4jooBtI2oFO4BUkAVK84EMsrrmBhIHKGMjUkV1VIphXCGqW5zO6W1pFggITklaQK4G0CKzs0KuaMkCGSE53lARrZlU6OB8dG+TXUFbGfyBoGFG6V8zykPjCLFcB87c/OkNWoPh8hI6MBbQofJa3UdysGtbX3FZJh36YUg1GJySeqzYkr6i53KrBeXbjFYnBjQa6wBofHozmhCHoVZZHTN1QP4HkDima09Dx0whrm7+BBKyE0yc1rQ+i43ofHRBtW4tDHHaEMYwzrym7cXn1ar2AxKvKXLteWuLSODg1ZNsYgRfUc0TWz831xQcR4GYkZweBxmBBHEmRz0x/Bm0AY6garpBofHfpgdfO47HebdbNizn98cdil5adjdy+wE=);lineShape=1;fontSize=6;" vertex="1" parent="1">
                    <mxGeometry x="665.7498470745635" y="104.88564143532065" width="0.201169819219067" height="0.20178694092841398" as="geometry"/>
                </mxCell>
                <mxCell id="99" value="" style="shape=stencil(lZbdUttADIWfxrdnpNX+XlN4D2YIjYc0YUKg5e3R1mOIlkSd3vnv88pHR8c7yc3L9v55MwV6OR0PT5vf88NpO8mPKYR5v90c55MeTXI7yc3j4bj5eTy87h+W8+f7/mQ/+nV462/4s3CNUEKnAr0vV2JCan+v3C3Abt6fAxmlGCAJWnWAhsoGyIKaXSCJAUoEeyUltGyAqis4QG2IFmiMFh1AVbIltYLE14FCyFYlJgLRdSITJNolGtiRKRGq7ZzqQE4jooBtI2oFO4BUkAVK84EMsrrmBhIHKGMjUkV1VIphXCGqW5zO6W1pFggITklaQK4G0CKzs0KuaMkCGSE53lARrZlU6OB8dG+TXUFbGfyBoGFG6V8zykPjCLFcB87c/OkNWoPh8hI6MBbQofJa3UdysGtbX3FZJh36YUg1GJySeqzYkr6i53KrBeXbjFYnBjQa6wBofHozmhCHoVZZHTN1QP4HkDima09Dx0whrm7+BBKyE0yc1rQ+i43ofHRBtW4tDHHaEMYwzrym7cXn1ar2AxKvKXLteWuLSODg1ZNsYgRfUc0TWz831xQcR4GYkZweBxmBBHEmRz0x/Bm0AY6garpBofHfpgdfO47HebdbNizn98cdil5adjdy+wE=);lineShape=1;fontSize=6;" vertex="1" parent="1">
                    <mxGeometry x="663.522644926126" y="105.34644465797689" width="0.201169819219067" height="0.20178694092841398" as="geometry"/>
                </mxCell>
                <mxCell id="100" value="" style="shape=stencil(lZbdUttADIWfxrdnpNX+XlN4D2YIjYc0YUKg5e3R1mOIlkSd3vnv88pHR8c7yc3L9v55MwV6OR0PT5vf88NpO8mPKYR5v90c55MeTXI7yc3j4bj5eTy87h+W8+f7/mQ/+nV462/4s3CNUEKnAr0vV2JCan+v3C3Abt6fAxmlGCAJWnWAhsoGyIKaXSCJAUoEeyUltGyAqis4QG2IFmiMFh1AVbIltYLE14FCyFYlJgLRdSITJNolGtiRKRGq7ZzqQE4jooBtI2oFO4BUkAVK84EMsrrmBhIHKGMjUkV1VIphXCGqW5zO6W1pFggITklaQK4G0CKzs0KuaMkCGSE53lARrZlU6OB8dG+TXUFbGfyBoGFG6V8zykPjCLFcB87c/OkNWoPh8hI6MBbQofJa3UdysGtbX3FZJh36YUg1GJySeqzYkr6i53KrBeXbjFYnBjQa6wBofHozmhCHoVZZHTN1QP4HkDima09Dx0whrm7+BBKyE0yc1rQ+i43ofHRBtW4tDHHaEMYwzrym7cXn1ar2AxKvKXLteWuLSODg1ZNsYgRfUc0TWz831xQcR4GYkZweBxmBBHEmRz0x/Bm0AY6garpBofHfpgdfO47HebdbNizn98cdil5adjdy+wE=);lineShape=1;fontSize=6;" vertex="1" parent="1">
                    <mxGeometry x="661.1418441448759" y="105.73044368141439" width="0.201169819219067" height="0.20178694092841398" as="geometry"/>
                </mxCell>
                <mxCell id="101" value="" style="shape=stencil(lZbdUttADIWfxrdnpNX+XlN4D2YIjYc0YUKg5e3R1mOIlkSd3vnv88pHR8c7yc3L9v55MwV6OR0PT5vf88NpO8mPKYR5v90c55MeTXI7yc3j4bj5eTy87h+W8+f7/mQ/+nV462/4s3CNUEKnAr0vV2JCan+v3C3Abt6fAxmlGCAJWnWAhsoGyIKaXSCJAUoEeyUltGyAqis4QG2IFmiMFh1AVbIltYLE14FCyFYlJgLRdSITJNolGtiRKRGq7ZzqQE4jooBtI2oFO4BUkAVK84EMsrrmBhIHKGMjUkV1VIphXCGqW5zO6W1pFggITklaQK4G0CKzs0KuaMkCGSE53lARrZlU6OB8dG+TXUFbGfyBoGFG6V8zykPjCLFcB87c/OkNWoPh8hI6MBbQofJa3UdysGtbX3FZJh36YUg1GJySeqzYkr6i53KrBeXbjFYnBjQa6wBofHozmhCHoVZZHTN1QP4HkDima09Dx0whrm7+BBKyE0yc1rQ+i43ofHRBtW4tDHHaEMYwzrym7cXn1ar2AxKvKXLteWuLSODg1ZNsYgRfUc0TWz831xQcR4GYkZweBxmBBHEmRz0x/Bm0AY6garpBofHfpgdfO47HebdbNizn98cdil5adjdy+wE=);lineShape=1;fontSize=6;" vertex="1" parent="1">
                    <mxGeometry x="657.9162435589384" y="106.03764094703939" width="0.201169819219067" height="0.20178694092841398" as="geometry"/>
                </mxCell>
                <mxCell id="102" value="" style="shape=stencil(lZbdUttADIWfxrdnpNX+XlN4D2YIjYc0YUKg5e3R1mOIlkSd3vnv88pHR8c7yc3L9v55MwV6OR0PT5vf88NpO8mPKYR5v90c55MeTXI7yc3j4bj5eTy87h+W8+f7/mQ/+nV462/4s3CNUEKnAr0vV2JCan+v3C3Abt6fAxmlGCAJWnWAhsoGyIKaXSCJAUoEeyUltGyAqis4QG2IFmiMFh1AVbIltYLE14FCyFYlJgLRdSITJNolGtiRKRGq7ZzqQE4jooBtI2oFO4BUkAVK84EMsrrmBhIHKGMjUkV1VIphXCGqW5zO6W1pFggITklaQK4G0CKzs0KuaMkCGSE53lARrZlU6OB8dG+TXUFbGfyBoGFG6V8zykPjCLFcB87c/OkNWoPh8hI6MBbQofJa3UdysGtbX3FZJh36YUg1GJySeqzYkr6i53KrBeXbjFYnBjQa6wBofHozmhCHoVZZHTN1QP4HkDima09Dx0whrm7+BBKyE0yc1rQ+i43ofHRBtW4tDHHaEMYwzrym7cXn1ar2AxKvKXLteWuLSODg1ZNsYgRfUc0TWz831xQcR4GYkZweBxmBBHEmRz0x/Bm0AY6garpBofHfpgdfO47HebdbNizn98cdil5adjdy+wE=);lineShape=1;fontSize=6;" vertex="1" parent="1">
                    <mxGeometry x="655.6890462933135" y="105.8072405564144" width="0.201169819219067" height="0.20178694092841398" as="geometry"/>
                </mxCell>
                <mxCell id="103" value="" style="shape=stencil(lZbdUttADIWfxrdnpNX+XlN4D2YIjYc0YUKg5e3R1mOIlkSd3vnv88pHR8c7yc3L9v55MwV6OR0PT5vf88NpO8mPKYR5v90c55MeTXI7yc3j4bj5eTy87h+W8+f7/mQ/+nV462/4s3CNUEKnAr0vV2JCan+v3C3Abt6fAxmlGCAJWnWAhsoGyIKaXSCJAUoEeyUltGyAqis4QG2IFmiMFh1AVbIltYLE14FCyFYlJgLRdSITJNolGtiRKRGq7ZzqQE4jooBtI2oFO4BUkAVK84EMsrrmBhIHKGMjUkV1VIphXCGqW5zO6W1pFggITklaQK4G0CKzs0KuaMkCGSE53lARrZlU6OB8dG+TXUFbGfyBoGFG6V8zykPjCLFcB87c/OkNWoPh8hI6MBbQofJa3UdysGtbX3FZJh36YUg1GJySeqzYkr6i53KrBeXbjFYnBjQa6wBofHozmhCHoVZZHTN1QP4HkDima09Dx0whrm7+BBKyE0yc1rQ+i43ofHRBtW4tDHHaEMYwzrym7cXn1ar2AxKvKXLteWuLSODg1ZNsYgRfUc0TWz831xQcR4GYkZweBxmBBHEmRz0x/Bm0AY6garpBofHfpgdfO47HebdbNizn98cdil5adjdy+wE=);lineShape=1;fontSize=6;" vertex="1" parent="1">
                    <mxGeometry x="653.615447660501" y="105.26964045875815" width="0.201169819219067" height="0.20178694092841398" as="geometry"/>
                </mxCell>
                <mxCell id="104" value="" style="shape=stencil(lZbdUttADIWfxrdnpNX+XlN4D2YIjYc0YUKg5e3R1mOIlkSd3vnv88pHR8c7yc3L9v55MwV6OR0PT5vf88NpO8mPKYR5v90c55MeTXI7yc3j4bj5eTy87h+W8+f7/mQ/+nV462/4s3CNUEKnAr0vV2JCan+v3C3Abt6fAxmlGCAJWnWAhsoGyIKaXSCJAUoEeyUltGyAqis4QG2IFmiMFh1AVbIltYLE14FCyFYlJgLRdSITJNolGtiRKRGq7ZzqQE4jooBtI2oFO4BUkAVK84EMsrrmBhIHKGMjUkV1VIphXCGqW5zO6W1pFggITklaQK4G0CKzs0KuaMkCGSE53lARrZlU6OB8dG+TXUFbGfyBoGFG6V8zykPjCLFcB87c/OkNWoPh8hI6MBbQofJa3UdysGtbX3FZJh36YUg1GJySeqzYkr6i53KrBeXbjFYnBjQa6wBofHozmhCHoVZZHTN1QP4HkDima09Dx0whrm7+BBKyE0yc1rQ+i43ofHRBtW4tDHHaEMYwzrym7cXn1ar2AxKvKXLteWuLSODg1ZNsYgRfUc0TWz831xQcR4GYkZweBxmBBHEmRz0x/Bm0AY6garpBofHfpgdfO47HebdbNizn98cdil5adjdy+wE=);lineShape=1;fontSize=6;" vertex="1" parent="1">
                    <mxGeometry x="652.0794515667509" y="104.57844416969564" width="0.201169819219067" height="0.20178694092841398" as="geometry"/>
                </mxCell>
                <mxCell id="105" value="" style="shape=stencil(lZbdUttADIWfxrdnpNX+XlN4D2YIjYc0YUKg5e3R1mOIlkSd3vnv88pHR8c7yc3L9v55MwV6OR0PT5vf88NpO8mPKYR5v90c55MeTXI7yc3j4bj5eTy87h+W8+f7/mQ/+nV462/4s3CNUEKnAr0vV2JCan+v3C3Abt6fAxmlGCAJWnWAhsoGyIKaXSCJAUoEeyUltGyAqis4QG2IFmiMFh1AVbIltYLE14FCyFYlJgLRdSITJNolGtiRKRGq7ZzqQE4jooBtI2oFO4BUkAVK84EMsrrmBhIHKGMjUkV1VIphXCGqW5zO6W1pFggITklaQK4G0CKzs0KuaMkCGSE53lARrZlU6OB8dG+TXUFbGfyBoGFG6V8zykPjCLFcB87c/OkNWoPh8hI6MBbQofJa3UdysGtbX3FZJh36YUg1GJySeqzYkr6i53KrBeXbjFYnBjQa6wBofHozmhCHoVZZHTN1QP4HkDima09Dx0whrm7+BBKyE0yc1rQ+i43ofHRBtW4tDHHaEMYwzrym7cXn1ar2AxKvKXLteWuLSODg1ZNsYgRfUc0TWz831xQcR4GYkZweBxmBBHEmRz0x/Bm0AY6garpBofHfpgdfO47HebdbNizn98cdil5adjdy+wE=);lineShape=1;fontSize=6;" vertex="1" parent="1">
                    <mxGeometry x="650.313045316751" y="103.65684016578939" width="0.201169819219067" height="0.20178694092841398" as="geometry"/>
                </mxCell>
                <mxCell id="106" value="" style="shape=stencil(lZbdUttADIWfxrdnpNX+XlN4D2YIjYc0YUKg5e3R1mOIlkSd3vnv88pHR8c7yc3L9v55MwV6OR0PT5vf88NpO8mPKYR5v90c55MeTXI7yc3j4bj5eTy87h+W8+f7/mQ/+nV462/4s3CNUEKnAr0vV2JCan+v3C3Abt6fAxmlGCAJWnWAhsoGyIKaXSCJAUoEeyUltGyAqis4QG2IFmiMFh1AVbIltYLE14FCyFYlJgLRdSITJNolGtiRKRGq7ZzqQE4jooBtI2oFO4BUkAVK84EMsrrmBhIHKGMjUkV1VIphXCGqW5zO6W1pFggITklaQK4G0CKzs0KuaMkCGSE53lARrZlU6OB8dG+TXUFbGfyBoGFG6V8zykPjCLFcB87c/OkNWoPh8hI6MBbQofJa3UdysGtbX3FZJh36YUg1GJySeqzYkr6i53KrBeXbjFYnBjQa6wBofHozmhCHoVZZHTN1QP4HkDima09Dx0whrm7+BBKyE0yc1rQ+i43ofHRBtW4tDHHaEMYwzrym7cXn1ar2AxKvKXLteWuLSODg1ZNsYgRfUc0TWz831xQcR4GYkZweBxmBBHEmRz0x/Bm0AY6garpBofHfpgdfO47HebdbNizn98cdil5adjdy+wE=);lineShape=1;fontSize=6;" vertex="1" parent="1">
                    <mxGeometry x="649.1610433636259" y="102.8888421189144" width="0.201169819219067" height="0.20178694092841398" as="geometry"/>
                </mxCell>
                <mxCell id="107" value="" style="shape=stencil(lZbdUttADIWfxrdnpNX+XlN4D2YIjYc0YUKg5e3R1mOIlkSd3vnv88pHR8c7yc3L9v55MwV6OR0PT5vf88NpO8mPKYR5v90c55MeTXI7yc3j4bj5eTy87h+W8+f7/mQ/+nV462/4s3CNUEKnAr0vV2JCan+v3C3Abt6fAxmlGCAJWnWAhsoGyIKaXSCJAUoEeyUltGyAqis4QG2IFmiMFh1AVbIltYLE14FCyFYlJgLRdSITJNolGtiRKRGq7ZzqQE4jooBtI2oFO4BUkAVK84EMsrrmBhIHKGMjUkV1VIphXCGqW5zO6W1pFggITklaQK4G0CKzs0KuaMkCGSE53lARrZlU6OB8dG+TXUFbGfyBoGFG6V8zykPjCLFcB87c/OkNWoPh8hI6MBbQofJa3UdysGtbX3FZJh36YUg1GJySeqzYkr6i53KrBeXbjFYnBjQa6wBofHozmhCHoVZZHTN1QP4HkDima09Dx0whrm7+BBKyE0yc1rQ+i43ofHRBtW4tDHHaEMYwzrym7cXn1ar2AxKvKXLteWuLSODg1ZNsYgRfUc0TWz831xQcR4GYkZweBxmBBHEmRz0x/Bm0AY6garpBofHfpgdfO47HebdbNizn98cdil5adjdy+wE=);lineShape=1;fontSize=6;" vertex="1" parent="1">
                    <mxGeometry x="647.9322445355009" y="101.9672405564144" width="0.201169819219067" height="0.20178694092841398" as="geometry"/>
                </mxCell>
                <mxCell id="108" value="" style="shape=stencil(lZbdUttADIWfxrdnpNX+XlN4D2YIjYc0YUKg5e3R1mOIlkSd3vnv88pHR8c7yc3L9v55MwV6OR0PT5vf88NpO8mPKYR5v90c55MeTXI7yc3j4bj5eTy87h+W8+f7/mQ/+nV462/4s3CNUEKnAr0vV2JCan+v3C3Abt6fAxmlGCAJWnWAhsoGyIKaXSCJAUoEeyUltGyAqis4QG2IFmiMFh1AVbIltYLE14FCyFYlJgLRdSITJNolGtiRKRGq7ZzqQE4jooBtI2oFO4BUkAVK84EMsrrmBhIHKGMjUkV1VIphXCGqW5zO6W1pFggITklaQK4G0CKzs0KuaMkCGSE53lARrZlU6OB8dG+TXUFbGfyBoGFG6V8zykPjCLFcB87c/OkNWoPh8hI6MBbQofJa3UdysGtbX3FZJh36YUg1GJySeqzYkr6i53KrBeXbjFYnBjQa6wBofHozmhCHoVZZHTN1QP4HkDima09Dx0whrm7+BBKyE0yc1rQ+i43ofHRBtW4tDHHaEMYwzrym7cXn1ar2AxKvKXLteWuLSODg1ZNsYgRfUc0TWz831xQcR4GYkZweBxmBBHEmRz0x/Bm0AY6garpBofHfpgdfO47HebdbNizn98cdil5adjdy+wE=);lineShape=1;fontSize=6;" vertex="1" parent="1">
                    <mxGeometry x="646.4730453167509" y="100.96884211891441" width="0.201169819219067" height="0.20178694092841398" as="geometry"/>
                </mxCell>
                <mxCell id="109" value="" style="shape=stencil(lVrLchs5DPwaXVEkAb7O2eQ/UhVnrVqvnXKc198vZlWYGYKalnyT5fYYBBuNBqQTf/j++PnbwymF72+vL/88/Dp/eXs88V+nlM7Pjw+v5zd9deKPJ/7w9eX14e/Xlx/PXy4/f/u8IJdX/778XJ7w+/J3nUpd/iiFP/aG8P9vfLrAn87PO3ih3gd4oxSP4UJV3NNTP4YztTDAYyZuCC8jPgVqFeGZR3wlBuEz1TTgWaiAeIR4xEuinI7xmUIc8DkQg/gzFYevJCCeQmHMT2HqIJ5i/33FN2rgvgrVPOArU8jH+EpxzH8tVMDz9XbKiO/UwH1VymN+WqJSEL46fKMgCO/Y3xN1UC2N8hh/14yB+8qUxvvq1W78AB9HvvVIFeRTqI3l2JQ/EC/j81ukDuuxOT4USiCfTHHMZw1UwjE+GdtXfq4VdBUfjb1rvXTKoL6ir9+sGQD8CV4fRPkJ8TzGIxnWY/D5UT1hkM9AYcwPN6vQI/zIN1ZGwfj98zXDMP408k0rAtV7sN6z4rMx9gBfHF4ZBfkQRn2LFepJNPVe8QnyP1Ec86PdEbYLn37qUK14zGagDi5XY40eH0BxRe1tyeEjuCzNnVOrAMUkdq+eweTiejLZd8cIxUS7kWSHr+C8PLFZEwbiYTZt3fBIrHj1Fhu+AbwE49aGR81FhHL2eCTm2tvG+DXByJxo+orHI3OSPT/ZEnwd38yr7fDIbCS7zg0fAR+Keovs8chsBO8emBLITxV/v4oH91Wrlet9z9dem6bzAnlo4t0VzmcrRq8dHohh68QT38B5e/NqmKCYK97xLUE57N3EdZdPcF7FF89/JP6K7yOfsRmIYWqn2k1Bweg/cAWQ4fTSV/Oy2h/o/hXv7GGBDUMvwD2/wuFOzakTLMWj56vZjA4f0AUXM0db/MjNK37KDyoAxXNz+Rd03gkvsMHM8QgU3Pm8bB3tznzi6Wu+rwTd6swHLUh03olvWLBmPrM5kDvrRaAhuFKQghVrqngduJFiTYpSbimQU6yCFWhSxAodyqy4WpD4gt+FnztAtQfc2WEq7khTB6uwYOYOWewC7+zABa435g6veHDe2UHg588OReMHfJgdkOKRI5scFs7n4uDek//ZISoeOdbmHXeFjnJxuFM8aJ4K7+MbTxOM8hk5er4SDzhv6n6fWeC4rL92E1uxAfc6Ps38ESSIKriTXqHxdw1300PEN50406SfSN/8uJ9hf5nUpFm/OViOOTGP8cZy1S1/YoHzsnjxX9YLIB4xs7Piy63ls7PbHdolNQuumyZoB9i0fr/8AWxbp5Xdcgktc6blniQ477AvRsnQ7rEfN6XbxwFHy8nxvFmwWpnb3y0PMd+ic58Cq7HY7eyWn4g/xaahFY/dSbVetVveIv43W02veNyNunefPVJD7sovk3uG6tNMa1Z8s3X9Ub2PfNv5v4ML9tv5CuVWvFvqeOAUr+bLpwugIMW7w5bg9lambt3xAsgLnPohnB8Xf10/PzsoMD+u9RuC4vaNWjBwAecLLFe4UEvejeV1X3+w7XXuSgULLSjDtM8RaD/DtD+p9s7R9t/hw43tuRPcKPDToODP2yHdou+n2r4we/zshbZvbeoWlOFsZ1qz8w7IykQbRbfoETcVL/600FpF0+L7rJ7i67RrQcmPNilueLR7iJM1b7C2lviTw2dgtZf8BIeHH0ZE+2BmIxue3X036nAXonjfjWw7foQP7PFo1H/f1yRuwvXF9o2Mr+enp8sXOva/99/g0Lcu3/7gj/8B);lineShape=1;fontSize=6;" vertex="1" parent="1">
                    <mxGeometry x="644.8935853660759" y="99.91353767278085" width="3.5598421122453874" height="2.9382237588671343" as="geometry"/>
                </mxCell>
                <mxCell id="111" value="" style="shape=stencil(lZzZkt3GEUS/Zl47el+eZfk/FCHKZJgWFRS9/b2rPQHMIOveA/KNC/IC6K4lK6saL+WnPz/+8seHlxz//Pb1y98//PvTr98+vpS/vOT86fePH75++mZ/eik/v5Sffvvy9cPfvn755++/vv79j1/2lftP//jyr/0L/3nF5RJS3qgc//v6L6mGMv//L399BXz+9Pt7QAptXgEtTALE0PsV0MMczwFphV6ugBFmBcAMPV4BM4wOgB5GugD2Q9IdWqjXR8o5ZHqHGrIAaogRACWUcQW0MBYA7AGuG5dHGAUAtnFyhxlWBkA89vUAlBgS7LQB0roCTmN5CFih1Ov1Zo2wDTPUdr2+hgG7MEK/vnHpocKajhCvm1Ym7rL92vX5awwRnt8c5bo+NeGWtZDl90uosJ419OuG1YbPU4+3O6/voYGRlrCuflbH8UZPrm9Xz6+24/j7+eqWzUwQLDSHef39ljl2hS6/b28Ez59Dk+tbaI2ur9f1bAPtOas9t4n2kNXeegyFr7/+fk9h8vPL9WZvCddHnqcdHvTk+nG1z35nb/HqL32EBXH9fNrz+nXs4JPr5zWEjnSE7Sf+Uq72NuwJwT5tNeT6iomsHf97Xt8Pi30SfyS+jRkSrM8I7RrfxsI8OQ9rP66ftj7gL/Zrcr3tOKXVdCzfCTCHpAyTD3s5AS0kSnpVt2D2UCjpteOJT8AIBXzGuIku0gyFEvc6fu8ErINdPGNc4gYr4iPtuHjd58V2bYYthrEyshWzvDgU0OmRhoaKVY7k9tg142HJJ6BiLi5ZOd1qGHyLZdeoAMoGZSgvXcYjwZaMDQhFW+O452NADqsogAKY5XfJsBsA72AJO7k7UIipM8zoABTzYmjupYlbW87OzQHAlt6S9nsAhDHL2sO/NNiSpW1J5BsAcaktZS4bAPtgiXv4l4Y7dGM2/g7ETYuy9ztAU3ZxB+hH+fDe+Ogd5gNrrcTfowsz5kCU4NKDnY5g3sOVXavjS1sGX00BlBMthas/NCx/LYdHByBWa0lcl5VphmXl5IIx8VrLykVs6aTejwFVK/KVubJrSsUsZVUIM5aVJdxbFqVaxP5bTGPnabjDOrnOOyaQIHrbK2bhGu0Ino8BlgKvy2rrlmAfbF8les8zLDwGNM2iM/IduqOsRinBWncKvL6DGXwijuiihrlUB3KynFgzMgpOBijXjbM4QqaxX1rqHtaPNlGQQmYghduAa5ix4EmV+X6kqwP1esSRp4CraVjGoFppOQpnxWHhnU7XR7KsN3gfRFq08pb0I/8OrYfJ5i05zlI9CSQ7kjoFgAiWeZwIfy2x8RUV/owQZQKkY5tOkYTrByP/QwAdVRUDCNGtDctEC5WSgYyYUsqySCqF9xa26A7DvUNEGmoAsdayUPrYZZ7T8iLlh6Z5unSM3harJS6VhurNrm3lDhWZ8Q7u140rGT3OgnsVxTYdxPQZ1xCA1fCkCY+hKSsvvkPV/JDnEW0fA7JunNWOCR6pLy0HrDotYHwWq8d1HzJ3MIwZi+5jgEbM2AmTBiDh2coBSewbwBWKiAgbQDVQVZJ4B0iHtP6dAAtbkhTvAF3bBRsAprHV7/hDgKiC7w3ASvzpTAMBTVPWHcBpuDertIUQtw9E4XaXRN6BW08GkDCTOcdtl5eXjqj72jsII0ssVO6+kQA63yErWU8V32F3mqQrWY54/hhQD8J2AjIKIQaQbsnuwLEgJaVliii/7wQlZRmyULNu8dCJ8ns9230nRURKaSxBeHRDPaC6cqZipDfaIv5/BoRnYpek9IwUoC5dT64bWlI/iIdzPxWu9HpyTGO/0rGNWIAaH09Jn5/yWnJ5DeXJ7lJz4cxcHY/Edl532ntHJtyHThaMw4OeMgURe7DiMSoiOdMckgTf0dQBUmayM3SHU7nVelycoxb4TEoULJJm1no0zg1s4hgPFg6Z1tFOeMa0peLZHQ6itd6PMxrSLmAk71csYLzWs1kqFfRJW6Vvaff7AZPvoFl5He2EZ4DoAJRvrC7sDkC2ZAAp6POt5tarA3DlmVx5QVnZKs+ZFED8a7qepgEoqE43dGIbNxggPUoDkEI8z997V/FQEbbNuyqAqMhuMA4FEFMwgFARA1BNtaKjtTeKWDwc8jvfYSVtsdys0va49CP7sAFuQIqaOMvnz4UEwwDJWyu76HAORP6wtZ6lgBuPmy4I3Pi01ucsA86psseOS+yi3QEo8v04oB37+q6mIhXDclyROxSkzjO7ZU3ck0k667XJIWs9otTvoUe4w5hqrWmgMjm6KgC7CCP6U3V+ZZMTatdlfWmjPxQ1upswMYJF8x99urowocftpubVRY3zYWO26dDdOuq+x9cXZXATByG6G0LjSLw7y6KJc/vdjaNUdIU2NHAXnMuwIkamV3hSpLmhxIwsZo/8iWuibPsmx789P0WjOrXIq+hm1TeTeAazKm0bPOOZfBG/aGbNx4mIBUBxcpC5DFl0GZpozSlxLLS7uqqyuuMG6XYkImXETfZZcMSXLjqqk260lKz6kQV4apR6SStzU8UeSclzPurXZ8vqh9QRsNwIOQO2wJN+CFCPGfbvBQw9XXADMHfWufkbgBP+7gBOlrsDTEfauBXbkw7H3dyhu0HUPSpLg6JDHWhHbXqk5RgSy6M7lcvGVSzEhjeNhmrPnitwUjtFvuHGXS0UI/H09e3AOxjLq64AoD7PLFp9bmmcWJ4bpLE4QprndFNcFqloWR80SgsypAet2Mov7WTn0rCu2kW9rNJAoXQ6a91JjKtPGWgqXJNscUWOSkRs9i7XkKiFJz6yhhkLnhnY9iq6rEY9iEnuYSB5pIn67R6kkZdeBzt+DHBC3Z6WINnA0XOjfxTIlpNvLDxTEbOmmoYRUuLzyw283k2tTJ22vpuLmdodvpu8mdpJ6hmF7g0QIb3ymMvUHnrnWei1NBj3G/3TSVAjsjrphAlLMZ1O0MXomHTFI3R2CxHeLMcQ0/XrOhYGJnMI6TjMUwJ6BvAnInDo0I2izcYjga5I3wGdJ5qkeTsnjzUmN/HK5wb3aKYAEprrFnxkgDXfTYtK53DPaXFW9McPSPuY1fVi66FVPKUC8g48I7KndmWVeNJyOn1/sXm/GfMJuJnPHnqA0zwEx62b2+mJZGNUna94i55PeagAFlZ+OwwlBdCkZfcnIhbudB86OLnW3byRTuIvLiD8rP8NwJ8mWNw69ecVGPDgRMQ6guczXUnPXNwA/KmOm0dyhOlmlR6cTFl3xai3JTrPZgRMiqC1MO9WZ0vv0t5Tfcm/BE1xJHdEiHsOxbHvGw/ap6qdQ+DZLjdkvlj0sgLDBybqSVuRJLLvzbmoElX0ujk4YqWkhg0eItyny7sCKLju46Zyh4pS8R6fEdMofIov6cDF4kZ8WspcF2uJey5MljXiTidXvk7W35Ob6N50hg6pZp3RmHy2K0Ul05M/O+A6avtQKzVmdIzIuATx3K5TkJPnfJo7ZBvReaqeixz8YYmifaU9VUyeoL45GpKGrDFyFIxHSR1tJHQDt799oZLrPoDSJw7sR1X3ese5jKg+0/nkq6uTbo75++u5lxm1htmfKYD1j+7Yx8SEE92Y4cC2e9QOVGP7ie4zFAVbPlHtp/Hp6agzK8YbqHpJOhSzD+XSKXn32Q2exXAdpcrDtu4zEbViy6ro/taMMpJrfBglybA+VSekCw8++YMb/OUcd2io8Lm+ruM5pWAO61qRl4xCnhsaLDyWOJXG7vEIklM13t7I4Mu1Lzp/iejRSDtRoeRnfwrWBpazdfYnocmlopLzzaxtctVH4qC+vzklowuc9d6+YXUCztP+z8iWPhKfrPSBxZYhEmFMbo6fO735TKTvADQRsrfJT9nTHfwISUZ913+0Zj8SrVLWcL1fmuiHn6AtfADDnRk0ADmoAYq7A35CxGl4BsBVcufiE8ew7M4yp4r98D07nhSAH2+6/1Kd/eHtO3e/ffr8+fUzee//X7+LZ//0+k298vP/AA==);lineShape=1;fontSize=6;" vertex="1" parent="1">
                    <mxGeometry x="646.4594633675182" y="93.86299374803974" width="1.5520080586026923" height="1.8570337365986873" as="geometry"/>
                </mxCell>
                <mxCell id="112" value="" style="shape=stencil(lZbdUttADIWfxrdnpNX+XlN4D2YIjYc0YUKg5e3R1mOIlkSd3vnv88pHR8c7yc3L9v55MwV6OR0PT5vf88NpO8mPKYR5v90c55MeTXI7yc3j4bj5eTy87h+W8+f7/mQ/+nV462/4s3CNUEKnAr0vV2JCan+v3C3Abt6fAxmlGCAJWnWAhsoGyIKaXSCJAUoEeyUltGyAqis4QG2IFmiMFh1AVbIltYLE14FCyFYlJgLRdSITJNolGtiRKRGq7ZzqQE4jooBtI2oFO4BUkAVK84EMsrrmBhIHKGMjUkV1VIphXCGqW5zO6W1pFggITklaQK4G0CKzs0KuaMkCGSE53lARrZlU6OB8dG+TXUFbGfyBoGFG6V8zykPjCLFcB87c/OkNWoPh8hI6MBbQofJa3UdysGtbX3FZJh36YUg1GJySeqzYkr6i53KrBeXbjFYnBjQa6wBofHozmhCHoVZZHTN1QP4HkDima09Dx0whrm7+BBKyE0yc1rQ+i43ofHRBtW4tDHHaEMYwzrym7cXn1ar2AxKvKXLteWuLSODg1ZNsYgRfUc0TWz831xQcR4GYkZweBxmBBHEmRz0x/Bm0AY6garpBofHfpgdfO47HebdbNizn98cdil5adjdy+wE=);lineShape=1;fontSize=6;" vertex="1" parent="1">
                    <mxGeometry x="647.562952700828" y="93.08696498877299" width="0.16435442746655798" height="0.16485861186960438" as="geometry"/>
                </mxCell>
                <mxCell id="113" value="" style="shape=stencil(lZbdUttADIWfxrdnpNX+XlN4D2YIjYc0YUKg5e3R1mOIlkSd3vnv88pHR8c7yc3L9v55MwV6OR0PT5vf88NpO8mPKYR5v90c55MeTXI7yc3j4bj5eTy87h+W8+f7/mQ/+nV462/4s3CNUEKnAr0vV2JCan+v3C3Abt6fAxmlGCAJWnWAhsoGyIKaXSCJAUoEeyUltGyAqis4QG2IFmiMFh1AVbIltYLE14FCyFYlJgLRdSITJNolGtiRKRGq7ZzqQE4jooBtI2oFO4BUkAVK84EMsrrmBhIHKGMjUkV1VIphXCGqW5zO6W1pFggITklaQK4G0CKzs0KuaMkCGSE53lARrZlU6OB8dG+TXUFbGfyBoGFG6V8zykPjCLFcB87c/OkNWoPh8hI6MBbQofJa3UdysGtbX3FZJh36YUg1GJySeqzYkr6i53KrBeXbjFYnBjQa6wBofHozmhCHoVZZHTN1QP4HkDima09Dx0whrm7+BBKyE0yc1rQ+i43ofHRBtW4tDHHaEMYwzrym7cXn1ar2AxKvKXLteWuLSODg1ZNsYgRfUc0TWz831xQcR4GYkZweBxmBBHEmRz0x/Bm0AY6garpBofHfpgdfO47HebdbNizn98cdil5adjdy+wE=);lineShape=1;fontSize=6;" vertex="1" parent="1">
                    <mxGeometry x="648.6296198462018" y="91.95755330385163" width="0.16435442746655798" height="0.16485861186960438" as="geometry"/>
                </mxCell>
                <mxCell id="114" value="" style="shape=stencil(lZbdUttADIWfxrdnpNX+XlN4D2YIjYc0YUKg5e3R1mOIlkSd3vnv88pHR8c7yc3L9v55MwV6OR0PT5vf88NpO8mPKYR5v90c55MeTXI7yc3j4bj5eTy87h+W8+f7/mQ/+nV462/4s3CNUEKnAr0vV2JCan+v3C3Abt6fAxmlGCAJWnWAhsoGyIKaXSCJAUoEeyUltGyAqis4QG2IFmiMFh1AVbIltYLE14FCyFYlJgLRdSITJNolGtiRKRGq7ZzqQE4jooBtI2oFO4BUkAVK84EMsrrmBhIHKGMjUkV1VIphXCGqW5zO6W1pFggITklaQK4G0CKzs0KuaMkCGSE53lARrZlU6OB8dG+TXUFbGfyBoGFG6V8zykPjCLFcB87c/OkNWoPh8hI6MBbQofJa3UdysGtbX3FZJh36YUg1GJySeqzYkr6i53KrBeXbjFYnBjQa6wBofHozmhCHoVZZHTN1QP4HkDima09Dx0whrm7+BBKyE0yc1rQ+i43ofHRBtW4tDHHaEMYwzrym7cXn1ar2AxKvKXLteWuLSODg1ZNsYgRfUc0TWz831xQcR4GYkZweBxmBBHEmRz0x/Bm0AY6garpBofHfpgdfO47HebdbNizn98cdil5adjdy+wE=);lineShape=1;fontSize=6;" vertex="1" parent="1">
                    <mxGeometry x="649.6962869915754" y="91.33010192453688" width="0.16435442746655798" height="0.16485861186960438" as="geometry"/>
                </mxCell>
                <mxCell id="115" value="" style="shape=stencil(lZbdUttADIWfxrdnpNX+XlN4D2YIjYc0YUKg5e3R1mOIlkSd3vnv88pHR8c7yc3L9v55MwV6OR0PT5vf88NpO8mPKYR5v90c55MeTXI7yc3j4bj5eTy87h+W8+f7/mQ/+nV462/4s3CNUEKnAr0vV2JCan+v3C3Abt6fAxmlGCAJWnWAhsoGyIKaXSCJAUoEeyUltGyAqis4QG2IFmiMFh1AVbIltYLE14FCyFYlJgLRdSITJNolGtiRKRGq7ZzqQE4jooBtI2oFO4BUkAVK84EMsrrmBhIHKGMjUkV1VIphXCGqW5zO6W1pFggITklaQK4G0CKzs0KuaMkCGSE53lARrZlU6OB8dG+TXUFbGfyBoGFG6V8zykPjCLFcB87c/OkNWoPh8hI6MBbQofJa3UdysGtbX3FZJh36YUg1GJySeqzYkr6i53KrBeXbjFYnBjQa6wBofHozmhCHoVZZHTN1QP4HkDima09Dx0whrm7+BBKyE0yc1rQ+i43ofHRBtW4tDHHaEMYwzrym7cXn1ar2AxKvKXLteWuLSODg1ZNsYgRfUc0TWz831xQcR4GYkZweBxmBBHEmRz0x/Bm0AY6garpBofHfpgdfO47HebdbNizn98cdil5adjdy+wE=);lineShape=1;fontSize=6;" vertex="1" parent="1">
                    <mxGeometry x="651.5158965899722" y="90.38892585287124" width="0.16435442746655798" height="0.16485861186960438" as="geometry"/>
                </mxCell>
                <mxCell id="116" value="" style="shape=stencil(lZbdUttADIWfxrdnpNX+XlN4D2YIjYc0YUKg5e3R1mOIlkSd3vnv88pHR8c7yc3L9v55MwV6OR0PT5vf88NpO8mPKYR5v90c55MeTXI7yc3j4bj5eTy87h+W8+f7/mQ/+nV462/4s3CNUEKnAr0vV2JCan+v3C3Abt6fAxmlGCAJWnWAhsoGyIKaXSCJAUoEeyUltGyAqis4QG2IFmiMFh1AVbIltYLE14FCyFYlJgLRdSITJNolGtiRKRGq7ZzqQE4jooBtI2oFO4BUkAVK84EMsrrmBhIHKGMjUkV1VIphXCGqW5zO6W1pFggITklaQK4G0CKzs0KuaMkCGSE53lARrZlU6OB8dG+TXUFbGfyBoGFG6V8zykPjCLFcB87c/OkNWoPh8hI6MBbQofJa3UdysGtbX3FZJh36YUg1GJySeqzYkr6i53KrBeXbjFYnBjQa6wBofHozmhCHoVZZHTN1QP4HkDima09Dx0whrm7+BBKyE0yc1rQ+i43ofHRBtW4tDHHaEMYwzrym7cXn1ar2AxKvKXLteWuLSODg1ZNsYgRfUc0TWz831xQcR4GYkZweBxmBBHEmRz0x/Bm0AY6garpBofHfpgdfO47HebdbNizn98cdil5adjdy+wE=);lineShape=1;fontSize=6;" vertex="1" parent="1">
                    <mxGeometry x="653.6492308807196" y="89.51049432075317" width="0.16435442746655798" height="0.16485861186961925" as="geometry"/>
                </mxCell>
                <mxCell id="117" value="" style="shape=stencil(lZbdUttADIWfxrdnpNX+XlN4D2YIjYc0YUKg5e3R1mOIlkSd3vnv88pHR8c7yc3L9v55MwV6OR0PT5vf88NpO8mPKYR5v90c55MeTXI7yc3j4bj5eTy87h+W8+f7/mQ/+nV462/4s3CNUEKnAr0vV2JCan+v3C3Abt6fAxmlGCAJWnWAhsoGyIKaXSCJAUoEeyUltGyAqis4QG2IFmiMFh1AVbIltYLE14FCyFYlJgLRdSITJNolGtiRKRGq7ZzqQE4jooBtI2oFO4BUkAVK84EMsrrmBhIHKGMjUkV1VIphXCGqW5zO6W1pFggITklaQK4G0CKzs0KuaMkCGSE53lARrZlU6OB8dG+TXUFbGfyBoGFG6V8zykPjCLFcB87c/OkNWoPh8hI6MBbQofJa3UdysGtbX3FZJh36YUg1GJySeqzYkr6i53KrBeXbjFYnBjQa6wBofHozmhCHoVZZHTN1QP4HkDima09Dx0whrm7+BBKyE0yc1rQ+i43ofHRBtW4tDHHaEMYwzrym7cXn1ar2AxKvKXLteWuLSODg1ZNsYgRfUc0TWz831xQcR4GYkZweBxmBBHEmRz0x/Bm0AY6garpBofHfpgdfO47HebdbNizn98cdil5adjdy+wE=);lineShape=1;fontSize=6;" vertex="1" parent="1">
                    <mxGeometry x="655.4060939449558" y="89.07128054930709" width="0.16435442746655798" height="0.16485861186961925" as="geometry"/>
                </mxCell>
                <mxCell id="118" value="" style="shape=stencil(lZbdUttADIWfxrdnpNX+XlN4D2YIjYc0YUKg5e3R1mOIlkSd3vnv88pHR8c7yc3L9v55MwV6OR0PT5vf88NpO8mPKYR5v90c55MeTXI7yc3j4bj5eTy87h+W8+f7/mQ/+nV462/4s3CNUEKnAr0vV2JCan+v3C3Abt6fAxmlGCAJWnWAhsoGyIKaXSCJAUoEeyUltGyAqis4QG2IFmiMFh1AVbIltYLE14FCyFYlJgLRdSITJNolGtiRKRGq7ZzqQE4jooBtI2oFO4BUkAVK84EMsrrmBhIHKGMjUkV1VIphXCGqW5zO6W1pFggITklaQK4G0CKzs0KuaMkCGSE53lARrZlU6OB8dG+TXUFbGfyBoGFG6V8zykPjCLFcB87c/OkNWoPh8hI6MBbQofJa3UdysGtbX3FZJh36YUg1GJySeqzYkr6i53KrBeXbjFYnBjQa6wBofHozmhCHoVZZHTN1QP4HkDima09Dx0whrm7+BBKyE0yc1rQ+i43ofHRBtW4tDHHaEMYwzrym7cXn1ar2AxKvKXLteWuLSODg1ZNsYgRfUc0TWz831xQcR4GYkZweBxmBBHEmRz0x/Bm0AY6garpBofHfpgdfO47HebdbNizn98cdil5adjdy+wE=);lineShape=1;fontSize=6;" vertex="1" parent="1">
                    <mxGeometry x="657.3511886332217" y="88.44383116460531" width="0.16435442746655798" height="0.16485861186961925" as="geometry"/>
                </mxCell>
                <mxCell id="119" value="" style="shape=stencil(lZbdUttADIWfxrdnpNX+XlN4D2YIjYc0YUKg5e3R1mOIlkSd3vnv88pHR8c7yc3L9v55MwV6OR0PT5vf88NpO8mPKYR5v90c55MeTXI7yc3j4bj5eTy87h+W8+f7/mQ/+nV462/4s3CNUEKnAr0vV2JCan+v3C3Abt6fAxmlGCAJWnWAhsoGyIKaXSCJAUoEeyUltGyAqis4QG2IFmiMFh1AVbIltYLE14FCyFYlJgLRdSITJNolGtiRKRGq7ZzqQE4jooBtI2oFO4BUkAVK84EMsrrmBhIHKGMjUkV1VIphXCGqW5zO6W1pFggITklaQK4G0CKzs0KuaMkCGSE53lARrZlU6OB8dG+TXUFbGfyBoGFG6V8zykPjCLFcB87c/OkNWoPh8hI6MBbQofJa3UdysGtbX3FZJh36YUg1GJySeqzYkr6i53KrBeXbjFYnBjQa6wBofHozmhCHoVZZHTN1QP4HkDima09Dx0whrm7+BBKyE0yc1rQ+i43ofHRBtW4tDHHaEMYwzrym7cXn1ar2AxKvKXLteWuLSODg1ZNsYgRfUc0TWz831xQcR4GYkZweBxmBBHEmRz0x/Bm0AY6garpBofHfpgdfO47HebdbNizn98cdil5adjdy+wE=);lineShape=1;fontSize=6;" vertex="1" parent="1">
                    <mxGeometry x="659.7982476163202" y="88.13010447764145" width="0.16435442746655798" height="0.16485861186961925" as="geometry"/>
                </mxCell>
                <mxCell id="120" value="" style="shape=stencil(lZbdUttADIWfxrdnpNX+XlN4D2YIjYc0YUKg5e3R1mOIlkSd3vnv88pHR8c7yc3L9v55MwV6OR0PT5vf88NpO8mPKYR5v90c55MeTXI7yc3j4bj5eTy87h+W8+f7/mQ/+nV462/4s3CNUEKnAr0vV2JCan+v3C3Abt6fAxmlGCAJWnWAhsoGyIKaXSCJAUoEeyUltGyAqis4QG2IFmiMFh1AVbIltYLE14FCyFYlJgLRdSITJNolGtiRKRGq7ZzqQE4jooBtI2oFO4BUkAVK84EMsrrmBhIHKGMjUkV1VIphXCGqW5zO6W1pFggITklaQK4G0CKzs0KuaMkCGSE53lARrZlU6OB8dG+TXUFbGfyBoGFG6V8zykPjCLFcB87c/OkNWoPh8hI6MBbQofJa3UdysGtbX3FZJh36YUg1GJySeqzYkr6i53KrBeXbjFYnBjQa6wBofHozmhCHoVZZHTN1QP4HkDima09Dx0whrm7+BBKyE0yc1rQ+i43ofHRBtW4tDHHaEMYwzrym7cXn1ar2AxKvKXLteWuLSODg1ZNsYgRfUc0TWz831xQcR4GYkZweBxmBBHEmRz0x/Bm0AY6garpBofHfpgdfO47HebdbNizn98cdil5adjdy+wE=);lineShape=1;fontSize=6;" vertex="1" parent="1">
                    <mxGeometry x="661.868839362133" y="87.81637978529056" width="0.16435442746655798" height="0.16485861186961925" as="geometry"/>
                </mxCell>
                <mxCell id="121" value="" style="shape=stencil(lZbdUttADIWfxrdnpNX+XlN4D2YIjYc0YUKg5e3R1mOIlkSd3vnv88pHR8c7yc3L9v55MwV6OR0PT5vf88NpO8mPKYR5v90c55MeTXI7yc3j4bj5eTy87h+W8+f7/mQ/+nV462/4s3CNUEKnAr0vV2JCan+v3C3Abt6fAxmlGCAJWnWAhsoGyIKaXSCJAUoEeyUltGyAqis4QG2IFmiMFh1AVbIltYLE14FCyFYlJgLRdSITJNolGtiRKRGq7ZzqQE4jooBtI2oFO4BUkAVK84EMsrrmBhIHKGMjUkV1VIphXCGqW5zO6W1pFggITklaQK4G0CKzs0KuaMkCGSE53lARrZlU6OB8dG+TXUFbGfyBoGFG6V8zykPjCLFcB87c/OkNWoPh8hI6MBbQofJa3UdysGtbX3FZJh36YUg1GJySeqzYkr6i53KrBeXbjFYnBjQa6wBofHozmhCHoVZZHTN1QP4HkDima09Dx0whrm7+BBKyE0yc1rQ+i43ofHRBtW4tDHHaEMYwzrym7cXn1ar2AxKvKXLteWuLSODg1ZNsYgRfUc0TWz831xQcR4GYkZweBxmBBHEmRz0x/Bm0AY6garpBofHfpgdfO47HebdbNizn98cdil5adjdy+wE=);lineShape=1;fontSize=6;" vertex="1" parent="1">
                    <mxGeometry x="663.9394271187201" y="87.5653976378743" width="0.16435442746655798" height="0.16485861186961925" as="geometry"/>
                </mxCell>
                <mxCell id="122" value="" style="shape=stencil(lZbdUttADIWfxrdnpNX+XlN4D2YIjYc0YUKg5e3R1mOIlkSd3vnv88pHR8c7yc3L9v55MwV6OR0PT5vf88NpO8mPKYR5v90c55MeTXI7yc3j4bj5eTy87h+W8+f7/mQ/+nV462/4s3CNUEKnAr0vV2JCan+v3C3Abt6fAxmlGCAJWnWAhsoGyIKaXSCJAUoEeyUltGyAqis4QG2IFmiMFh1AVbIltYLE14FCyFYlJgLRdSITJNolGtiRKRGq7ZzqQE4jooBtI2oFO4BUkAVK84EMsrrmBhIHKGMjUkV1VIphXCGqW5zO6W1pFggITklaQK4G0CKzs0KuaMkCGSE53lARrZlU6OB8dG+TXUFbGfyBoGFG6V8zykPjCLFcB87c/OkNWoPh8hI6MBbQofJa3UdysGtbX3FZJh36YUg1GJySeqzYkr6i53KrBeXbjFYnBjQa6wBofHozmhCHoVZZHTN1QP4HkDima09Dx0whrm7+BBKyE0yc1rQ+i43ofHRBtW4tDHHaEMYwzrym7cXn1ar2AxKvKXLteWuLSODg1ZNsYgRfUc0TWz831xQcR4GYkZweBxmBBHEmRz0x/Bm0AY6garpBofHfpgdfO47HebdbNizn98cdil5adjdy+wE=);lineShape=1;fontSize=6;" vertex="1" parent="1">
                    <mxGeometry x="666.3237435568839" y="87.43990656416617" width="0.16435442746655798" height="0.16485861186961925" as="geometry"/>
                </mxCell>
                <mxCell id="123" value="" style="shape=stencil(lZbdUttADIWfxrdnpNX+XlN4D2YIjYc0YUKg5e3R1mOIlkSd3vnv88pHR8c7yc3L9v55MwV6OR0PT5vf88NpO8mPKYR5v90c55MeTXI7yc3j4bj5eTy87h+W8+f7/mQ/+nV462/4s3CNUEKnAr0vV2JCan+v3C3Abt6fAxmlGCAJWnWAhsoGyIKaXSCJAUoEeyUltGyAqis4QG2IFmiMFh1AVbIltYLE14FCyFYlJgLRdSITJNolGtiRKRGq7ZzqQE4jooBtI2oFO4BUkAVK84EMsrrmBhIHKGMjUkV1VIphXCGqW5zO6W1pFggITklaQK4G0CKzs0KuaMkCGSE53lARrZlU6OB8dG+TXUFbGfyBoGFG6V8zykPjCLFcB87c/OkNWoPh8hI6MBbQofJa3UdysGtbX3FZJh36YUg1GJySeqzYkr6i53KrBeXbjFYnBjQa6wBofHozmhCHoVZZHTN1QP4HkDima09Dx0whrm7+BBKyE0yc1rQ+i43ofHRBtW4tDHHaEMYwzrym7cXn1ar2AxKvKXLteWuLSODg1ZNsYgRfUc0TWz831xQcR4GYkZweBxmBBHEmRz0x/Bm0AY6garpBofHfpgdfO47HebdbNizn98cdil5adjdy+wE=);lineShape=1;fontSize=6;" vertex="1" parent="1">
                    <mxGeometry x="669.2727588563631" y="87.06343533765474" width="0.16435442746655798" height="0.16485861186961925" as="geometry"/>
                </mxCell>
                <mxCell id="124" value="" style="shape=stencil(lZbdUttADIWfxrdnpNX+XlN4D2YIjYc0YUKg5e3R1mOIlkSd3vnv88pHR8c7yc3L9v55MwV6OR0PT5vf88NpO8mPKYR5v90c55MeTXI7yc3j4bj5eTy87h+W8+f7/mQ/+nV462/4s3CNUEKnAr0vV2JCan+v3C3Abt6fAxmlGCAJWnWAhsoGyIKaXSCJAUoEeyUltGyAqis4QG2IFmiMFh1AVbIltYLE14FCyFYlJgLRdSITJNolGtiRKRGq7ZzqQE4jooBtI2oFO4BUkAVK84EMsrrmBhIHKGMjUkV1VIphXCGqW5zO6W1pFggITklaQK4G0CKzs0KuaMkCGSE53lARrZlU6OB8dG+TXUFbGfyBoGFG6V8zykPjCLFcB87c/OkNWoPh8hI6MBbQofJa3UdysGtbX3FZJh36YUg1GJySeqzYkr6i53KrBeXbjFYnBjQa6wBofHozmhCHoVZZHTN1QP4HkDima09Dx0whrm7+BBKyE0yc1rQ+i43ofHRBtW4tDHHaEMYwzrym7cXn1ar2AxKvKXLteWuLSODg1ZNsYgRfUc0TWz831xQcR4GYkZweBxmBBHEmRz0x/Bm0AY6garpBofHfpgdfO47HebdbNizn98cdil5adjdy+wE=);lineShape=1;fontSize=6;" vertex="1" parent="1">
                    <mxGeometry x="673.0374671322515" y="86.68696610575626" width="0.16435442746655798" height="0.16485861186961925" as="geometry"/>
                </mxCell>
                <mxCell id="125" value="" style="shape=stencil(lZbdUttADIWfxrdnpNX+XlN4D2YIjYc0YUKg5e3R1mOIlkSd3vnv88pHR8c7yc3L9v55MwV6OR0PT5vf88NpO8mPKYR5v90c55MeTXI7yc3j4bj5eTy87h+W8+f7/mQ/+nV462/4s3CNUEKnAr0vV2JCan+v3C3Abt6fAxmlGCAJWnWAhsoGyIKaXSCJAUoEeyUltGyAqis4QG2IFmiMFh1AVbIltYLE14FCyFYlJgLRdSITJNolGtiRKRGq7ZzqQE4jooBtI2oFO4BUkAVK84EMsrrmBhIHKGMjUkV1VIphXCGqW5zO6W1pFggITklaQK4G0CKzs0KuaMkCGSE53lARrZlU6OB8dG+TXUFbGfyBoGFG6V8zykPjCLFcB87c/OkNWoPh8hI6MBbQofJa3UdysGtbX3FZJh36YUg1GJySeqzYkr6i53KrBeXbjFYnBjQa6wBofHozmhCHoVZZHTN1QP4HkDima09Dx0whrm7+BBKyE0yc1rQ+i43ofHRBtW4tDHHaEMYwzrym7cXn1ar2AxKvKXLteWuLSODg1ZNsYgRfUc0TWz831xQcR4GYkZweBxmBBHEmRz0x/Bm0AY6garpBofHfpgdfO47HebdbNizn98cdil5adjdy+wE=);lineShape=1;fontSize=6;" vertex="1" parent="1">
                    <mxGeometry x="675.2335439679338" y="86.56147702666107" width="0.16435442746655798" height="0.16485861186961925" as="geometry"/>
                </mxCell>
                <mxCell id="126" value="" style="shape=stencil(lZbdUttADIWfxrdnpNX+XlN4D2YIjYc0YUKg5e3R1mOIlkSd3vnv88pHR8c7yc3L9v55MwV6OR0PT5vf88NpO8mPKYR5v90c55MeTXI7yc3j4bj5eTy87h+W8+f7/mQ/+nV462/4s3CNUEKnAr0vV2JCan+v3C3Abt6fAxmlGCAJWnWAhsoGyIKaXSCJAUoEeyUltGyAqis4QG2IFmiMFh1AVbIltYLE14FCyFYlJgLRdSITJNolGtiRKRGq7ZzqQE4jooBtI2oFO4BUkAVK84EMsrrmBhIHKGMjUkV1VIphXCGqW5zO6W1pFggITklaQK4G0CKzs0KuaMkCGSE53lARrZlU6OB8dG+TXUFbGfyBoGFG6V8zykPjCLFcB87c/OkNWoPh8hI6MBbQofJa3UdysGtbX3FZJh36YUg1GJySeqzYkr6i53KrBeXbjFYnBjQa6wBofHozmhCHoVZZHTN1QP4HkDima09Dx0whrm7+BBKyE0yc1rQ+i43ofHRBtW4tDHHaEMYwzrym7cXn1ar2AxKvKXLteWuLSODg1ZNsYgRfUc0TWz831xQcR4GYkZweBxmBBHEmRz0x/Bm0AY6garpBofHfpgdfO47HebdbNizn98cdil5adjdy+wE=);lineShape=1;fontSize=6;" vertex="1" parent="1">
                    <mxGeometry x="677.868834575062" y="86.68696610575626" width="0.16435442746655798" height="0.16485861186961925" as="geometry"/>
                </mxCell>
                <mxCell id="127" value="" style="shape=stencil(lZbdUttADIWfxrdnpNX+XlN4D2YIjYc0YUKg5e3R1mOIlkSd3vnv88pHR8c7yc3L9v55MwV6OR0PT5vf88NpO8mPKYR5v90c55MeTXI7yc3j4bj5eTy87h+W8+f7/mQ/+nV462/4s3CNUEKnAr0vV2JCan+v3C3Abt6fAxmlGCAJWnWAhsoGyIKaXSCJAUoEeyUltGyAqis4QG2IFmiMFh1AVbIltYLE14FCyFYlJgLRdSITJNolGtiRKRGq7ZzqQE4jooBtI2oFO4BUkAVK84EMsrrmBhIHKGMjUkV1VIphXCGqW5zO6W1pFggITklaQK4G0CKzs0KuaMkCGSE53lARrZlU6OB8dG+TXUFbGfyBoGFG6V8zykPjCLFcB87c/OkNWoPh8hI6MBbQofJa3UdysGtbX3FZJh36YUg1GJySeqzYkr6i53KrBeXbjFYnBjQa6wBofHozmhCHoVZZHTN1QP4HkDima09Dx0whrm7+BBKyE0yc1rQ+i43ofHRBtW4tDHHaEMYwzrym7cXn1ar2AxKvKXLteWuLSODg1ZNsYgRfUc0TWz831xQcR4GYkZweBxmBBHEmRz0x/Bm0AY6garpBofHfpgdfO47HebdbNizn98cdil5adjdy+wE=);lineShape=1;fontSize=6;" vertex="1" parent="1">
                    <mxGeometry x="680.1276619341306" y="87.00069079810714" width="0.16435442746655798" height="0.16485861186961925" as="geometry"/>
                </mxCell>
                <mxCell id="128" value="" style="shape=stencil(lZbdUttADIWfxrdnpNX+XlN4D2YIjYc0YUKg5e3R1mOIlkSd3vnv88pHR8c7yc3L9v55MwV6OR0PT5vf88NpO8mPKYR5v90c55MeTXI7yc3j4bj5eTy87h+W8+f7/mQ/+nV462/4s3CNUEKnAr0vV2JCan+v3C3Abt6fAxmlGCAJWnWAhsoGyIKaXSCJAUoEeyUltGyAqis4QG2IFmiMFh1AVbIltYLE14FCyFYlJgLRdSITJNolGtiRKRGq7ZzqQE4jooBtI2oFO4BUkAVK84EMsrrmBhIHKGMjUkV1VIphXCGqW5zO6W1pFggITklaQK4G0CKzs0KuaMkCGSE53lARrZlU6OB8dG+TXUFbGfyBoGFG6V8zykPjCLFcB87c/OkNWoPh8hI6MBbQofJa3UdysGtbX3FZJh36YUg1GJySeqzYkr6i53KrBeXbjFYnBjQa6wBofHozmhCHoVZZHTN1QP4HkDima09Dx0whrm7+BBKyE0yc1rQ+i43ofHRBtW4tDHHaEMYwzrym7cXn1ar2AxKvKXLteWuLSODg1ZNsYgRfUc0TWz831xQcR4GYkZweBxmBBHEmRz0x/Bm0AY6garpBofHfpgdfO47HebdbNizn98cdil5adjdy+wE=);lineShape=1;fontSize=6;" vertex="1" parent="1">
                    <mxGeometry x="682.4492318381339" y="87.43990656416617" width="0.16435442746655798" height="0.16485861186961925" as="geometry"/>
                </mxCell>
                <mxCell id="129" value="" style="shape=stencil(lZbdUttADIWfxrdnpNX+XlN4D2YIjYc0YUKg5e3R1mOIlkSd3vnv88pHR8c7yc3L9v55MwV6OR0PT5vf88NpO8mPKYR5v90c55MeTXI7yc3j4bj5eTy87h+W8+f7/mQ/+nV462/4s3CNUEKnAr0vV2JCan+v3C3Abt6fAxmlGCAJWnWAhsoGyIKaXSCJAUoEeyUltGyAqis4QG2IFmiMFh1AVbIltYLE14FCyFYlJgLRdSITJNolGtiRKRGq7ZzqQE4jooBtI2oFO4BUkAVK84EMsrrmBhIHKGMjUkV1VIphXCGqW5zO6W1pFggITklaQK4G0CKzs0KuaMkCGSE53lARrZlU6OB8dG+TXUFbGfyBoGFG6V8zykPjCLFcB87c/OkNWoPh8hI6MBbQofJa3UdysGtbX3FZJh36YUg1GJySeqzYkr6i53KrBeXbjFYnBjQa6wBofHozmhCHoVZZHTN1QP4HkDima09Dx0whrm7+BBKyE0yc1rQ+i43ofHRBtW4tDHHaEMYwzrym7cXn1ar2AxKvKXLteWuLSODg1ZNsYgRfUc0TWz831xQcR4GYkZweBxmBBHEmRz0x/Bm0AY6garpBofHfpgdfO47HebdbNizn98cdil5adjdy+wE=);lineShape=1;fontSize=6;" vertex="1" parent="1">
                    <mxGeometry x="685.1472729686486" y="87.94186686977278" width="0.16435442746655798" height="0.16485861186961925" as="geometry"/>
                </mxCell>
                <mxCell id="130" value="" style="shape=stencil(lZbdUttADIWfxrdnpNX+XlN4D2YIjYc0YUKg5e3R1mOIlkSd3vnv88pHR8c7yc3L9v55MwV6OR0PT5vf88NpO8mPKYR5v90c55MeTXI7yc3j4bj5eTy87h+W8+f7/mQ/+nV462/4s3CNUEKnAr0vV2JCan+v3C3Abt6fAxmlGCAJWnWAhsoGyIKaXSCJAUoEeyUltGyAqis4QG2IFmiMFh1AVbIltYLE14FCyFYlJgLRdSITJNolGtiRKRGq7ZzqQE4jooBtI2oFO4BUkAVK84EMsrrmBhIHKGMjUkV1VIphXCGqW5zO6W1pFggITklaQK4G0CKzs0KuaMkCGSE53lARrZlU6OB8dG+TXUFbGfyBoGFG6V8zykPjCLFcB87c/OkNWoPh8hI6MBbQofJa3UdysGtbX3FZJh36YUg1GJySeqzYkr6i53KrBeXbjFYnBjQa6wBofHozmhCHoVZZHTN1QP4HkDima09Dx0whrm7+BBKyE0yc1rQ+i43ofHRBtW4tDHHaEMYwzrym7cXn1ar2AxKvKXLteWuLSODg1ZNsYgRfUc0TWz831xQcR4GYkZweBxmBBHEmRz0x/Bm0AY6garpBofHfpgdfO47HebdbNizn98cdil5adjdy+wE=);lineShape=1;fontSize=6;" vertex="1" parent="1">
                    <mxGeometry x="687.7825635757769" y="88.50657370953994" width="0.16435442746655798" height="0.16485861186961925" as="geometry"/>
                </mxCell>
                <mxCell id="131" value="" style="shape=stencil(lZbdUttADIWfxrdnpNX+XlN4D2YIjYc0YUKg5e3R1mOIlkSd3vnv88pHR8c7yc3L9v55MwV6OR0PT5vf88NpO8mPKYR5v90c55MeTXI7yc3j4bj5eTy87h+W8+f7/mQ/+nV462/4s3CNUEKnAr0vV2JCan+v3C3Abt6fAxmlGCAJWnWAhsoGyIKaXSCJAUoEeyUltGyAqis4QG2IFmiMFh1AVbIltYLE14FCyFYlJgLRdSITJNolGtiRKRGq7ZzqQE4jooBtI2oFO4BUkAVK84EMsrrmBhIHKGMjUkV1VIphXCGqW5zO6W1pFggITklaQK4G0CKzs0KuaMkCGSE53lARrZlU6OB8dG+TXUFbGfyBoGFG6V8zykPjCLFcB87c/OkNWoPh8hI6MBbQofJa3UdysGtbX3FZJh36YUg1GJySeqzYkr6i53KrBeXbjFYnBjQa6wBofHozmhCHoVZZHTN1QP4HkDima09Dx0whrm7+BBKyE0yc1rQ+i43ofHRBtW4tDHHaEMYwzrym7cXn1ar2AxKvKXLteWuLSODg1ZNsYgRfUc0TWz831xQcR4GYkZweBxmBBHEmRz0x/Bm0AY6garpBofHfpgdfO47HebdbNizn98cdil5adjdy+wE=);lineShape=1;fontSize=6;" vertex="1" parent="1">
                    <mxGeometry x="689.7904047982033" y="89.32225870749747" width="0.16435442746655798" height="0.16485861186961925" as="geometry"/>
                </mxCell>
                <mxCell id="132" value="" style="shape=stencil(lZbdUttADIWfxrdnpNX+XlN4D2YIjYc0YUKg5e3R1mOIlkSd3vnv88pHR8c7yc3L9v55MwV6OR0PT5vf88NpO8mPKYR5v90c55MeTXI7yc3j4bj5eTy87h+W8+f7/mQ/+nV462/4s3CNUEKnAr0vV2JCan+v3C3Abt6fAxmlGCAJWnWAhsoGyIKaXSCJAUoEeyUltGyAqis4QG2IFmiMFh1AVbIltYLE14FCyFYlJgLRdSITJNolGtiRKRGq7ZzqQE4jooBtI2oFO4BUkAVK84EMsrrmBhIHKGMjUkV1VIphXCGqW5zO6W1pFggITklaQK4G0CKzs0KuaMkCGSE53lARrZlU6OB8dG+TXUFbGfyBoGFG6V8zykPjCLFcB87c/OkNWoPh8hI6MBbQofJa3UdysGtbX3FZJh36YUg1GJySeqzYkr6i53KrBeXbjFYnBjQa6wBofHozmhCHoVZZHTN1QP4HkDima09Dx0whrm7+BBKyE0yc1rQ+i43ofHRBtW4tDHHaEMYwzrym7cXn1ar2AxKvKXLteWuLSODg1ZNsYgRfUc0TWz831xQcR4GYkZweBxmBBHEmRz0x/Bm0AY6garpBofHfpgdfO47HebdbNizn98cdil5adjdy+wE=);lineShape=1;fontSize=6;" vertex="1" parent="1">
                    <mxGeometry x="692.3002103154623" y="90.51441692657937" width="0.16435442746655798" height="0.16485861186960438" as="geometry"/>
                </mxCell>
                <mxCell id="133" value="" style="shape=stencil(lVlJchsxDHyNriiC4Hp2kn+4ynKsimO5ZGf7fcAoVIbgTCu6jST0kGhsTWond29P96/7nXdv76fjl/2Pw8P7004+7Lw/vDztT4d3fdrJx53cPR5P+8+n47eXh/Pn1/tm2Z6+Hr+3N/w84yJTDQ3l3a/zN0zs/nzx6Wz/fHhZ2gvVONhnyhHYJwp5fL9QZgAoFOsIKOTAjtJlwx3ghRzYUlIXyggoxBkAEpVxSyKUgA+pUk4joECns6cwAoJQDAAQrdMBs5QzxTEO0RMDlrL6MLIUI0W/DSjcE+ECKFTBloq6OAKSJ48AkWSMQwpUBQByj+sFkCkBWkuxkc6OPEiN6iiYcvA9u9YBPK0QKQFaq5Af45ALhQoAiVgGgBKN0rsWSqMPypsDAHau51pHKA8Rea1LGECAFaQ/81gQ6hbKb+VV4gQANGmobwQEKjMAFYSjOmZfjVQBICdbEAr420jWATyxFHu7XW9MF9YXAA9WiLnHdQFg1L41EcQCUOC00Ym/ZQVJJNOWBNDqtZNNW0LZqvPDjCAFFFQQWpEmvbUIQS5x6G1oASigkzH3JnEB5J4s6z5M2V1h7rGdWIsi3wBwsQsUQKqjlK09CoKzbU/tGTDk+sy/2Jc+8bbs2RJaoT1Hay8gxDoYzP7TFX7qlBERlAFTnFJOQLx8b24Lew/27+1QqAm2FrFT50pGi9WFjU+QoDJVTIbqQqaCKZ2xrf2YfKhwCKrGDNY+An9913PLegEFrLr81oKUqcAq0Dquh2dhn8H7nRVfao8SyPUuvghAxgXprD2SLWpvCixfaSi2I+Yewg37bPhMUKhxL79lQcIA32jPE0EBEqRDxpuUExhhHWNeLEBAD2pFY1bA6ldHsdUfHgpyHfY+WwDKOpUT1mmGfX1FsDBkaUUScdcL/yu6uPO2KeuiBXjQW5pwNE47WPtNmiYLyCBwTfyKBSQgHFVe+2oBEQDURZ4BSPEHe2Yuml3oEOLtmblgHdg4GbfUTlLoiKAd0ZykLufDLZbcOKX0nJ7QCskesvX4iMaUumhKtN01oBWEykhru81AK3hbcSlRRSs4O2qTQGmkB95iADiXlEQeadWi9aB3NxJHp6N0/bN1YZPHLYXa03Ed4Kz+CvjuImU7z4PrXm21GRNpCbAZJ+73OZd7sAonXLuaG5uADz2U6wA9744scYUzTlk3kdYhhlReZKsySj9nrI+HMt399chv2psNwR7T7MXYI1WuWWNkJG7cam9GtIP3KGpvjgkqg/D7izf2DOx1epobNs1zkNVt2lp/kahVe8O/g+1O88F0YAcLX+2jtUcNW+3NrajD19+3Xq9ftdeHf3f5j4fn5/NfAcvf7d2/fnX+30A+/gY=);lineShape=1;fontSize=6;" vertex="1" parent="1">
                    <mxGeometry x="691.582216215772" y="89.35930376815409" width="2.4405557422070676" height="2.3929455841072707" as="geometry"/>
                </mxCell>
                <mxCell id="137" value="A" style="text;html=1;align=center;verticalAlign=middle;resizable=0;points=[];autosize=1;strokeColor=none;fillColor=none;fontSize=6;" vertex="1" parent="1">
                    <mxGeometry x="641.13" y="75.72" width="30" height="20" as="geometry"/>
                </mxCell>
                <mxCell id="138" value="B" style="text;html=1;align=center;verticalAlign=middle;resizable=0;points=[];autosize=1;strokeColor=none;fillColor=none;fontSize=6;" vertex="1" parent="1">
                    <mxGeometry x="643.04" y="98.59" width="30" height="20" as="geometry"/>
                </mxCell>
                <mxCell id="139" value="&lt;div style=&quot;text-align: left;&quot;&gt;&lt;span style=&quot;background-color: initial;&quot;&gt;pehle konsa operations karoge A ya B&lt;/span&gt;&lt;/div&gt;&lt;div style=&quot;text-align: left;&quot;&gt;&lt;span style=&quot;background-color: initial;&quot;&gt;simply socho&amp;nbsp;&lt;/span&gt;&lt;/div&gt;&lt;div style=&quot;text-align: left;&quot;&gt;&lt;span style=&quot;background-color: initial;&quot;&gt;A wala jo tha initially nextn pointer se connected tha so is A ko redirect karoge to bhi nextn me 2 hi stored hoga no info loss&lt;/span&gt;&lt;/div&gt;&lt;div style=&quot;text-align: left;&quot;&gt;&lt;span style=&quot;background-color: initial;&quot;&gt;agar B wale ko redirect karoge to problem ho sakti he as iski connection 3 ke saath thi and 3 is not stored by a pointer&lt;/span&gt;&lt;/div&gt;&lt;div style=&quot;text-align: left;&quot;&gt;&lt;span style=&quot;background-color: initial;&quot;&gt;pehle A karo&lt;/span&gt;&lt;/div&gt;&lt;div style=&quot;text-align: left;&quot;&gt;&lt;span style=&quot;background-color: initial;&quot;&gt;fir B&lt;/span&gt;&lt;/div&gt;&lt;div style=&quot;text-align: left;&quot;&gt;&lt;span style=&quot;background-color: initial;&quot;&gt;curr-&amp;gt;next=nxtn-&amp;gt;next&lt;/span&gt;&lt;/div&gt;&lt;div style=&quot;text-align: left;&quot;&gt;&lt;span style=&quot;background-color: initial;&quot;&gt;nxtn-&amp;gt;next=curr&lt;/span&gt;&lt;/div&gt;" style="text;html=1;align=center;verticalAlign=middle;resizable=0;points=[];autosize=1;strokeColor=none;fillColor=none;fontSize=6;" vertex="1" parent="1">
                    <mxGeometry x="590" y="118.59" width="350" height="70" as="geometry"/>
                </mxCell>
                <mxCell id="140" value="" style="shape=stencil(lVlbchw3DDzN/qIIgi98O849XGU52ooiuWTldftgssWRCHJ6vH/yujEkgMaTF/n04/HL94dLDD/eXl9+f/j7+vXt8SK/XGK8Pj8+vF7f7K+LfL7Ip28vrw+/vb78+fz19u/vXzbk9tcfL39tX/jnJheI2yYUw7/9hxD+/+HXG/zp+vwBzhTYwyOCa/BwOYZHyuUOuJBM8HQMTySTqgCeKU+q5mN4oeZVZT6GN+Lq4XoMVyri4AIuw9wPf8dnYEk2y/vr1AbwyfPAiFEAPpMEh0+IN4VydPiGaFm9fSJFhG9Uk8MXdH+lmge8EAP7b+bz+AK4ZurV8f5mYEAHu25tDl9QYAm1MVQyRcBO+5xmh0f2N/aH8f6FEsJX4pEP9gO6f/NpqlJD9lTPt0YF6CuB0vh9pQzsL0xlxLMFGAgYkW7vXSDCRCvmgZGhLFQrELAENLrAgq4BTkubTmgUgUBiimOS2KIeJVwhHaN4y8HADalQ1VGgQh2SeqU3zwDH5egDTTLMRDn7TCHazbAWaNRGHcwMDKhRYjfiLlBIgQ4lE7tgtnQDzFpaT1a7gPkBhFu18jE6LldScEJNncx7/FuCB46rxtYxgEyrAMxapwpoWqEQbZFkNGu1mgDY2lJXcRfInV1rgeobCrskynpNexLas5LREZBPuau4CxgdgVlV/JVa65V9LWBKj1xSHNNafGa1M1Gp1dqptguk7vu1wMRWOzMCP5hAGz1tZybAVlWfl+wXRlbSyUo4CWwC6gUQNTgEH0EmkZEjVkeg1LdUoiH2rcykWKDVSQC52gRcVQx4/jCJOimh2BOVJ62xmcqkBOqFN4E8OQJ7bhbIWOkyKY3a/3cmfOQrCiH1VW6LCKxDnU5grEOblD4R0MlxJ1fS6YQTpbXdY9Z1kCZAprXECTn0Xvrp5LoTgrfJdSch5DvLn4jSybIniaDem2ruFGhTDLXe5BzVLe+I0i19JODrVoYdin2PXWUUrEOago7P2gE3dVgLEtGV9rF8FyiQ4Pa9NLKvCSUQQ9Y0RXdCgKOftWUu41vviFoa66l4tJI1fqifrnsM762l9t7xqHl1Q0TBnWKdxm9r+lFqqsGnJhsrClDammG3kLHBBW0QtnZ79EPmPgOvBaZdXqqQfHZjtwPZ5kG0cMtU3Al4/2fDXB6tZEMwGrXSVBclQrbaJOZK9bZIACFqKrrMF/FcY0O1SwInqy4b233PpLBjN5tUt3srsARJ6m3hLpAoAyuJ+G0Ox56pjtYnznHMJEgg+LmGAxSI6jOfBfnJgmlaGAFyx+rDp/buY43PvvmuMAHE5It0OV3wuQEcb9qjr58ZzutGStcVJ1iqYvALskQJhAHPkQkbBm4zHjZi1U/SAu1jIeIWghHGDOe+OvuwgEYLZfEJnuGCZVvQZ4dHfLB4Curwghowv5lgONQ3v4HCS4PF24iiyjG/vCDbLN51EHzxaoTgizcpRPzFi5ciP83vaahELl7rkCFDH5h++uvT3QEJQn/yeYejnXzwTwT7G8kR3FumYLi/O9qeLOBoC7y4DNpjL1RFry0LQ6LJZOEm9DC5IEGAl7nrQfgUbn+8vz1/uz493Z6uP/6/f6u2n27v3PL5Pw==);lineShape=1;fontSize=6;" vertex="1" parent="1">
                    <mxGeometry x="665.3788203774207" y="171.86532018696184" width="37.75960477812729" height="14.630296490274844" as="geometry"/>
                </mxCell>
                <mxCell id="141" value="" style="shape=stencil(lVjLbhsxDPwaXwlJ1POctv8RIE5jNI0DJ339fakakpfc3Sly2ygaixSHQ1IHvnt7un89HoJ7e7+cvx1/nR7enw786RDC6eXpeDm9y9eBPx/47vF8OX69nH+8PFz/fr3vO/vX9/PP/gu/r7iaiWtHBffnusJU+d/Cl+v+59PLcn+gEtX+TBnsL5V8Vvu9I3YAECgmDWBqdR+QG3mvAYlaAYBE1WlAJZcBIBBrH4KjAE5IlaIBBErAhxQp6iiESBUBxAAdhlDGvW0CYqISdJwduQYAjoohhoQenMCZvA4cJ2JADfYUmwaUEZlNgFCt6UiLkR7cUpgWT0AYF70JECKwpkaUOAQAWAUuipERADyxdjo2cuBay/i5sT+JU4Cssl97kDJFZBBbrqaG76jYBM2eEvAg+JVk8Ij8NqCMG5kAyWjgMzMl1oBG7AG5PQUNENmpwAfJN6fTp+Rx0XsSUHWcq6MGsiEXSvqEGmG+FclonQ1VZAyoUk0U9AktkAPUaJWyAYjTwKTWhixOQKGAAYYaAsjABwE0nW9tFphdQLGADOjdTdIJJCsemxS8BSCxFwNSsoCKTihWir0TPgL29Tg1ewTKIAGEbAFIZlqivAJEoJQCsCdUWKYF4J0FRGxSMICC6ZoordiHpE9uyZpUxsoewLQafQWHOjULKEAr5U64rE7A/HarHPVAmASQV04nFOk2hG4ZB+DDgs2LUCeg3z1hjDK1IdB7gLjKakimOq59mRA4EC5aAOT3lMYlAJ2Qbb/UrwHx+6OA3twbQKQEfChMwQDckM/tKhfHdDGLlqQcYJ90L6bwVh41Y7u0Z9swlTbaxu3mYYrEorQjwQ9tTDyL5qEB8oXZW0yAg7IhLRabfkY6Y8BWvxqa+pADTKqr/QwPiKMqL3o+JK3OdnCpwB5xJQDS5aIqzVaTIu59ZMrVpOjzELpQMciMGtKzAhbdhtQJ8CM3dkcNTWxu48w9FhnaycSVUd89dX0CIhy9ZSAzxUdWKvBBDDAVV3IjgBP6UKlPkMgggZEwOTMYM8xmmaZMPZTxA5W3xLYrlshUIDBp1tcJkDgAk7KzTywyNTIIXM9F7YPkN2pyRR1M7emPLCD9y4pLGbaHZSVIDF99+qyj899hOfKjY77tR1VBCpWxx8ELkpphXqEczDUZvUz6435b9lfrr0f+JjtZuUHb7f2SaPZ+UBGU/XZiIA8SuRbb2PoxXO7tN/NzgA9i/ffNcxV+ZcyjGt34xii+H33F/O9++bg9mT6enp+vL67L/9snVlm6Ps/y578=);lineShape=1;fontSize=6;" vertex="1" parent="1">
                    <mxGeometry x="664.9938359809377" y="169.81577508682952" width="2.951260987793033" height="4.502532639703728" as="geometry"/>
                </mxCell>
                <mxCell id="142" value="" style="shape=stencil(lVhJchsxDHyNriiS4Hp2kn+4ynKsimO5ZGf7fcCoKA3AmVZ8G1NoE0tj447v3p7uX/e74N7eT8dv+1+Hh/enHX/ahXB4edqfDu/ytePPO757PJ72X0/HHy8P579f77tk//p+/Nn/w+8zzlGoHRTcn3Hg3L+DL2fx58PLQjyQs+I+b4snqlmJe4p+W9w7yqzkmVIF8pG8U/KJQgPylUJS8oUYyMv1zmv93bhxHVCoFg1gCrwN4DAMvAAyZXADF3LapT1iIATREwcNYCpApZgoGUChEgCgUdJeZU8VhC0xxaYBmTy4IRXyGhAdDHQWIuk4xEhcACCSixpQIVVzsVRKgRgYXdwEyOPOdUCgagCNGFCjCPm1DTmM7F4HFIqafDkNR68DJNI6P8UNDQSueko6cOKGAlSqTFnTuwhbAb1roqJLQMmQrbXYGiNWZZAPVYzWRaCGkSGrgCYZZwCJIghcY0u+WsknAIiW3k3cigBCNQMI1BBgyji5s4AEalJaddWQO6GXGjUdBznhG4BiAREAvLv0sgUigZRbR2Rk9ppSFcV6zeyGAaaHXu/cAhQduoVZmwg/XQHqQHdKnADAsd3vbXITSOs29ZSuJCLsVJq6kphOabIhYqNNq+6EBbWsNVtp5ATV427ixD40PXTAxL4Aulb3+mT0jRvaRA3UeTtgoiuasa5UWyYpYOtGkt4wYoocaipXNi/pinOuTjfA+iqAj6Zc0Sr9R1bbJnGJzSZg8mu9UQY+Bijj5wugjIViq2+ZebolYuTXNAJ7ATAs+dLW2BQaad+ITGGMF4tmjeZpac2G4DIONDQDSYZpt8pU5EFWy0hjRvzqYFaLAmzGsgKNFgXYjGVxnGwNfmzGMg9nIBnC7PBaYeBEY+MlGV4rsEE0NpVJxmM0vMoAnjT5Eu5yeaozMuJntKbkCSCjIFAp85ieL2tKg9ufLEJRe0nWOwe8JBqb0ierFqoaorEJnCxzaAISjc14zBdHby2kQbM14N1MVl6vbwiRIqgaPJUZWaoLCJxobNzqJYEANfoKbQAMi0AI09OJgy3IV2u0HCB5tpNrhqVYrk+GSbCvJzuahLH/bj0s6TLsIU2nZdrBIdrZbcbBBwoRZysOguvmRzG0Kjm77TlYJJx9g3Jjlt4Sd0Y8QlMncfRO4kZ5uooHLG7D5LHfrTLotc2NJXnxdgnDFKwjHagiH3wZvSkuH9dH2MfD8/P5DXf5u320laPzgy9//gs=);lineShape=1;fontSize=6;" vertex="1" parent="1">
                    <mxGeometry x="650.3266411157026" y="182.05798780935731" width="26.476207243050553" height="15.51712141958023" as="geometry"/>
                </mxCell>
                <mxCell id="143" value="" style="shape=stencil(7VrLchw3DPyavbJI8H127P9QleVoK4rkkuXE/nuD3nB22Bz2ysdU+bbWNmZBEGg0MD75d18e7j7fn8R+eX15/uv+3/PH14eT/+Mkcn56uH85v+qnk39/8u8+Pb/c//ny/PXp4+Xfn+8asn36+/mf9oRvF7tgUmpGYr9f/iDWFPvzLx8u+Mfz0w5fTHYD3lsT8hrvgrF2MAhiihCDbFIdDKIzsa4NxJkyupSc8ZEYJONkMMj6C35toEeU8QzF0UN7b1IZDarJJKpeXfKDQY0mkTP4bEIcDYoJ7AzZREED6tKRQS3cpTAaVCOJGkhFg8hdsgUN/kvHVViLoEFhF5d6IuwMKjeQMfmctT3jjy2iqXb6CRYmzQQ3HYIb+DiFibvkJoNASk4N7HQGCcRAWWCkGc1vx1wSE8ZDawU5kt+yBXEzUCJjLJDx0MoCwnhGzzAa3OIZ21Nnz2SM+gpGSbkykfx20cSx5DwPq/MmjmHVuHkSVueQ7yV2J48NLCafSOeFRUOx4xGcekSCpEwJBZdMJhUajIyX4LaWd3xrRkb/nfREOcRbk8bnV2OJ+xYrJ/ZW8TZvpIdrcdg4wnkznwjY8uyZzsqpTiPtC+A9y52CeEdzTQSZUaUAC2YyFaOZWc90mMtaPqwZRFPG7qH3QfwPFss30h4eopHx+VsxHOMrnjfRPhC1MkZ/Mn1+rP06r3jmf1IGrYDPrNQL5ls2lTB09l1v7PAk/jlj/qg/JH9U9WULeKYbi14n+sPqqxTsYYkq35qxwQSOL+hP6O1ghYf8UTyJj4oAqN9A49lkyZjPsSfICl+neiH4nRS7GlRyYe0HLFwAIyzFp6nACD03lTQGSBUt86cgoeQ+iazwfsKz5+cuJHcJSgqyTlNHooSreBcAzwqmpj5hvI3gGh4UVmeMpT8CeCG9vZ13xIeeIMt4Ij6xfCjYgAMViG1km/A38g0LmDWAls/YwNjI1wYRmNWpIj4syBsMMXUwYQFSRkF84ni44E0iLBkRC9gxgvhFvA45OLpRRtQOkxHPFhPawQrM6FwgZpT/fFZtHRgUHJeU2uJhy9AMSEon3xl8dwKSQapRHOwMeo6vNBBkhF4JU9y1J9g2d1KNEgLeQKE3phrRjs/PveaWs/yUcWyRZPv09LaW177GHsxankpy0DTqINsXasahRmGU3vaLDvBC8sFtE9EVT/NthjOGDl0AX6PJbjeiYK10oJq2Uzqee1bu/dsN77ugOKYrrC2dranActgvHF8c6SwNfKX5wTqYOgyKTEPM1gNuYkThe86WcGMP84GeoQ2x0OSFjvw6NUIXjpZ2mVZj0MUs3XHIFvWt6C2fbAXPUCwtG40JKFEdVtgs0Dap0Jn48PB7o70pmN8b7f/BRluJCS5Cq5b9wvbKaDOwPeNXC2rQvkX61ax4Bqc5LXNGfRULIgldsrvpHqL0kX/ZIKA7e/peK+GGq+3g2JmNHYOq/YTtU10XZzs8u7UjPBPksz98Ayt9nNnhWT8UZKTWjWh88vR8Jnd830fs8Gzh7HEDeGMl7PHl7o3nT+ruhv8B548b8Qmdnt8Y/199XX4brx+u7+Y/nR8fL6/299/ju3z90+X/Afj3PwA=);lineShape=1;fontSize=6;" vertex="1" parent="1">
                    <mxGeometry x="650.6916949185651" y="181.34177866897392" width="5.311433345737605" height="5.931926251822983" as="geometry"/>
                </mxCell>
                <mxCell id="144" value="left side wala lose hota he&lt;br&gt;to curr-&amp;gt;next wala lose hoga&lt;br&gt;lekin ye to chal jaega as curr-&amp;gt;next already secured he in nextn pointer&amp;nbsp;" style="text;html=1;align=left;verticalAlign=middle;resizable=0;points=[];autosize=1;strokeColor=none;fillColor=none;fontSize=6;" vertex="1" parent="1">
                    <mxGeometry x="703.1400000000001" y="164.31" width="210" height="40" as="geometry"/>
                </mxCell>
                <mxCell id="145" value="&lt;font style=&quot;font-size: 6px;&quot;&gt;1&lt;/font&gt;" style="ellipse;whiteSpace=wrap;html=1;" vertex="1" parent="1">
                    <mxGeometry x="1015" y="93.08999999999999" width="10" height="10" as="geometry"/>
                </mxCell>
                <mxCell id="146" value="" style="ellipse;whiteSpace=wrap;html=1;" vertex="1" parent="1">
                    <mxGeometry x="1045" y="92.6" width="10" height="10" as="geometry"/>
                </mxCell>
                <mxCell id="147" value="" style="ellipse;whiteSpace=wrap;html=1;" vertex="1" parent="1">
                    <mxGeometry x="1075" y="92.6" width="10" height="10" as="geometry"/>
                </mxCell>
                <mxCell id="148" value="" style="ellipse;whiteSpace=wrap;html=1;" vertex="1" parent="1">
                    <mxGeometry x="1105" y="92.6" width="10" height="10" as="geometry"/>
                </mxCell>
                <mxCell id="149" value="" style="edgeStyle=none;orthogonalLoop=1;jettySize=auto;html=1;" edge="1" parent="1" target="154">
                    <mxGeometry width="80" relative="1" as="geometry">
                        <mxPoint x="1025" y="97.54999999999993" as="sourcePoint"/>
                        <mxPoint x="1050" y="130" as="targetPoint"/>
                        <Array as="points">
                            <mxPoint x="1030" y="130"/>
                        </Array>
                    </mxGeometry>
                </mxCell>
                <mxCell id="150" value="" style="edgeStyle=none;orthogonalLoop=1;jettySize=auto;html=1;entryX=0.926;entryY=0.321;entryDx=0;entryDy=0;entryPerimeter=0;exitX=0.007;exitY=0.356;exitDx=0;exitDy=0;exitPerimeter=0;" edge="1" parent="1" source="146" target="145">
                    <mxGeometry width="80" relative="1" as="geometry">
                        <mxPoint x="1040" y="96" as="sourcePoint"/>
                        <mxPoint x="1075" y="97.54999999999993" as="targetPoint"/>
                        <Array as="points"/>
                    </mxGeometry>
                </mxCell>
                <mxCell id="151" value="" style="edgeStyle=none;orthogonalLoop=1;jettySize=auto;html=1;" edge="1" parent="1">
                    <mxGeometry width="80" relative="1" as="geometry">
                        <mxPoint x="1085" y="97.54999999999993" as="sourcePoint"/>
                        <mxPoint x="1105" y="97.54999999999993" as="targetPoint"/>
                        <Array as="points"/>
                    </mxGeometry>
                </mxCell>
                <mxCell id="152" value="" style="edgeStyle=none;orthogonalLoop=1;jettySize=auto;html=1;" edge="1" parent="1">
                    <mxGeometry width="80" relative="1" as="geometry">
                        <mxPoint x="1019.95" y="77.54999999999993" as="sourcePoint"/>
                        <mxPoint x="1019.95" y="92.6" as="targetPoint"/>
                        <Array as="points"/>
                    </mxGeometry>
                </mxCell>
                <mxCell id="153" value="&lt;div style=&quot;text-align: center;&quot;&gt;&lt;span style=&quot;background-color: initial;&quot;&gt;2&lt;/span&gt;&lt;/div&gt;" style="text;whiteSpace=wrap;html=1;fontSize=6;" vertex="1" parent="1">
                    <mxGeometry x="1045" y="87" width="10" height="20" as="geometry"/>
                </mxCell>
                <mxCell id="154" value="&lt;div style=&quot;text-align: center;&quot;&gt;3&lt;/div&gt;" style="text;whiteSpace=wrap;html=1;fontSize=6;" vertex="1" parent="1">
                    <mxGeometry x="1075" y="87.6" width="10" height="20" as="geometry"/>
                </mxCell>
                <mxCell id="155" value="&lt;div style=&quot;text-align: center;&quot;&gt;4&lt;/div&gt;" style="text;whiteSpace=wrap;html=1;fontSize=6;" vertex="1" parent="1">
                    <mxGeometry x="1105" y="87.6" width="10" height="20" as="geometry"/>
                </mxCell>
                <mxCell id="156" value="&lt;font style=&quot;font-size: 6px;&quot;&gt;curr&lt;/font&gt;" style="text;html=1;align=center;verticalAlign=middle;resizable=0;points=[];autosize=1;strokeColor=none;fillColor=none;fontSize=6;" vertex="1" parent="1">
                    <mxGeometry x="1005" y="62.6" width="30" height="20" as="geometry"/>
                </mxCell>
                <mxCell id="157" value="" style="edgeStyle=none;orthogonalLoop=1;jettySize=auto;html=1;" edge="1" parent="1">
                    <mxGeometry width="80" relative="1" as="geometry">
                        <mxPoint x="1049.95" y="77.54999999999993" as="sourcePoint"/>
                        <mxPoint x="1049.9499999999998" y="92.6" as="targetPoint"/>
                        <Array as="points"/>
                    </mxGeometry>
                </mxCell>
                <mxCell id="158" value="nxtn" style="text;html=1;align=center;verticalAlign=middle;resizable=0;points=[];autosize=1;strokeColor=none;fillColor=none;fontSize=6;" vertex="1" parent="1">
                    <mxGeometry x="1035" y="62.6" width="30" height="20" as="geometry"/>
                </mxCell>
                <mxCell id="159" value="&lt;span style=&quot;font-size: 6px;&quot;&gt;0&lt;/span&gt;" style="ellipse;whiteSpace=wrap;html=1;" vertex="1" parent="1">
                    <mxGeometry x="985" y="92.6" width="10" height="10" as="geometry"/>
                </mxCell>
                <mxCell id="160" value="" style="edgeStyle=none;orthogonalLoop=1;jettySize=auto;html=1;" edge="1" parent="1">
                    <mxGeometry width="80" relative="1" as="geometry">
                        <mxPoint x="995" y="97.54999999999993" as="sourcePoint"/>
                        <mxPoint x="1015" y="97.54999999999993" as="targetPoint"/>
                        <Array as="points"/>
                    </mxGeometry>
                </mxCell>
                <mxCell id="161" value="" style="edgeStyle=none;orthogonalLoop=1;jettySize=auto;html=1;" edge="1" parent="1">
                    <mxGeometry width="80" relative="1" as="geometry">
                        <mxPoint x="989.95" y="77.54999999999993" as="sourcePoint"/>
                        <mxPoint x="989.95" y="92.6" as="targetPoint"/>
                        <Array as="points"/>
                    </mxGeometry>
                </mxCell>
                <mxCell id="162" value="prev" style="text;html=1;align=center;verticalAlign=middle;resizable=0;points=[];autosize=1;strokeColor=none;fillColor=none;fontSize=6;" vertex="1" parent="1">
                    <mxGeometry x="970" y="62.6" width="40" height="20" as="geometry"/>
                </mxCell>
                <mxCell id="207" value="" style="shape=stencil(lVnbbls5DPwavxISdX/utv9RoOnGaDYp0rS7/fuO1pBqUT5j9M1xzlgiOSSHPKfw7tvjx68PJ3Xf3l5fvjz8e/709ngKf51Uz8+PD6/nN3w6hfen8O7zy+vD368v358/Xf7++rE/2T/98/Kj/8J/F1zMoqGj1P28fOOdVP3/mw8XwNP5+RrgpKQV0KSFY0BI4vwC0CaxEQAusF4pZAkEoFn8eqUYRYkN6iW4BZBUNB4DfJZaFkB24sgJPohfjc5FIvESvF7WE0qQSoxu4uL6fJNEDqiS6vJ8jeIquZAXXZ1am4RCfaR5ATQvjThVg2RdAfCaI8SIkrIFBE+4miWvRjeVTGxIZfz7ygZPopDz4P70UqVGlyhxjVtN0siVyvT6BChlUg2ibWVGESVurUif1UvFUbcCYE6AGwK7UpJsAJ5yCdzUNX0SziRshU90tSE56tbqBtVmzUg03+DEsNoQPTUakQ4rW1HGKokDvF4NQEetvU2+ImW1AVleCPng9byeoCqelDF43a8p6nkc4HVDDRS2mEmKRmsDnEQOiGFrPwg08SoAfk04X8QxgA7iTCfNhnQEqOsJGmmgo1obELc7J5iyBGZQLwGw5k/ItEkDYEor+nwj6dAB6wnIH8cCvQPq4PsRM9xKpRRph4tlVK0JgNBg1X72p8m9QI1GezDKBCmYSRxyEr8Cio4EOaxjBlCkscIXh4kTUHl7mKX6SjgoqTK1WC6hdgYGqKPdTIAfP3EEMAoRbmikLOFKbhMzrI6hASVzpUSlBppoDBbASitMNGztfZ31k1mqrwBMeBeImc0GJlrRgJpaLwV2AhSnkXxhKOsjQDIneJrTALS1zIBLiamfPYEapTe8VI36qaO0HekrtyWQ45E2Cq6nKBdkptzjBBa4TrVsAUxUIh+M9IZVjRjdM86w1Q8ReATwJnBKhzhcydSl7gZmQ76R06yL9pQ3V0qUS52be4pyapiW1QGMfH8KSMFKPnApkoxDj0smH8KYZW/PTM2ekOtoMUdDlpHeWalWx7huigBUo2PjerXD9B0loNXacEdrdMB6pTtqputmI7C4XuoAI7B0WHUEyLvmI02xD+wrW6EqCzc6mROcFG6D0XwQ93cAVnsrTdHgrRJII0FuP1/tzoEPopg2zGzsqLRPdfS/yQv6fI5jtJjrAJ7/mHWq9ajj7c3oEuVltauGNf/78ovVYS/JDCeNpgIqVjTMjoNYR63BrHFQc9iM2LzdykDqsxrWol1QxDZqzm0ApNLqpZTouq5t+Z/dWFkcrOsm0653IGyftiOKp/2qbSUD4oaJVphd1kigIRUWiWinDTRp2kLLINvVUrAwgpctgwLtuX2htp7QIPZZC43WS61RQPTbTsPxsqHFlhkcweYTH4e+mwCu+KLNakSGaVC3xa2Mzc7B84Z6de5ebxuw6clK02Gy5kqVOLa5snUYYY8kAt5ZkZ64ZPDbmhXDPouxb9s7BOWSIdhdWn/RwQDFDnzop8q6YbDJ5iudo3v7NLlDZ6WwiZjK3+Q0uzqoo33dZrWzmTaniKPMtO806NiDCDkjhscm7mgVuP3+nV2jqUV8MkQbs/Mz3RBDxRoBVqn+itlmQaOLfTxvNtDt3u9HWxlpJ//zl4f3Afjw+13l5/PT0+VV5/X/7btNfHV5Lxre/wI=);lineShape=1;fontSize=6;" vertex="1" parent="1">
                    <mxGeometry x="996.0381729670983" y="96.83039969245763" width="1.0005701979689672" height="1.8200990273821034" as="geometry"/>
                </mxCell>
                <mxCell id="208" value="" style="shape=stencil(lZbdUttADIWfxrdnpNX+XlN4D2YIjYc0YUKg5e3R1mOIlkSd3vnv88pHR8c7yc3L9v55MwV6OR0PT5vf88NpO8mPKYR5v90c55MeTXI7yc3j4bj5eTy87h+W8+f7/mQ/+nV462/4s3CNUEKnAr0vV2JCan+v3C3Abt6fAxmlGCAJWnWAhsoGyIKaXSCJAUoEeyUltGyAqis4QG2IFmiMFh1AVbIltYLE14FCyFYlJgLRdSITJNolGtiRKRGq7ZzqQE4jooBtI2oFO4BUkAVK84EMsrrmBhIHKGMjUkV1VIphXCGqW5zO6W1pFggITklaQK4G0CKzs0KuaMkCGSE53lARrZlU6OB8dG+TXUFbGfyBoGFG6V8zykPjCLFcB87c/OkNWoPh8hI6MBbQofJa3UdysGtbX3FZJh36YUg1GJySeqzYkr6i53KrBeXbjFYnBjQa6wBofHozmhCHoVZZHTN1QP4HkDima09Dx0whrm7+BBKyE0yc1rQ+i43ofHRBtW4tDHHaEMYwzrym7cXn1ar2AxKvKXLteWuLSODg1ZNsYgRfUc0TWz831xQcR4GYkZweBxmBBHEmRz0x/Bm0AY6garpBofHfpgdfO47HebdbNizn98cdil5adjdy+wE=);lineShape=1;fontSize=6;" vertex="1" parent="1">
                    <mxGeometry x="996.9749245039873" y="95.68702160959603" width="0.17223443426289983" height="0.1727627918907498" as="geometry"/>
                </mxCell>
                <mxCell id="209" value="" style="shape=stencil(lZbdUttADIWfxrdnpNX+XlN4D2YIjYc0YUKg5e3R1mOIlkSd3vnv88pHR8c7yc3L9v55MwV6OR0PT5vf88NpO8mPKYR5v90c55MeTXI7yc3j4bj5eTy87h+W8+f7/mQ/+nV462/4s3CNUEKnAr0vV2JCan+v3C3Abt6fAxmlGCAJWnWAhsoGyIKaXSCJAUoEeyUltGyAqis4QG2IFmiMFh1AVbIltYLE14FCyFYlJgLRdSITJNolGtiRKRGq7ZzqQE4jooBtI2oFO4BUkAVK84EMsrrmBhIHKGMjUkV1VIphXCGqW5zO6W1pFggITklaQK4G0CKzs0KuaMkCGSE53lARrZlU6OB8dG+TXUFbGfyBoGFG6V8zykPjCLFcB87c/OkNWoPh8hI6MBbQofJa3UdysGtbX3FZJh36YUg1GJySeqzYkr6i53KrBeXbjFYnBjQa6wBofHozmhCHoVZZHTN1QP4HkDima09Dx0whrm7+BBKyE0yc1rQ+i43ofHRBtW4tDHHaEMYwzrym7cXn1ar2AxKvKXLteWuLSODg1ZNsYgRfUc0TWz831xQcR4GYkZweBxmBBHEmRz0x/Bm0AY6garpBofHfpgdfO47HebdbNizn98cdil5adjdy+wE=);lineShape=1;fontSize=6;" vertex="1" parent="1">
                    <mxGeometry x="997.7639669376347" y="94.56921288875913" width="0.17223443426289983" height="0.1727627918907498" as="geometry"/>
                </mxCell>
                <mxCell id="210" value="" style="shape=stencil(lZbdUttADIWfxrdnpNX+XlN4D2YIjYc0YUKg5e3R1mOIlkSd3vnv88pHR8c7yc3L9v55MwV6OR0PT5vf88NpO8mPKYR5v90c55MeTXI7yc3j4bj5eTy87h+W8+f7/mQ/+nV462/4s3CNUEKnAr0vV2JCan+v3C3Abt6fAxmlGCAJWnWAhsoGyIKaXSCJAUoEeyUltGyAqis4QG2IFmiMFh1AVbIltYLE14FCyFYlJgLRdSITJNolGtiRKRGq7ZzqQE4jooBtI2oFO4BUkAVK84EMsrrmBhIHKGMjUkV1VIphXCGqW5zO6W1pFggITklaQK4G0CKzs0KuaMkCGSE53lARrZlU6OB8dG+TXUFbGfyBoGFG6V8zykPjCLFcB87c/OkNWoPh8hI6MBbQofJa3UdysGtbX3FZJh36YUg1GJySeqzYkr6i53KrBeXbjFYnBjQa6wBofHozmhCHoVZZHTN1QP4HkDima09Dx0whrm7+BBKyE0yc1rQ+i43ofHRBtW4tDHHaEMYwzrym7cXn1ar2AxKvKXLteWuLSODg1ZNsYgRfUc0TWz831xQcR4GYkZweBxmBBHEmRz0x/Bm0AY6garpBofHfpgdfO47HebdbNizn98cdil5adjdy+wE=);lineShape=1;fontSize=6;" vertex="1" parent="1">
                    <mxGeometry x="998.7502678894487" y="93.78017254535695" width="0.17223443426289983" height="0.17276279189076538" as="geometry"/>
                </mxCell>
                <mxCell id="211" value="" style="shape=stencil(lZbdUttADIWfxrdnpNX+XlN4D2YIjYc0YUKg5e3R1mOIlkSd3vnv88pHR8c7yc3L9v55MwV6OR0PT5vf88NpO8mPKYR5v90c55MeTXI7yc3j4bj5eTy87h+W8+f7/mQ/+nV462/4s3CNUEKnAr0vV2JCan+v3C3Abt6fAxmlGCAJWnWAhsoGyIKaXSCJAUoEeyUltGyAqis4QG2IFmiMFh1AVbIltYLE14FCyFYlJgLRdSITJNolGtiRKRGq7ZzqQE4jooBtI2oFO4BUkAVK84EMsrrmBhIHKGMjUkV1VIphXCGqW5zO6W1pFggITklaQK4G0CKzs0KuaMkCGSE53lARrZlU6OB8dG+TXUFbGfyBoGFG6V8zykPjCLFcB87c/OkNWoPh8hI6MBbQofJa3UdysGtbX3FZJh36YUg1GJySeqzYkr6i53KrBeXbjFYnBjQa6wBofHozmhCHoVZZHTN1QP4HkDima09Dx0whrm7+BBKyE0yc1rQ+i43ofHRBtW4tDHHaEMYwzrym7cXn1ar2AxKvKXLteWuLSODg1ZNsYgRfUc0TWz831xQcR4GYkZweBxmBBHEmRz0x/Bm0AY6garpBofHfpgdfO47HebdbNizn98cdil5adjdy+wE=);lineShape=1;fontSize=6;" vertex="1" parent="1">
                    <mxGeometry x="1000.6571169536876" y="92.59660889488606" width="0.17223443426289983" height="0.17276279189076538" as="geometry"/>
                </mxCell>
                <mxCell id="212" value="" style="shape=stencil(lZbdUttADIWfxrdnpNX+XlN4D2YIjYc0YUKg5e3R1mOIlkSd3vnv88pHR8c7yc3L9v55MwV6OR0PT5vf88NpO8mPKYR5v90c55MeTXI7yc3j4bj5eTy87h+W8+f7/mQ/+nV462/4s3CNUEKnAr0vV2JCan+v3C3Abt6fAxmlGCAJWnWAhsoGyIKaXSCJAUoEeyUltGyAqis4QG2IFmiMFh1AVbIltYLE14FCyFYlJgLRdSITJNolGtiRKRGq7ZzqQE4jooBtI2oFO4BUkAVK84EMsrrmBhIHKGMjUkV1VIphXCGqW5zO6W1pFggITklaQK4G0CKzs0KuaMkCGSE53lARrZlU6OB8dG+TXUFbGfyBoGFG6V8zykPjCLFcB87c/OkNWoPh8hI6MBbQofJa3UdysGtbX3FZJh36YUg1GJySeqzYkr6i53KrBeXbjFYnBjQa6wBofHozmhCHoVZZHTN1QP4HkDima09Dx0whrm7+BBKyE0yc1rQ+i43ofHRBtW4tDHHaEMYwzrym7cXn1ar2AxKvKXLteWuLSODg1ZNsYgRfUc0TWz831xQcR4GYkZweBxmBBHEmRz0x/Bm0AY6garpBofHfpgdfO47HebdbNizn98cdil5adjdy+wE=);lineShape=1;fontSize=6;" vertex="1" parent="1">
                    <mxGeometry x="1002.8269815559727" y="91.61030794307206" width="0.17223443426289983" height="0.17276279189076538" as="geometry"/>
                </mxCell>
                <mxCell id="213" value="" style="shape=stencil(lZbdUttADIWfxrdnpNX+XlN4D2YIjYc0YUKg5e3R1mOIlkSd3vnv88pHR8c7yc3L9v55MwV6OR0PT5vf88NpO8mPKYR5v90c55MeTXI7yc3j4bj5eTy87h+W8+f7/mQ/+nV462/4s3CNUEKnAr0vV2JCan+v3C3Abt6fAxmlGCAJWnWAhsoGyIKaXSCJAUoEeyUltGyAqis4QG2IFmiMFh1AVbIltYLE14FCyFYlJgLRdSITJNolGtiRKRGq7ZzqQE4jooBtI2oFO4BUkAVK84EMsrrmBhIHKGMjUkV1VIphXCGqW5zO6W1pFggITklaQK4G0CKzs0KuaMkCGSE53lARrZlU6OB8dG+TXUFbGfyBoGFG6V8zykPjCLFcB87c/OkNWoPh8hI6MBbQofJa3UdysGtbX3FZJh36YUg1GJySeqzYkr6i53KrBeXbjFYnBjQa6wBofHozmhCHoVZZHTN1QP4HkDima09Dx0whrm7+BBKyE0yc1rQ+i43ofHRBtW4tDHHaEMYwzrym7cXn1ar2AxKvKXLteWuLSODg1ZNsYgRfUc0TWz831xQcR4GYkZweBxmBBHEmRz0x/Bm0AY6garpBofHfpgdfO47HebdbNizn98cdil5adjdy+wE=);lineShape=1;fontSize=6;" vertex="1" parent="1">
                    <mxGeometry x="1004.7995834596006" y="90.88702043905877" width="0.17223443426289983" height="0.17276279189076538" as="geometry"/>
                </mxCell>
                <mxCell id="214" value="" style="shape=stencil(lZbdUttADIWfxrdnpNX+XlN4D2YIjYc0YUKg5e3R1mOIlkSd3vnv88pHR8c7yc3L9v55MwV6OR0PT5vf88NpO8mPKYR5v90c55MeTXI7yc3j4bj5eTy87h+W8+f7/mQ/+nV462/4s3CNUEKnAr0vV2JCan+v3C3Abt6fAxmlGCAJWnWAhsoGyIKaXSCJAUoEeyUltGyAqis4QG2IFmiMFh1AVbIltYLE14FCyFYlJgLRdSITJNolGtiRKRGq7ZzqQE4jooBtI2oFO4BUkAVK84EMsrrmBhIHKGMjUkV1VIphXCGqW5zO6W1pFggITklaQK4G0CKzs0KuaMkCGSE53lARrZlU6OB8dG+TXUFbGfyBoGFG6V8zykPjCLFcB87c/OkNWoPh8hI6MBbQofJa3UdysGtbX3FZJh36YUg1GJySeqzYkr6i53KrBeXbjFYnBjQa6wBofHozmhCHoVZZHTN1QP4HkDima09Dx0whrm7+BBKyE0yc1rQ+i43ofHRBtW4tDHHaEMYwzrym7cXn1ar2AxKvKXLteWuLSODg1ZNsYgRfUc0TWz831xQcR4GYkZweBxmBBHEmRz0x/Bm0AY6garpBofHfpgdfO47HebdbNizn98cdil5adjdy+wE=);lineShape=1;fontSize=6;" vertex="1" parent="1">
                    <mxGeometry x="1006.7064304335945" y="90.42674638284623" width="0.17223443426289983" height="0.17276279189076538" as="geometry"/>
                </mxCell>
                <mxCell id="215" value="" style="shape=stencil(lZbdUttADIWfxrdnpNX+XlN4D2YIjYc0YUKg5e3R1mOIlkSd3vnv88pHR8c7yc3L9v55MwV6OR0PT5vf88NpO8mPKYR5v90c55MeTXI7yc3j4bj5eTy87h+W8+f7/mQ/+nV462/4s3CNUEKnAr0vV2JCan+v3C3Abt6fAxmlGCAJWnWAhsoGyIKaXSCJAUoEeyUltGyAqis4QG2IFmiMFh1AVbIltYLE14FCyFYlJgLRdSITJNolGtiRKRGq7ZzqQE4jooBtI2oFO4BUkAVK84EMsrrmBhIHKGMjUkV1VIphXCGqW5zO6W1pFggITklaQK4G0CKzs0KuaMkCGSE53lARrZlU6OB8dG+TXUFbGfyBoGFG6V8zykPjCLFcB87c/OkNWoPh8hI6MBbQofJa3UdysGtbX3FZJh36YUg1GJySeqzYkr6i53KrBeXbjFYnBjQa6wBofHozmhCHoVZZHTN1QP4HkDima09Dx0whrm7+BBKyE0yc1rQ+i43ofHRBtW4tDHHaEMYwzrym7cXn1ar2AxKvKXLteWuLSODg1ZNsYgRfUc0TWz831xQcR4GYkZweBxmBBHEmRz0x/Bm0AY6garpBofHfpgdfO47HebdbNizn98cdil5adjdy+wE=);lineShape=1;fontSize=6;" vertex="1" parent="1">
                    <mxGeometry x="1008.7447872668565" y="89.96647232663369" width="0.17223443426289983" height="0.17276279189076538" as="geometry"/>
                </mxCell>
                <mxCell id="216" value="" style="shape=stencil(lZbdUttADIWfxrdnpNX+XlN4D2YIjYc0YUKg5e3R1mOIlkSd3vnv88pHR8c7yc3L9v55MwV6OR0PT5vf88NpO8mPKYR5v90c55MeTXI7yc3j4bj5eTy87h+W8+f7/mQ/+nV462/4s3CNUEKnAr0vV2JCan+v3C3Abt6fAxmlGCAJWnWAhsoGyIKaXSCJAUoEeyUltGyAqis4QG2IFmiMFh1AVbIltYLE14FCyFYlJgLRdSITJNolGtiRKRGq7ZzqQE4jooBtI2oFO4BUkAVK84EMsrrmBhIHKGMjUkV1VIphXCGqW5zO6W1pFggITklaQK4G0CKzs0KuaMkCGSE53lARrZlU6OB8dG+TXUFbGfyBoGFG6V8zykPjCLFcB87c/OkNWoPh8hI6MBbQofJa3UdysGtbX3FZJh36YUg1GJySeqzYkr6i53KrBeXbjFYnBjQa6wBofHozmhCHoVZZHTN1QP4HkDima09Dx0whrm7+BBKyE0yc1rQ+i43ofHRBtW4tDHHaEMYwzrym7cXn1ar2AxKvKXLteWuLSODg1ZNsYgRfUc0TWz831xQcR4GYkZweBxmBBHEmRz0x/Bm0AY6garpBofHfpgdfO47HebdbNizn98cdil5adjdy+wE=);lineShape=1;fontSize=6;" vertex="1" parent="1">
                    <mxGeometry x="1011.6379372829097" y="89.1116791438426" width="0.17223443426289983" height="0.17276279189076538" as="geometry"/>
                </mxCell>
                <mxCell id="217" value="" style="shape=stencil(lZbdUttADIWfxrdnpNX+XlN4D2YIjYc0YUKg5e3R1mOIlkSd3vnv88pHR8c7yc3L9v55MwV6OR0PT5vf88NpO8mPKYR5v90c55MeTXI7yc3j4bj5eTy87h+W8+f7/mQ/+nV462/4s3CNUEKnAr0vV2JCan+v3C3Abt6fAxmlGCAJWnWAhsoGyIKaXSCJAUoEeyUltGyAqis4QG2IFmiMFh1AVbIltYLE14FCyFYlJgLRdSITJNolGtiRKRGq7ZzqQE4jooBtI2oFO4BUkAVK84EMsrrmBhIHKGMjUkV1VIphXCGqW5zO6W1pFggITklaQK4G0CKzs0KuaMkCGSE53lARrZlU6OB8dG+TXUFbGfyBoGFG6V8zykPjCLFcB87c/OkNWoPh8hI6MBbQofJa3UdysGtbX3FZJh36YUg1GJySeqzYkr6i53KrBeXbjFYnBjQa6wBofHozmhCHoVZZHTN1QP4HkDima09Dx0whrm7+BBKyE0yc1rQ+i43ofHRBtW4tDHHaEMYwzrym7cXn1ar2AxKvKXLteWuLSODg1ZNsYgRfUc0TWz831xQcR4GYkZweBxmBBHEmRz0x/Bm0AY6garpBofHfpgdfO47HebdbNizn98cdil5adjdy+wE=);lineShape=1;fontSize=6;" vertex="1" parent="1">
                    <mxGeometry x="1013.6762982966618" y="88.84866360579679" width="0.17223443426289983" height="0.17276279189076538" as="geometry"/>
                </mxCell>
                <mxCell id="218" value="" style="shape=stencil(lZbdUttADIWfxrdnpNX+XlN4D2YIjYc0YUKg5e3R1mOIlkSd3vnv88pHR8c7yc3L9v55MwV6OR0PT5vf88NpO8mPKYR5v90c55MeTXI7yc3j4bj5eTy87h+W8+f7/mQ/+nV462/4s3CNUEKnAr0vV2JCan+v3C3Abt6fAxmlGCAJWnWAhsoGyIKaXSCJAUoEeyUltGyAqis4QG2IFmiMFh1AVbIltYLE14FCyFYlJgLRdSITJNolGtiRKRGq7ZzqQE4jooBtI2oFO4BUkAVK84EMsrrmBhIHKGMjUkV1VIphXCGqW5zO6W1pFggITklaQK4G0CKzs0KuaMkCGSE53lARrZlU6OB8dG+TXUFbGfyBoGFG6V8zykPjCLFcB87c/OkNWoPh8hI6MBbQofJa3UdysGtbX3FZJh36YUg1GJySeqzYkr6i53KrBeXbjFYnBjQa6wBofHozmhCHoVZZHTN1QP4HkDima09Dx0whrm7+BBKyE0yc1rQ+i43ofHRBtW4tDHHaEMYwzrym7cXn1ar2AxKvKXLteWuLSODg1ZNsYgRfUc0TWz831xQcR4GYkZweBxmBBHEmRz0x/Bm0AY6garpBofHfpgdfO47HebdbNizn98cdil5adjdy+wE=);lineShape=1;fontSize=6;" vertex="1" parent="1">
                    <mxGeometry x="1015.4516395918779" y="88.71715792701897" width="0.17223443426289983" height="0.17276279189076538" as="geometry"/>
                </mxCell>
                <mxCell id="219" value="" style="shape=stencil(lZbdUttADIWfxrdnpNX+XlN4D2YIjYc0YUKg5e3R1mOIlkSd3vnv88pHR8c7yc3L9v55MwV6OR0PT5vf88NpO8mPKYR5v90c55MeTXI7yc3j4bj5eTy87h+W8+f7/mQ/+nV462/4s3CNUEKnAr0vV2JCan+v3C3Abt6fAxmlGCAJWnWAhsoGyIKaXSCJAUoEeyUltGyAqis4QG2IFmiMFh1AVbIltYLE14FCyFYlJgLRdSITJNolGtiRKRGq7ZzqQE4jooBtI2oFO4BUkAVK84EMsrrmBhIHKGMjUkV1VIphXCGqW5zO6W1pFggITklaQK4G0CKzs0KuaMkCGSE53lARrZlU6OB8dG+TXUFbGfyBoGFG6V8zykPjCLFcB87c/OkNWoPh8hI6MBbQofJa3UdysGtbX3FZJh36YUg1GJySeqzYkr6i53KrBeXbjFYnBjQa6wBofHozmhCHoVZZHTN1QP4HkDima09Dx0whrm7+BBKyE0yc1rQ+i43ofHRBtW4tDHHaEMYwzrym7cXn1ar2AxKvKXLteWuLSODg1ZNsYgRfUc0TWz831xQcR4GYkZweBxmBBHEmRz0x/Bm0AY6garpBofHfpgdfO47HebdbNizn98cdil5adjdy+wE=);lineShape=1;fontSize=6;" vertex="1" parent="1">
                    <mxGeometry x="1016.5694483127149" y="88.65140508763005" width="0.17223443426289983" height="0.17276279189076538" as="geometry"/>
                </mxCell>
                <mxCell id="220" value="" style="shape=stencil(lZbdUttADIWfxrdnpNX+XlN4D2YIjYc0YUKg5e3R1mOIlkSd3vnv88pHR8c7yc3L9v55MwV6OR0PT5vf88NpO8mPKYR5v90c55MeTXI7yc3j4bj5eTy87h+W8+f7/mQ/+nV462/4s3CNUEKnAr0vV2JCan+v3C3Abt6fAxmlGCAJWnWAhsoGyIKaXSCJAUoEeyUltGyAqis4QG2IFmiMFh1AVbIltYLE14FCyFYlJgLRdSITJNolGtiRKRGq7ZzqQE4jooBtI2oFO4BUkAVK84EMsrrmBhIHKGMjUkV1VIphXCGqW5zO6W1pFggITklaQK4G0CKzs0KuaMkCGSE53lARrZlU6OB8dG+TXUFbGfyBoGFG6V8zykPjCLFcB87c/OkNWoPh8hI6MBbQofJa3UdysGtbX3FZJh36YUg1GJySeqzYkr6i53KrBeXbjFYnBjQa6wBofHozmhCHoVZZHTN1QP4HkDima09Dx0whrm7+BBKyE0yc1rQ+i43ofHRBtW4tDHHaEMYwzrym7cXn1ar2AxKvKXLteWuLSODg1ZNsYgRfUc0TWz831xQcR4GYkZweBxmBBHEmRz0x/Bm0AY6garpBofHfpgdfO47HebdbNizn98cdil5adjdy+wE=);lineShape=1;fontSize=6;" vertex="1" parent="1">
                    <mxGeometry x="1018.5420502163429" y="88.65140508763005" width="0.17223443426289983" height="0.17276279189076538" as="geometry"/>
                </mxCell>
                <mxCell id="221" value="" style="shape=stencil(lZbdUttADIWfxrdnpNX+XlN4D2YIjYc0YUKg5e3R1mOIlkSd3vnv88pHR8c7yc3L9v55MwV6OR0PT5vf88NpO8mPKYR5v90c55MeTXI7yc3j4bj5eTy87h+W8+f7/mQ/+nV462/4s3CNUEKnAr0vV2JCan+v3C3Abt6fAxmlGCAJWnWAhsoGyIKaXSCJAUoEeyUltGyAqis4QG2IFmiMFh1AVbIltYLE14FCyFYlJgLRdSITJNolGtiRKRGq7ZzqQE4jooBtI2oFO4BUkAVK84EMsrrmBhIHKGMjUkV1VIphXCGqW5zO6W1pFggITklaQK4G0CKzs0KuaMkCGSE53lARrZlU6OB8dG+TXUFbGfyBoGFG6V8zykPjCLFcB87c/OkNWoPh8hI6MBbQofJa3UdysGtbX3FZJh36YUg1GJySeqzYkr6i53KrBeXbjFYnBjQa6wBofHozmhCHoVZZHTN1QP4HkDima09Dx0whrm7+BBKyE0yc1rQ+i43ofHRBtW4tDHHaEMYwzrym7cXn1ar2AxKvKXLteWuLSODg1ZNsYgRfUc0TWz831xQcR4GYkZweBxmBBHEmRz0x/Bm0AY6garpBofHfpgdfO47HebdbNizn98cdil5adjdy+wE=);lineShape=1;fontSize=6;" vertex="1" parent="1">
                    <mxGeometry x="1020.8434184071605" y="88.51989731860715" width="0.17223443426289983" height="0.17276279189076538" as="geometry"/>
                </mxCell>
                <mxCell id="222" value="" style="shape=stencil(lZbdUttADIWfxrdnpNX+XlN4D2YIjYc0YUKg5e3R1mOIlkSd3vnv88pHR8c7yc3L9v55MwV6OR0PT5vf88NpO8mPKYR5v90c55MeTXI7yc3j4bj5eTy87h+W8+f7/mQ/+nV462/4s3CNUEKnAr0vV2JCan+v3C3Abt6fAxmlGCAJWnWAhsoGyIKaXSCJAUoEeyUltGyAqis4QG2IFmiMFh1AVbIltYLE14FCyFYlJgLRdSITJNolGtiRKRGq7ZzqQE4jooBtI2oFO4BUkAVK84EMsrrmBhIHKGMjUkV1VIphXCGqW5zO6W1pFggITklaQK4G0CKzs0KuaMkCGSE53lARrZlU6OB8dG+TXUFbGfyBoGFG6V8zykPjCLFcB87c/OkNWoPh8hI6MBbQofJa3UdysGtbX3FZJh36YUg1GJySeqzYkr6i53KrBeXbjFYnBjQa6wBofHozmhCHoVZZHTN1QP4HkDima09Dx0whrm7+BBKyE0yc1rQ+i43ofHRBtW4tDHHaEMYwzrym7cXn1ar2AxKvKXLteWuLSODg1ZNsYgRfUc0TWz831xQcR4GYkZweBxmBBHEmRz0x/Bm0AY6garpBofHfpgdfO47HebdbNizn98cdil5adjdy+wE=);lineShape=1;fontSize=6;" vertex="1" parent="1">
                    <mxGeometry x="1022.8817794209126" y="88.51989731860715" width="0.17223443426289983" height="0.17276279189076538" as="geometry"/>
                </mxCell>
                <mxCell id="223" value="" style="shape=stencil(lZbdUttADIWfxrdnpNX+XlN4D2YIjYc0YUKg5e3R1mOIlkSd3vnv88pHR8c7yc3L9v55MwV6OR0PT5vf88NpO8mPKYR5v90c55MeTXI7yc3j4bj5eTy87h+W8+f7/mQ/+nV462/4s3CNUEKnAr0vV2JCan+v3C3Abt6fAxmlGCAJWnWAhsoGyIKaXSCJAUoEeyUltGyAqis4QG2IFmiMFh1AVbIltYLE14FCyFYlJgLRdSITJNolGtiRKRGq7ZzqQE4jooBtI2oFO4BUkAVK84EMsrrmBhIHKGMjUkV1VIphXCGqW5zO6W1pFggITklaQK4G0CKzs0KuaMkCGSE53lARrZlU6OB8dG+TXUFbGfyBoGFG6V8zykPjCLFcB87c/OkNWoPh8hI6MBbQofJa3UdysGtbX3FZJh36YUg1GJySeqzYkr6i53KrBeXbjFYnBjQa6wBofHozmhCHoVZZHTN1QP4HkDima09Dx0whrm7+BBKyE0yc1rQ+i43ofHRBtW4tDHHaEMYwzrym7cXn1ar2AxKvKXLteWuLSODg1ZNsYgRfUc0TWz831xQcR4GYkZweBxmBBHEmRz0x/Bm0AY6garpBofHfpgdfO47HebdbNizn98cdil5adjdy+wE=);lineShape=1;fontSize=6;" vertex="1" parent="1">
                    <mxGeometry x="1025.5776646480638" y="88.78291076640787" width="0.17223443426289983" height="0.17276279189076538" as="geometry"/>
                </mxCell>
                <mxCell id="224" value="" style="shape=stencil(lZbdUttADIWfxrdnpNX+XlN4D2YIjYc0YUKg5e3R1mOIlkSd3vnv88pHR8c7yc3L9v55MwV6OR0PT5vf88NpO8mPKYR5v90c55MeTXI7yc3j4bj5eTy87h+W8+f7/mQ/+nV462/4s3CNUEKnAr0vV2JCan+v3C3Abt6fAxmlGCAJWnWAhsoGyIKaXSCJAUoEeyUltGyAqis4QG2IFmiMFh1AVbIltYLE14FCyFYlJgLRdSITJNolGtiRKRGq7ZzqQE4jooBtI2oFO4BUkAVK84EMsrrmBhIHKGMjUkV1VIphXCGqW5zO6W1pFggITklaQK4G0CKzs0KuaMkCGSE53lARrZlU6OB8dG+TXUFbGfyBoGFG6V8zykPjCLFcB87c/OkNWoPh8hI6MBbQofJa3UdysGtbX3FZJh36YUg1GJySeqzYkr6i53KrBeXbjFYnBjQa6wBofHozmhCHoVZZHTN1QP4HkDima09Dx0whrm7+BBKyE0yc1rQ+i43ofHRBtW4tDHHaEMYwzrym7cXn1ar2AxKvKXLteWuLSODg1ZNsYgRfUc0TWz831xQcR4GYkZweBxmBBHEmRz0x/Bm0AY6garpBofHfpgdfO47HebdbNizn98cdil5adjdy+wE=);lineShape=1;fontSize=6;" vertex="1" parent="1">
                    <mxGeometry x="1028.8653358809404" y="88.78291076640787" width="0.17223443426277524" height="0.17276279189067195" as="geometry"/>
                </mxCell>
                <mxCell id="225" value="" style="shape=stencil(lZbdUttADIWfxrdnpNX+XlN4D2YIjYc0YUKg5e3R1mOIlkSd3vnv88pHR8c7yc3L9v55MwV6OR0PT5vf88NpO8mPKYR5v90c55MeTXI7yc3j4bj5eTy87h+W8+f7/mQ/+nV462/4s3CNUEKnAr0vV2JCan+v3C3Abt6fAxmlGCAJWnWAhsoGyIKaXSCJAUoEeyUltGyAqis4QG2IFmiMFh1AVbIltYLE14FCyFYlJgLRdSITJNolGtiRKRGq7ZzqQE4jooBtI2oFO4BUkAVK84EMsrrmBhIHKGMjUkV1VIphXCGqW5zO6W1pFggITklaQK4G0CKzs0KuaMkCGSE53lARrZlU6OB8dG+TXUFbGfyBoGFG6V8zykPjCLFcB87c/OkNWoPh8hI6MBbQofJa3UdysGtbX3FZJh36YUg1GJySeqzYkr6i53KrBeXbjFYnBjQa6wBofHozmhCHoVZZHTN1QP4HkDima09Dx0whrm7+BBKyE0yc1rQ+i43ofHRBtW4tDHHaEMYwzrym7cXn1ar2AxKvKXLteWuLSODg1ZNsYgRfUc0TWz831xQcR4GYkZweBxmBBHEmRz0x/Bm0AY6garpBofHfpgdfO47HebdbNizn98cdil5adjdy+wE=);lineShape=1;fontSize=6;" vertex="1" parent="1">
                    <mxGeometry x="1032.218762043451" y="89.17743198323151" width="0.17223443426277524" height="0.17276279189067195" as="geometry"/>
                </mxCell>
                <mxCell id="226" value="" style="shape=stencil(lZbdUttADIWfxrdnpNX+XlN4D2YIjYc0YUKg5e3R1mOIlkSd3vnv88pHR8c7yc3L9v55MwV6OR0PT5vf88NpO8mPKYR5v90c55MeTXI7yc3j4bj5eTy87h+W8+f7/mQ/+nV462/4s3CNUEKnAr0vV2JCan+v3C3Abt6fAxmlGCAJWnWAhsoGyIKaXSCJAUoEeyUltGyAqis4QG2IFmiMFh1AVbIltYLE14FCyFYlJgLRdSITJNolGtiRKRGq7ZzqQE4jooBtI2oFO4BUkAVK84EMsrrmBhIHKGMjUkV1VIphXCGqW5zO6W1pFggITklaQK4G0CKzs0KuaMkCGSE53lARrZlU6OB8dG+TXUFbGfyBoGFG6V8zykPjCLFcB87c/OkNWoPh8hI6MBbQofJa3UdysGtbX3FZJh36YUg1GJySeqzYkr6i53KrBeXbjFYnBjQa6wBofHozmhCHoVZZHTN1QP4HkDima09Dx0whrm7+BBKyE0yc1rQ+i43ofHRBtW4tDHHaEMYwzrym7cXn1ar2AxKvKXLteWuLSODg1ZNsYgRfUc0TWz831xQcR4GYkZweBxmBBHEmRz0x/Bm0AY6garpBofHfpgdfO47HebdbNizn98cdil5adjdy+wE=);lineShape=1;fontSize=6;" vertex="1" parent="1">
                    <mxGeometry x="1035.1776669891383" y="89.70345887883298" width="0.17223443426277524" height="0.17276279189067195" as="geometry"/>
                </mxCell>
                <mxCell id="227" value="" style="shape=stencil(lZbdUttADIWfxrdnpNX+XlN4D2YIjYc0YUKg5e3R1mOIlkSd3vnv88pHR8c7yc3L9v55MwV6OR0PT5vf88NpO8mPKYR5v90c55MeTXI7yc3j4bj5eTy87h+W8+f7/mQ/+nV462/4s3CNUEKnAr0vV2JCan+v3C3Abt6fAxmlGCAJWnWAhsoGyIKaXSCJAUoEeyUltGyAqis4QG2IFmiMFh1AVbIltYLE14FCyFYlJgLRdSITJNolGtiRKRGq7ZzqQE4jooBtI2oFO4BUkAVK84EMsrrmBhIHKGMjUkV1VIphXCGqW5zO6W1pFggITklaQK4G0CKzs0KuaMkCGSE53lARrZlU6OB8dG+TXUFbGfyBoGFG6V8zykPjCLFcB87c/OkNWoPh8hI6MBbQofJa3UdysGtbX3FZJh36YUg1GJySeqzYkr6i53KrBeXbjFYnBjQa6wBofHozmhCHoVZZHTN1QP4HkDima09Dx0whrm7+BBKyE0yc1rQ+i43ofHRBtW4tDHHaEMYwzrym7cXn1ar2AxKvKXLteWuLSODg1ZNsYgRfUc0TWz831xQcR4GYkZweBxmBBHEmRz0x/Bm0AY6garpBofHfpgdfO47HebdbNizn98cdil5adjdy+wE=);lineShape=1;fontSize=6;" vertex="1" parent="1">
                    <mxGeometry x="1040.7009514831987" y="91.01853029832677" width="0.17223443426277524" height="0.17276279189067195" as="geometry"/>
                </mxCell>
                <mxCell id="228" value="" style="shape=stencil(lZbdUttADIWfxrdnpNX+XlN4D2YIjYc0YUKg5e3R1mOIlkSd3vnv88pHR8c7yc3L9v55MwV6OR0PT5vf88NpO8mPKYR5v90c55MeTXI7yc3j4bj5eTy87h+W8+f7/mQ/+nV462/4s3CNUEKnAr0vV2JCan+v3C3Abt6fAxmlGCAJWnWAhsoGyIKaXSCJAUoEeyUltGyAqis4QG2IFmiMFh1AVbIltYLE14FCyFYlJgLRdSITJNolGtiRKRGq7ZzqQE4jooBtI2oFO4BUkAVK84EMsrrmBhIHKGMjUkV1VIphXCGqW5zO6W1pFggITklaQK4G0CKzs0KuaMkCGSE53lARrZlU6OB8dG+TXUFbGfyBoGFG6V8zykPjCLFcB87c/OkNWoPh8hI6MBbQofJa3UdysGtbX3FZJh36YUg1GJySeqzYkr6i53KrBeXbjFYnBjQa6wBofHozmhCHoVZZHTN1QP4HkDima09Dx0whrm7+BBKyE0yc1rQ+i43ofHRBtW4tDHHaEMYwzrym7cXn1ar2AxKvKXLteWuLSODg1ZNsYgRfUc0TWz831xQcR4GYkZweBxmBBHEmRz0x/Bm0AY6garpBofHfpgdfO47HebdbNizn98cdil5adjdy+wE=);lineShape=1;fontSize=6;" vertex="1" parent="1">
                    <mxGeometry x="1044.317393183755" y="92.46510321610822" width="0.17223443426277524" height="0.17276279189067195" as="geometry"/>
                </mxCell>
                <mxCell id="229" value="" style="shape=stencil(lZbdUttADIWfxrdnpNX+XlN4D2YIjYc0YUKg5e3R1mOIlkSd3vnv88pHR8c7yc3L9v55MwV6OR0PT5vf88NpO8mPKYR5v90c55MeTXI7yc3j4bj5eTy87h+W8+f7/mQ/+nV462/4s3CNUEKnAr0vV2JCan+v3C3Abt6fAxmlGCAJWnWAhsoGyIKaXSCJAUoEeyUltGyAqis4QG2IFmiMFh1AVbIltYLE14FCyFYlJgLRdSITJNolGtiRKRGq7ZzqQE4jooBtI2oFO4BUkAVK84EMsrrmBhIHKGMjUkV1VIphXCGqW5zO6W1pFggITklaQK4G0CKzs0KuaMkCGSE53lARrZlU6OB8dG+TXUFbGfyBoGFG6V8zykPjCLFcB87c/OkNWoPh8hI6MBbQofJa3UdysGtbX3FZJh36YUg1GJySeqzYkr6i53KrBeXbjFYnBjQa6wBofHozmhCHoVZZHTN1QP4HkDima09Dx0whrm7+BBKyE0yc1rQ+i43ofHRBtW4tDHHaEMYwzrym7cXn1ar2AxKvKXLteWuLSODg1ZNsYgRfUc0TWz831xQcR4GYkZweBxmBBHEmRz0x/Bm0AY6garpBofHfpgdfO47HebdbNizn98cdil5adjdy+wE=);lineShape=1;fontSize=6;" vertex="1" parent="1">
                    <mxGeometry x="1045.8954780510496" y="93.45140416792222" width="0.17223443426277524" height="0.17276279189067195" as="geometry"/>
                </mxCell>
                <mxCell id="246" value="" style="group" vertex="1" connectable="0" parent="1">
                    <mxGeometry x="400" y="60" width="145" height="45" as="geometry"/>
                </mxCell>
                <mxCell id="35" value="&lt;font style=&quot;font-size: 6px;&quot;&gt;1&lt;/font&gt;" style="ellipse;whiteSpace=wrap;html=1;" vertex="1" parent="246">
                    <mxGeometry x="45" y="30" width="10" height="10" as="geometry"/>
                </mxCell>
                <mxCell id="36" value="" style="ellipse;whiteSpace=wrap;html=1;" vertex="1" parent="246">
                    <mxGeometry x="75" y="30" width="10" height="10" as="geometry"/>
                </mxCell>
                <mxCell id="37" value="" style="ellipse;whiteSpace=wrap;html=1;" vertex="1" parent="246">
                    <mxGeometry x="105" y="30" width="10" height="10" as="geometry"/>
                </mxCell>
                <mxCell id="38" value="" style="ellipse;whiteSpace=wrap;html=1;" vertex="1" parent="246">
                    <mxGeometry x="135" y="30" width="10" height="10" as="geometry"/>
                </mxCell>
                <mxCell id="39" value="" style="edgeStyle=none;orthogonalLoop=1;jettySize=auto;html=1;" edge="1" parent="246">
                    <mxGeometry width="80" relative="1" as="geometry">
                        <mxPoint x="55" y="34.94999999999993" as="sourcePoint"/>
                        <mxPoint x="75" y="34.94999999999993" as="targetPoint"/>
                        <Array as="points"/>
                    </mxGeometry>
                </mxCell>
                <mxCell id="40" value="" style="edgeStyle=none;orthogonalLoop=1;jettySize=auto;html=1;" edge="1" parent="246">
                    <mxGeometry width="80" relative="1" as="geometry">
                        <mxPoint x="85" y="34.94999999999993" as="sourcePoint"/>
                        <mxPoint x="105" y="34.94999999999993" as="targetPoint"/>
                        <Array as="points"/>
                    </mxGeometry>
                </mxCell>
                <mxCell id="41" value="" style="edgeStyle=none;orthogonalLoop=1;jettySize=auto;html=1;" edge="1" parent="246">
                    <mxGeometry width="80" relative="1" as="geometry">
                        <mxPoint x="115" y="34.94999999999993" as="sourcePoint"/>
                        <mxPoint x="135" y="34.94999999999993" as="targetPoint"/>
                        <Array as="points"/>
                    </mxGeometry>
                </mxCell>
                <mxCell id="42" value="" style="edgeStyle=none;orthogonalLoop=1;jettySize=auto;html=1;" edge="1" parent="246">
                    <mxGeometry width="80" relative="1" as="geometry">
                        <mxPoint x="49.950000000000045" y="14.94999999999996" as="sourcePoint"/>
                        <mxPoint x="49.950000000000045" y="30" as="targetPoint"/>
                        <Array as="points"/>
                    </mxGeometry>
                </mxCell>
                <mxCell id="43" value="&lt;div style=&quot;text-align: center;&quot;&gt;&lt;span style=&quot;background-color: initial;&quot;&gt;2&lt;/span&gt;&lt;/div&gt;" style="text;whiteSpace=wrap;html=1;fontSize=6;" vertex="1" parent="246">
                    <mxGeometry x="75" y="25" width="10" height="20" as="geometry"/>
                </mxCell>
                <mxCell id="44" value="&lt;div style=&quot;text-align: center;&quot;&gt;3&lt;/div&gt;" style="text;whiteSpace=wrap;html=1;fontSize=6;" vertex="1" parent="246">
                    <mxGeometry x="105" y="25" width="10" height="20" as="geometry"/>
                </mxCell>
                <mxCell id="45" value="&lt;div style=&quot;text-align: center;&quot;&gt;4&lt;/div&gt;" style="text;whiteSpace=wrap;html=1;fontSize=6;" vertex="1" parent="246">
                    <mxGeometry x="135" y="25" width="10" height="20" as="geometry"/>
                </mxCell>
                <mxCell id="46" value="&lt;font style=&quot;font-size: 6px;&quot;&gt;curr&lt;/font&gt;" style="text;html=1;align=center;verticalAlign=middle;resizable=0;points=[];autosize=1;strokeColor=none;fillColor=none;fontSize=6;" vertex="1" parent="246">
                    <mxGeometry x="35" width="30" height="20" as="geometry"/>
                </mxCell>
                <mxCell id="47" value="" style="edgeStyle=none;orthogonalLoop=1;jettySize=auto;html=1;" edge="1" parent="246">
                    <mxGeometry width="80" relative="1" as="geometry">
                        <mxPoint x="79.95000000000005" y="14.94999999999996" as="sourcePoint"/>
                        <mxPoint x="79.94999999999993" y="30" as="targetPoint"/>
                        <Array as="points"/>
                    </mxGeometry>
                </mxCell>
                <mxCell id="48" value="nxtn" style="text;html=1;align=center;verticalAlign=middle;resizable=0;points=[];autosize=1;strokeColor=none;fillColor=none;fontSize=6;" vertex="1" parent="246">
                    <mxGeometry x="65" width="30" height="20" as="geometry"/>
                </mxCell>
                <mxCell id="49" value="&lt;span style=&quot;font-size: 6px;&quot;&gt;0&lt;/span&gt;" style="ellipse;whiteSpace=wrap;html=1;" vertex="1" parent="246">
                    <mxGeometry x="15" y="30" width="10" height="10" as="geometry"/>
                </mxCell>
                <mxCell id="50" value="" style="edgeStyle=none;orthogonalLoop=1;jettySize=auto;html=1;" edge="1" parent="246">
                    <mxGeometry width="80" relative="1" as="geometry">
                        <mxPoint x="25" y="34.94999999999993" as="sourcePoint"/>
                        <mxPoint x="45" y="34.94999999999993" as="targetPoint"/>
                        <Array as="points"/>
                    </mxGeometry>
                </mxCell>
                <mxCell id="51" value="" style="edgeStyle=none;orthogonalLoop=1;jettySize=auto;html=1;" edge="1" parent="246">
                    <mxGeometry width="80" relative="1" as="geometry">
                        <mxPoint x="19.950000000000045" y="14.94999999999996" as="sourcePoint"/>
                        <mxPoint x="19.950000000000045" y="30" as="targetPoint"/>
                        <Array as="points"/>
                    </mxGeometry>
                </mxCell>
                <mxCell id="52" value="prev" style="text;html=1;align=center;verticalAlign=middle;resizable=0;points=[];autosize=1;strokeColor=none;fillColor=none;fontSize=6;" vertex="1" parent="246">
                    <mxGeometry width="40" height="20" as="geometry"/>
                </mxCell>
                <mxCell id="247" value="" style="group" vertex="1" connectable="0" parent="1">
                    <mxGeometry x="1170" y="60" width="145" height="45" as="geometry"/>
                </mxCell>
                <mxCell id="248" value="&lt;span style=&quot;font-size: 6px;&quot;&gt;2&lt;/span&gt;" style="ellipse;whiteSpace=wrap;html=1;" vertex="1" parent="247">
                    <mxGeometry x="45" y="30" width="10" height="10" as="geometry"/>
                </mxCell>
                <mxCell id="249" value="" style="ellipse;whiteSpace=wrap;html=1;" vertex="1" parent="247">
                    <mxGeometry x="75" y="30" width="10" height="10" as="geometry"/>
                </mxCell>
                <mxCell id="250" value="" style="ellipse;whiteSpace=wrap;html=1;" vertex="1" parent="247">
                    <mxGeometry x="105" y="30" width="10" height="10" as="geometry"/>
                </mxCell>
                <mxCell id="251" value="" style="ellipse;whiteSpace=wrap;html=1;" vertex="1" parent="247">
                    <mxGeometry x="135" y="30" width="10" height="10" as="geometry"/>
                </mxCell>
                <mxCell id="252" value="" style="edgeStyle=none;orthogonalLoop=1;jettySize=auto;html=1;" edge="1" parent="247">
                    <mxGeometry width="80" relative="1" as="geometry">
                        <mxPoint x="55" y="34.94999999999993" as="sourcePoint"/>
                        <mxPoint x="75" y="34.94999999999993" as="targetPoint"/>
                        <Array as="points"/>
                    </mxGeometry>
                </mxCell>
                <mxCell id="253" value="" style="edgeStyle=none;orthogonalLoop=1;jettySize=auto;html=1;" edge="1" parent="247">
                    <mxGeometry width="80" relative="1" as="geometry">
                        <mxPoint x="85" y="34.94999999999993" as="sourcePoint"/>
                        <mxPoint x="105" y="34.94999999999993" as="targetPoint"/>
                        <Array as="points"/>
                    </mxGeometry>
                </mxCell>
                <mxCell id="254" value="" style="edgeStyle=none;orthogonalLoop=1;jettySize=auto;html=1;" edge="1" parent="247">
                    <mxGeometry width="80" relative="1" as="geometry">
                        <mxPoint x="115" y="34.94999999999993" as="sourcePoint"/>
                        <mxPoint x="135" y="34.94999999999993" as="targetPoint"/>
                        <Array as="points"/>
                    </mxGeometry>
                </mxCell>
                <mxCell id="255" value="" style="edgeStyle=none;orthogonalLoop=1;jettySize=auto;html=1;" edge="1" parent="247">
                    <mxGeometry width="80" relative="1" as="geometry">
                        <mxPoint x="49.950000000000045" y="14.94999999999996" as="sourcePoint"/>
                        <mxPoint x="49.950000000000045" y="30" as="targetPoint"/>
                        <Array as="points"/>
                    </mxGeometry>
                </mxCell>
                <mxCell id="257" value="&lt;div style=&quot;text-align: center;&quot;&gt;3&lt;/div&gt;" style="text;whiteSpace=wrap;html=1;fontSize=6;" vertex="1" parent="247">
                    <mxGeometry x="105" y="25" width="10" height="20" as="geometry"/>
                </mxCell>
                <mxCell id="258" value="&lt;div style=&quot;text-align: center;&quot;&gt;4&lt;/div&gt;" style="text;whiteSpace=wrap;html=1;fontSize=6;" vertex="1" parent="247">
                    <mxGeometry x="135" y="25" width="10" height="20" as="geometry"/>
                </mxCell>
                <mxCell id="259" value="&lt;font style=&quot;font-size: 6px;&quot;&gt;curr&lt;/font&gt;" style="text;html=1;align=center;verticalAlign=middle;resizable=0;points=[];autosize=1;strokeColor=none;fillColor=none;fontSize=6;" vertex="1" parent="247">
                    <mxGeometry x="65" width="30" height="20" as="geometry"/>
                </mxCell>
                <mxCell id="260" value="" style="edgeStyle=none;orthogonalLoop=1;jettySize=auto;html=1;" edge="1" parent="247">
                    <mxGeometry width="80" relative="1" as="geometry">
                        <mxPoint x="79.95000000000005" y="14.94999999999996" as="sourcePoint"/>
                        <mxPoint x="79.94999999999993" y="30" as="targetPoint"/>
                        <Array as="points"/>
                    </mxGeometry>
                </mxCell>
                <mxCell id="262" value="&lt;span style=&quot;font-size: 6px;&quot;&gt;0&lt;/span&gt;" style="ellipse;whiteSpace=wrap;html=1;" vertex="1" parent="247">
                    <mxGeometry x="15" y="30" width="10" height="10" as="geometry"/>
                </mxCell>
                <mxCell id="263" value="" style="edgeStyle=none;orthogonalLoop=1;jettySize=auto;html=1;" edge="1" parent="247">
                    <mxGeometry width="80" relative="1" as="geometry">
                        <mxPoint x="25" y="34.94999999999993" as="sourcePoint"/>
                        <mxPoint x="45" y="34.94999999999993" as="targetPoint"/>
                        <Array as="points"/>
                    </mxGeometry>
                </mxCell>
                <mxCell id="264" value="" style="edgeStyle=none;orthogonalLoop=1;jettySize=auto;html=1;" edge="1" parent="247">
                    <mxGeometry width="80" relative="1" as="geometry">
                        <mxPoint x="19.950000000000045" y="14.94999999999996" as="sourcePoint"/>
                        <mxPoint x="19.950000000000045" y="30" as="targetPoint"/>
                        <Array as="points"/>
                    </mxGeometry>
                </mxCell>
                <mxCell id="265" value="prev" style="text;html=1;align=center;verticalAlign=middle;resizable=0;points=[];autosize=1;strokeColor=none;fillColor=none;fontSize=6;" vertex="1" parent="247">
                    <mxGeometry width="40" height="20" as="geometry"/>
                </mxCell>
                <mxCell id="256" value="&lt;div style=&quot;text-align: center;&quot;&gt;1&lt;/div&gt;" style="text;whiteSpace=wrap;html=1;fontSize=6;" vertex="1" parent="247">
                    <mxGeometry x="75" y="24.999999999999993" width="10" height="20" as="geometry"/>
                </mxCell>
                <mxCell id="261" value="nxtn" style="text;html=1;align=center;verticalAlign=middle;resizable=0;points=[];autosize=1;strokeColor=none;fillColor=none;fontSize=6;" vertex="1" parent="247">
                    <mxGeometry x="35" width="30" height="20" as="geometry"/>
                </mxCell>
                <mxCell id="266" value="" style="shape=stencil(nZ3Zkhw3DkW/Rq8Z3Jdnj+c/HGF5pBiN5JA1298PGO3MrrqoOuyeNy1gFpMEQeDiAvkh//THp19+//ghhT9+fP/294///vzrj08f8l8+pPT566eP3z//sD99yD9/yD/99u37x799//bPr7++/P33X5bk+tM/vv1rPeE/L+NiPtpYo1L478u/pGO+/MNfX+S/fP56Lx/CnXw+YgL5dOQs8rmAfDxGE/lKz49HjiLfaf7h6Pfy5QgT5f/871f50p7Lz6N0ER8gPo5R7sTrkQOJpyTivT8X70e7F29HgrXvR8gi/udaPRRv50Kc4v2I9bl4PWYW8QobVY+i4hP2qRyz3omPI6N4VfEOWlZ03ecRYCHzMVU8w8rYEWwi3mBX81H06XRi7Xzea6SpNOlY0pU0+QZqkI7eVH6ifL03OHaEE6xOOkpQeZ6P7JXJTziC6dzKS95MFlmcY1SVJ92x2d4bEDOhkSygqqbJ00GJbn0KKqetdlf5QhbwnO2N/IT9ikeQ9a+nwj6Uv7TlRn7A84OazNhQf8J5H9zIt4zyMv/LLj6Rb13lC86nFZUfcNxNXvZ3oH6Go06V77C/wZ3HeSTQN5PvKk83rpNPbH9Mvqn8AH328hGtrZ+PnWicv6y/WQy6Wtz+LovK+nO/XxuPx/Tz/mK02yni/EdS+YnrOWX+7GSYfZD1aeyBnaf1kjf9h/WJet3ZXU3rGVWfczgt0hN5ub+yWTCcv/gxOaEHmc6n3chPWE+7v8TBzni/mPy9/uSC59e0t6s87W86rdklX88b9tn9nlS+ob8h9srkydNL6i3ldt6Az/yTrPJ0v6TTWl7yHe1JUn/A5Mme2O7L/g68f5PTt3lE0P90ejs38gP9pSkRSzgKz1/k4+lhvll+8PuK/KUhb/NXS0b7nNQ5LwXjlqT+hsmT/XH6Vupp4Z/pswSkDSPMdO7OJd+PhPsrAbLJk/1PRxT5cZ64Z/ZQ5CdH+Hrf1YD+VVR7YvIdn59FPjKCoO9bL4v67H6U52e0/zbbqvLv8vdqOcP4J/JF1rMeGf2BLPIN7UlQ/TF59sfSvX5WDvSDxiN1oP6Y/L19q/PcwTfLs78n8s12EP1VmX8zfcP5i362tIkX5L5ubN+CAietnDv4zB++17dWN/GU3NetbfxPARgb26ug928b5wo/829Ffm7k5/18ekB/JioA2CPeF+bfCnCVNv5kbipPeIWzhz3jfRoV8OzltEhv8297PRGJt/mrvaH9SWqvej9X7G33bx9HQHhM13/g+uTzdF/yE+8X8xbu5z8C2rdyPu2Sj3h+q/rzI52/+ER+OHm639tpnS75jPf7dVov+YL4Q1f/drC/NNT/GfW0SE8Q9nx/fkc7AtiTGNwLNAa84qlfNwPwREY1KaMfhaaU1GeyAXSnxuwGsFGMRU+xDSBQOTp4fkwOm5v66TaA4rA4FBgcDBzFeWaWLqA7HJE84+u/bwaQKnlbbQMIi/DB9oyY/lpgfdABhIauzETXAWSu7fwL3jTtvqEBTQHOeeXoHg/oipDMxAi8y2pNhsBWBkP2IZ9e2GObbUe06YBGKZakWZBZzkc8HpAVprIBFV46F7fThfMyVS/yWTHwyxdufTOAkPjc9eqZZvkobzUUK7QB+AvmSstLs+UrDr20AQPOQ4lOvcfpcDwekDQDawMqLOuCC5IOmDSlcsYn14CJHmSpbkoTd7o0t6wTcxYWomf3C42yq0GzXrsB8TSMtwNgp6sjFswrN/54QD3P180AShRYXKlnemIkboGlHqCBofiKFJ0uNfKtXDBiA2inLVYcUQcQ+mDBYnPaSuG7RYuqfJeH9nhAUQfLBpDyWbyYqw6giNMCRr3jGu6DRYCCodsA8kHbdJaPQTiL6VT5CqL0FnQVN4DskkVRajUyxv0rLJKXTghEWNyi3kxEJN0CkRB1QIaXtshCVykwvSUrm8cG0Hkw31+yzcvngxM3mlrvMVGXlmsedADha+Y4l3c5uvbf1U2JEPLpUpL2mxTC2TZJDmTj3U8HStsASmqYbnb3C4GisuIGMOxnB7K7GIistx356gI/OkDLCkmkW9GQLcMov1AwtFyehez0lU18NkCSM52vrOVZCFrCHK7plM8sFUWKcyp/oYfdANGlBejRSztjvK4Y2oepqmG3HkFu6x3ub6AWMMRfqyQg9UQQ0y+rORMUZb16eDcwOMGAc6pdWrg8nbjpEh0Vw+OlS4LkM3NguVOyShmhW6/eK5dC2jrUqzQ/czNAglfzZNG2Op+vMHdvnWmfL+NfkIRK4QTJHJoxWBlC0qWhjq6FIOQkzks3rwHpjCieWb4hScWIIOurS3gOWFlpmlJ3PN3O2toU8socT8+mEXtOeLFP55FlxpeWh+eoK4TNTJfrX/xe+oWoyZvEZMHl7Dj2E5kZu8ajo3ttHCxxf2LH/Nxw0OPCFsFqmJMoDK5YkLEwHAoXM0bs4zIqNwOQZx1UNWJCR9eu8eoGVIofxgMaKXmV3W8cw3YWPwjzfkNs7c6VXgNAlyykCe4dKNVurojAFIs7S4x0B9Cu+gOOFHvXAZWD1ym6VJCOYPG08oUL4kvmikg6IVZ0HWrXjGNkYHBd400HdHgHu2SLG0BXVplKklgDCIXrbpWYBVaqo21XvONKdrzVgoGfXYEx6wA6QCUoNrNhYuepkFfkiD0PzT3GiOchdwVoY8CdtgFSrrOpLWguu4lmLNcTUL6iB8y42B0ucG5DUHBxH4U9w1uQdIEKwss5avRTEE3L7mJgEMenQhKT8fp5L73KY3K8OvY5k82Ksy3oby922v36BybvRZ3/pngkqGEJmB4zZ0USP4GLNYYe+o181wsncCa3KfYZ8DKIDuQOCBiYiZL9DbvyvKH6kOh9fXUQkj/XBS9GFO3PSo2Lhdul0kUfEue5Xa5+L59Unubj2EJ8Hpe8hAgYFi35rPKb56s8+UPRs/k5qx80qx8x+I0OQo5Mzo/OZUTPPbrqgr18ed981KvevW9S+4zrGdWt2exXVIxmow8P5oP6FvW8b/Q5qv3cnJeokNH+PLrnb/R5qjwRZ4IiUgmzNI/OC5L9Hp3HzXl35/Fd849s/936RMwk+PXfnq/3yg+VJ6hrBcH6vugPZG8fCA5c96Pev4RNxKLp1sBk+KrzD8i4iC7mDqzPjo0XWN8e+D+UxokO8mX55b+p/0Og9fIPi74v+ZNJI6SA8chy3/X5pJ+rtk3vCySvdodg8POHVgskZhE59nZG+2Pxi1S3Zgzks6sOKkjuzY54WDFmzkXjLy7OzY691lEfcnPsTy6t7xrPTmZAdWc/OZO0KFNisCIPmC6ET+eeP4MhRIXMiCEy4hjZC9ICJS1ZwfzIWrHAGofYktu04CAHOCUiTT8CnJA9FLVMMVbEIquzFOsXmG7k34GQ8xbcXVkwWGqut4oNoNugVderIXPLjqG528gZve78ywVpEWsla0C81Jt+obp+AeyiLZg66gCicnbHA1gDGGr3L008ABugUS7XfPSppPfIfvVw98KKxGlAdPuQ8R1GUkLTag1EeZ7sGlsULHwaVX2LyHnP4QivkSkii9QiR3Qg1206GmRiQtNi3oi/z9TmmR2gUTlhXTTftiBVyqxWZQ9tCt4XkUYqkDltM7vmF1YqlngA3U2pM5fB5Z83Rc4rJS5VuRHTNitLL2n9tKPqSN+BUtCVWcQBX/hLLz0UW33l/T4bIMmtRU3gl9a0/twRmgTuWvQKpuooRSQyD8CTUBixWDQXoYjkHc1FDtDrVf9sgGjrItLwS8vG1bbj9gihaTkTzB4St37RjXhK2khs7lZJrqzGZf9rgNShJu5jFIK6M3velzjfi1nGVDStVeRw0q9rZyLA0o37rV78u3fpd99shDvUI2J/ikUfcgV5yI7rmnOwm5gypbM5amZDx9WuIEFVRscaR7vkRF0HN82wa1RwpDGQYz5dG48dRdbVyS4SLr1DcIWLk324qTyXRSRmd0Y3bmIrmNE1CLIBBP8t9rQw8QNa48XPnjoACd0OQJgBq/5GelAARw7TcJDzctLY+ZYc5SqAo3igq1s52Ze2mEaLAzI6G6uaQJaVq81WvYIM4IC6OdjBTjkFQRYqCrI3uW9aa65SqyO9tPlV2hSaFCUbLMY2WL6WXYndwHRoc82FlhtIvxBdqePAhHdzCYN1AVDh1XQHaGAKtQ73DkzNrB4jmxiyr0otXwsGy1pdqLguYprSo2oz8nR9PduN+/EYYfKx4m5E05t6TYphsuLegva6FFfyM5G9VrISG3eliEnJypsSOAurqjsRZJlKUOd4U6CWp6tH7ghiZQdi2QAEmbs7EQ1BrNzU65tbGFstU0WDn4uGo5PpbtkRNSaTZFfFs6tHpuKu7FKHdmlh41RfHcn8uDTU+56Z2Uddsz8zcbqluZ1OCDEtOtnUAcTQTsWVwHFGPzlAdDLH7zWjfTOAchbJ5fRnxMjsNUd345MRS25lBasOIDQ+dgWm5yZP2VzXkIlGYPFPnTNNweVih4pvPLZUKhdyUO4xOu7hGBwhR9e6hS2fZwMMLr2KbqcHN+ecWpoyONz1tZG7juRC5zR5BPtV8UbBPfDpwYwAsC9CzBhsVLeezNovrtlOREwwqw0eAdfTxQ2d/aSsdK0+uVmIxridHeikFTKdm2dGVw/ZkD/smgdaqMXNCbVHfeFGO6r/ne9AR1c0ecLeffMx5ne5ZtevCbkn8t0DYjD/oOkMixM3zeJEnmEY34yu443v6NUWVZK+BdW3xmFw0KtyA0k6enLLm2bmkiNuCS/KoMnPFjHz7iHVXXNCkd82P/Ty3FxR7Mlq3ojrKe+7mkOifsp6Vk6RBE0LLWQe1198rdU8E/dXnLnKOU/XXLHy50lcM/maEIQM6oJvsimOLl03/DrXnDNgUtixMMpkfqArv5jMR9X3tTCemxOK/pS+af6cksqjK60gQtk1o9bPw3BLAvexjFI2zZMl/imc+0pasbS6IWHzRgnIts2Z5b7eNn/28txcWvWH6VqunCVP9Aec/5O5lUdS4CAPtA+umXNmRDNpUtrkiTyW1F7ltmleLdB45l6JLlbNnAlNCjXmXXNsseeZYRLfbL9wQz+9jxYww/6qzGfzuSmNIU2em13LeVwwDjeDlf3aNacVuvHiiuD8hfmROCnmy2W42ZT/OAU35w9q3xIXrgZNAJg8YbzBfWyibPxPOV/r4x3sb0j5An9uLWg52qsFeCYvbCO2t0HP4/bjKSq/+ziLlNdsP/7iuxNQ/PtInps/q/zYPd99TIefL/5D5PaGrtn4aq7AzduFpNfQvwqKh5g8offBlV/smsNr24OKCJZLDsS6iU/1401l8zEjJWJyfBdd2iij/fHlYtyMPT7owcD+sNjz14KYt+EhkZu/RiWExYisiOR6F0TuFev0OWw+dqPNRXYfm9MK+039iP8S3+ZbeZKg2H2JT1BuzrC4vBXylovDPjFpVTSbPriswFF2sJGx60rekYlSlX2z6QjpvonA/SBdy3981a5OdkVMzzWbrMzScdw+pliqx8CAtmPdFfYHHSkp88e7XH1qZnvzoN4I8QZnEDLXn7mv+SSevytd4Z5P0X1rcysvAW/CeD26M875x+j6LCZu0551/RNnjLIeRC7fWNefvi/dt4/kN43s3fwJj4xZOReb+zNrPV/ij1VmPb38cbb/43PJG3n7w+u3mX/7/OXLy6edb/9fv+Vs//TyHej88/8A);lineShape=1;fontSize=6;" vertex="1" parent="1">
                    <mxGeometry x="1271.458545619092" y="70.86337151387832" width="52.7526399477375" height="41.796220456757865" as="geometry"/>
                </mxCell>
                <mxCell id="267" value="ab in dono pe nishana" style="text;html=1;align=center;verticalAlign=middle;resizable=0;points=[];autosize=1;strokeColor=none;fillColor=none;fontSize=6;" vertex="1" parent="1">
                    <mxGeometry x="1260" y="107.6" width="80" height="20" as="geometry"/>
                </mxCell>
                <mxCell id="268" value="prev-&amp;gt;next=nextn" style="text;html=1;align=center;verticalAlign=middle;resizable=0;points=[];autosize=1;strokeColor=none;fillColor=none;fontSize=6;" vertex="1" parent="1">
                    <mxGeometry x="1013.68" y="140" width="70" height="20" as="geometry"/>
                </mxCell>
                <mxCell id="303" value="&lt;span style=&quot;font-size: 6px;&quot;&gt;2&lt;/span&gt;" style="ellipse;whiteSpace=wrap;html=1;" vertex="1" parent="1">
                    <mxGeometry x="1420" y="90.86" width="10" height="10" as="geometry"/>
                </mxCell>
                <mxCell id="304" value="" style="ellipse;whiteSpace=wrap;html=1;" vertex="1" parent="1">
                    <mxGeometry x="1450" y="90.86" width="10" height="10" as="geometry"/>
                </mxCell>
                <mxCell id="305" value="" style="ellipse;whiteSpace=wrap;html=1;" vertex="1" parent="1">
                    <mxGeometry x="1480" y="90.86" width="10" height="10" as="geometry"/>
                </mxCell>
                <mxCell id="306" value="" style="ellipse;whiteSpace=wrap;html=1;" vertex="1" parent="1">
                    <mxGeometry x="1510" y="90.86" width="10" height="10" as="geometry"/>
                </mxCell>
                <mxCell id="307" value="" style="edgeStyle=none;orthogonalLoop=1;jettySize=auto;html=1;" edge="1" parent="1">
                    <mxGeometry width="80" relative="1" as="geometry">
                        <mxPoint x="1430" y="95.80999999999993" as="sourcePoint"/>
                        <mxPoint x="1450" y="95.80999999999993" as="targetPoint"/>
                        <Array as="points"/>
                    </mxGeometry>
                </mxCell>
                <mxCell id="308" value="" style="edgeStyle=none;orthogonalLoop=1;jettySize=auto;html=1;" edge="1" parent="1">
                    <mxGeometry width="80" relative="1" as="geometry">
                        <mxPoint x="1460" y="95.80999999999993" as="sourcePoint"/>
                        <mxPoint x="1480" y="95.80999999999993" as="targetPoint"/>
                        <Array as="points"/>
                    </mxGeometry>
                </mxCell>
                <mxCell id="309" value="" style="edgeStyle=none;orthogonalLoop=1;jettySize=auto;html=1;" edge="1" parent="1">
                    <mxGeometry width="80" relative="1" as="geometry">
                        <mxPoint x="1490" y="95.80999999999993" as="sourcePoint"/>
                        <mxPoint x="1510" y="95.80999999999993" as="targetPoint"/>
                        <Array as="points"/>
                    </mxGeometry>
                </mxCell>
                <mxCell id="310" value="" style="edgeStyle=none;orthogonalLoop=1;jettySize=auto;html=1;" edge="1" parent="1">
                    <mxGeometry width="80" relative="1" as="geometry">
                        <mxPoint x="1514.9199999999998" y="73.72999999999993" as="sourcePoint"/>
                        <mxPoint x="1514.9199999999998" y="88.78" as="targetPoint"/>
                        <Array as="points">
                            <mxPoint x="1514.97" y="77.92"/>
                        </Array>
                    </mxGeometry>
                </mxCell>
                <mxCell id="311" value="&lt;div style=&quot;text-align: center;&quot;&gt;3&lt;/div&gt;" style="text;whiteSpace=wrap;html=1;fontSize=6;" vertex="1" parent="1">
                    <mxGeometry x="1480" y="85.86" width="10" height="20" as="geometry"/>
                </mxCell>
                <mxCell id="312" value="&lt;div style=&quot;text-align: center;&quot;&gt;4&lt;/div&gt;" style="text;whiteSpace=wrap;html=1;fontSize=6;" vertex="1" parent="1">
                    <mxGeometry x="1510" y="85.86" width="10" height="20" as="geometry"/>
                </mxCell>
                <mxCell id="313" value="&lt;font style=&quot;font-size: 6px;&quot;&gt;curr&lt;/font&gt;" style="text;html=1;align=center;verticalAlign=middle;resizable=0;points=[];autosize=1;strokeColor=none;fillColor=none;fontSize=6;" vertex="1" parent="1">
                    <mxGeometry x="1465" y="60" width="30" height="20" as="geometry"/>
                </mxCell>
                <mxCell id="314" value="" style="edgeStyle=none;orthogonalLoop=1;jettySize=auto;html=1;" edge="1" parent="1">
                    <mxGeometry width="80" relative="1" as="geometry">
                        <mxPoint x="1484.9199999999998" y="73.90999999999993" as="sourcePoint"/>
                        <mxPoint x="1484.9199999999998" y="88.96" as="targetPoint"/>
                        <Array as="points"/>
                    </mxGeometry>
                </mxCell>
                <mxCell id="315" value="&lt;span style=&quot;font-size: 6px;&quot;&gt;0&lt;/span&gt;" style="ellipse;whiteSpace=wrap;html=1;" vertex="1" parent="1">
                    <mxGeometry x="1390" y="90.86" width="10" height="10" as="geometry"/>
                </mxCell>
                <mxCell id="316" value="" style="edgeStyle=none;orthogonalLoop=1;jettySize=auto;html=1;" edge="1" parent="1">
                    <mxGeometry width="80" relative="1" as="geometry">
                        <mxPoint x="1400" y="95.80999999999993" as="sourcePoint"/>
                        <mxPoint x="1420" y="95.80999999999993" as="targetPoint"/>
                        <Array as="points"/>
                    </mxGeometry>
                </mxCell>
                <mxCell id="317" value="" style="edgeStyle=none;orthogonalLoop=1;jettySize=auto;html=1;" edge="1" parent="1">
                    <mxGeometry width="80" relative="1" as="geometry">
                        <mxPoint x="1454.9199999999998" y="73.45999999999994" as="sourcePoint"/>
                        <mxPoint x="1454.9199999999998" y="88.51" as="targetPoint"/>
                        <Array as="points">
                            <mxPoint x="1454.97" y="77.65"/>
                        </Array>
                    </mxGeometry>
                </mxCell>
                <mxCell id="318" value="&lt;div style=&quot;text-align: center;&quot;&gt;1&lt;/div&gt;" style="text;whiteSpace=wrap;html=1;fontSize=6;" vertex="1" parent="1">
                    <mxGeometry x="1450" y="85.86" width="10" height="20" as="geometry"/>
                </mxCell>
                <mxCell id="319" value="nxtn" style="text;html=1;align=center;verticalAlign=middle;resizable=0;points=[];autosize=1;strokeColor=none;fillColor=none;fontSize=6;" vertex="1" parent="1">
                    <mxGeometry x="1500" y="60" width="30" height="20" as="geometry"/>
                </mxCell>
                <mxCell id="322" value="prev" style="text;html=1;align=center;verticalAlign=middle;resizable=0;points=[];autosize=1;strokeColor=none;fillColor=none;fontSize=6;" vertex="1" parent="1">
                    <mxGeometry x="1435" y="60" width="40" height="20" as="geometry"/>
                </mxCell>
                <mxCell id="324" value="left se reassginment start karo&lt;br&gt;prev=nextn&lt;br&gt;curr=curr-&amp;gt;next&lt;br&gt;nxtn=curr-&amp;gt;next" style="text;html=1;align=center;verticalAlign=middle;resizable=0;points=[];autosize=1;strokeColor=none;fillColor=none;fontSize=6;" vertex="1" parent="1">
                    <mxGeometry x="1300" y="160" width="100" height="40" as="geometry"/>
                </mxCell>
            </root>
        </mxGraphModel>
    </diagram>
</mxfile>